M48
; DRILL file {KiCad 9.0.2} date 2025-06-21T01:52:59-0400
; FORMAT={-:-/ absolute / metric / decimal}
; #@! TF.CreationDate,2025-06-21T01:52:59-04:00
; #@! TF.GenerationSoftware,Kicad,Pcbnew,9.0.2
; #@! TF.FileFunction,Plated,1,2,PTH
FMAT,2
METRIC
; #@! TA.AperFunction,Plated,PTH,ViaDrill
T1C0.400
; #@! TA.AperFunction,Plated,PTH,ComponentDrill
T2C0.500
; #@! TA.AperFunction,Plated,PTH,ComponentDrill
T3C0.580
; #@! TA.AperFunction,Plated,PTH,ComponentDrill
T4C0.600
; #@! TA.AperFunction,Plated,PTH,ComponentDrill
T5C0.710
; #@! TA.AperFunction,Plated,PTH,ComponentDrill
T6C0.740
; #@! TA.AperFunction,Plated,PTH,ComponentDrill
T7C0.800
; #@! TA.AperFunction,Plated,PTH,ComponentDrill
T8C0.900
; #@! TA.AperFunction,Plated,PTH,ComponentDrill
T9C0.910
; #@! TA.AperFunction,Plated,PTH,ComponentDrill
T10C1.000
; #@! TA.AperFunction,Plated,PTH,ComponentDrill
T11C1.400
; #@! TA.AperFunction,Plated,PTH,ComponentDrill
T12C2.100
%
G90
G05
T1
X116.85Y-99.1
X131.5Y-90.35
T2
X115.2Y-54.0
X116.5Y-95.4
X124.3Y-97.46
T4
X119.323Y-97.6
X120.823Y-97.6
X133.0Y-88.9
X134.3Y-68.0
X134.5Y-88.9
X135.8Y-68.0
T5
X127.22Y-83.95
X132.3Y-83.95
X132.45Y-56.56
X132.45Y-61.64
X139.6Y-79.21
X139.6Y-84.29
X143.4Y-83.2
X149.15Y-56.36
X149.15Y-61.44
X149.7Y-87.66
X149.7Y-92.74
X149.8Y-83.2
X150.6Y-68.51
X150.6Y-73.59
X153.05Y-56.32
X153.05Y-61.4
T6
X139.24Y-67.53
X139.24Y-75.47
X141.78Y-67.53
X141.78Y-75.47
X144.32Y-67.53
X144.32Y-75.47
X146.86Y-67.53
X146.86Y-75.47
T7
X116.39Y-86.7
X116.39Y-89.8
X116.4Y-83.6
X116.4Y-92.9
X124.01Y-86.7
X124.01Y-89.8
X124.02Y-83.6
X124.02Y-92.9
X125.95Y-52.88
X125.95Y-60.5
X127.04Y-92.85
X134.66Y-92.85
X135.95Y-77.98
X135.95Y-85.6
X136.05Y-55.09
X136.05Y-62.71
X139.25Y-55.08
X139.25Y-62.7
X142.45Y-55.09
X142.45Y-62.71
X142.79Y-79.1
X145.65Y-55.1
X145.65Y-62.72
X150.41Y-79.1
X153.4Y-85.59
X153.4Y-93.21
T8
X101.86Y-73.4
X104.4Y-73.4
T10
X118.796Y-49.2
X121.336Y-49.2
X123.876Y-49.2
X126.416Y-49.2
X127.94Y-97.46
X128.956Y-49.2
X130.48Y-97.46
X131.496Y-49.2
X133.02Y-97.46
X134.036Y-49.2
X135.56Y-97.46
X136.576Y-49.2
X138.1Y-97.46
X139.116Y-49.2
X140.1Y-90.705
X140.64Y-97.46
X141.656Y-49.2
X142.6Y-90.705
X143.18Y-97.46
X145.1Y-90.705
X145.72Y-49.2
X145.72Y-97.46
X148.26Y-49.2
X150.8Y-49.2
X150.8Y-97.46
X153.34Y-49.2
X153.34Y-97.46
X155.88Y-49.2
X155.88Y-97.46
X158.42Y-49.2
X158.42Y-97.46
X160.96Y-49.2
X160.96Y-97.46
X163.5Y-49.2
X163.5Y-97.46
T11
X94.385Y-82.8
X94.385Y-89.15
X94.385Y-95.5
X94.885Y-51.25
X94.885Y-57.6
X94.885Y-63.95
X110.615Y-82.8
X110.615Y-89.15
X110.615Y-95.5
X111.115Y-51.25
X111.115Y-57.6
X111.115Y-63.95
T12
X117.25Y-66.65
X117.25Y-71.95
X117.25Y-77.25
X122.05Y-66.65
X122.05Y-71.95
X122.05Y-77.25
X126.85Y-66.65
X126.85Y-71.95
X126.85Y-77.25
T3
X158.5Y-58.6G85X158.5Y-60.7
G05
X158.7Y-85.95G85X158.7Y-88.05
G05
X162.6Y-58.6G85X162.6Y-60.7
G05
X162.8Y-85.95G85X162.8Y-88.05
G05
T9
X155.05Y-70.435G85X155.05Y-72.465
G05
X159.75Y-70.435G85X159.75Y-72.465
G05
X164.45Y-70.435G85X164.45Y-72.465
G05
M30
