G04 #@! TF.GenerationSoftware,KiCad,Pcbnew,9.0.2*
G04 #@! TF.CreationDate,2025-06-21T01:50:52-04:00*
G04 #@! TF.ProjectId,ArduinoGuitarShield v2,41726475-696e-46f4-9775-697461725368,rev?*
G04 #@! TF.SameCoordinates,Original*
G04 #@! TF.FileFunction,Legend,Bot*
G04 #@! TF.FilePolarity,Positive*
%FSLAX46Y46*%
G04 Gerber Fmt 4.6, Leading zero omitted, Abs format (unit mm)*
G04 Created by KiCad (PCBNEW 9.0.2) date 2025-06-21 01:50:52*
%MOMM*%
%LPD*%
G01*
G04 APERTURE LIST*
G04 Aperture macros list*
%AMRoundRect*
0 Rectangle with rounded corners*
0 $1 Rounding radius*
0 $2 $3 $4 $5 $6 $7 $8 $9 X,Y pos of 4 corners*
0 Add a 4 corners polygon primitive as box body*
4,1,4,$2,$3,$4,$5,$6,$7,$8,$9,$2,$3,0*
0 Add four circle primitives for the rounded corners*
1,1,$1+$1,$2,$3*
1,1,$1+$1,$4,$5*
1,1,$1+$1,$6,$7*
1,1,$1+$1,$8,$9*
0 Add four rect primitives between the rounded corners*
20,1,$1+$1,$2,$3,$4,$5,0*
20,1,$1+$1,$4,$5,$6,$7,0*
20,1,$1+$1,$6,$7,$8,$9,0*
20,1,$1+$1,$8,$9,$2,$3,0*%
G04 Aperture macros list end*
%ADD10O,2.014000X3.824000*%
%ADD11C,1.200000*%
%ADD12RoundRect,0.250000X0.350000X0.350000X-0.350000X0.350000X-0.350000X-0.350000X0.350000X-0.350000X0*%
%ADD13C,1.422000*%
%ADD14C,2.304000*%
%ADD15C,1.600000*%
%ADD16R,1.800000X1.800000*%
%ADD17C,1.800000*%
%ADD18O,1.224000X3.324000*%
%ADD19R,1.000000X1.000000*%
%ADD20RoundRect,0.102000X-0.754000X-0.754000X0.754000X-0.754000X0.754000X0.754000X-0.754000X0.754000X0*%
%ADD21C,1.712000*%
%ADD22R,2.500000X2.500000*%
%ADD23R,1.700000X1.700000*%
%ADD24O,1.700000X1.700000*%
%ADD25C,3.200000*%
%ADD26C,1.344000*%
%ADD27RoundRect,0.102000X-0.570000X0.570000X-0.570000X-0.570000X0.570000X-0.570000X0.570000X0.570000X0*%
G04 APERTURE END LIST*
%LPC*%
D10*
X164450000Y-71450000D03*
X159750000Y-71450000D03*
X155050000Y-71450000D03*
D11*
X134300000Y-68000000D03*
D12*
X135800000Y-68000000D03*
D13*
X150600000Y-73590000D03*
X150600000Y-68510000D03*
X149700000Y-92740000D03*
X149700000Y-87660000D03*
D12*
X120822600Y-97600000D03*
D11*
X119322600Y-97600000D03*
D14*
X110615000Y-82800000D03*
X110615000Y-95500000D03*
X110615000Y-89150000D03*
X94385000Y-89150000D03*
X94385000Y-95500000D03*
X94385000Y-82800000D03*
D15*
X124020000Y-83600000D03*
X116400000Y-83600000D03*
D14*
X94885000Y-63950000D03*
X94885000Y-51250000D03*
X94885000Y-57600000D03*
X111115000Y-57600000D03*
X111115000Y-51250000D03*
X111115000Y-63950000D03*
D13*
X139600000Y-79210000D03*
X139600000Y-84290000D03*
X153050000Y-56320000D03*
X153050000Y-61400000D03*
X132300000Y-83950000D03*
X127220000Y-83950000D03*
D11*
X133000000Y-88900000D03*
D12*
X134500000Y-88900000D03*
D13*
X143400000Y-83200000D03*
X149800000Y-83200000D03*
X149150000Y-56360000D03*
X149150000Y-61440000D03*
X132450000Y-61640000D03*
X132450000Y-56560000D03*
D16*
X104400000Y-73400000D03*
D17*
X101860000Y-73400000D03*
D15*
X142790000Y-79100000D03*
X150410000Y-79100000D03*
X124010000Y-89800000D03*
X116390000Y-89800000D03*
X134660000Y-92850000D03*
X127040000Y-92850000D03*
X153400000Y-85590000D03*
X153400000Y-93210000D03*
X139250000Y-55080000D03*
X139250000Y-62700000D03*
X135950000Y-85600000D03*
X135950000Y-77980000D03*
X116400000Y-92900000D03*
X124020000Y-92900000D03*
D18*
X158500000Y-59650000D03*
X162600000Y-59650000D03*
D15*
X145650000Y-62720000D03*
X145650000Y-55100000D03*
X125950000Y-52880000D03*
X125950000Y-60500000D03*
X136050000Y-62710000D03*
X136050000Y-55090000D03*
D18*
X158700000Y-87000000D03*
X162800000Y-87000000D03*
D15*
X142450000Y-55090000D03*
X142450000Y-62710000D03*
X124010000Y-86700000D03*
X116390000Y-86700000D03*
D19*
X116500000Y-95400000D03*
D20*
X140100000Y-90705000D03*
D21*
X142600000Y-90705000D03*
X145100000Y-90705000D03*
D19*
X115200000Y-54000000D03*
D22*
X126850000Y-66650000D03*
X122050000Y-66650000D03*
X117250000Y-66650000D03*
X126850000Y-71950000D03*
X122050000Y-71950000D03*
X117250000Y-71950000D03*
X126850000Y-77250000D03*
X122050000Y-77250000D03*
X117250000Y-77250000D03*
D19*
X124300000Y-97460000D03*
D23*
X127940000Y-97460000D03*
D24*
X130480000Y-97460000D03*
X133020000Y-97460000D03*
X135560000Y-97460000D03*
X138100000Y-97460000D03*
X140640000Y-97460000D03*
X143180000Y-97460000D03*
X145720000Y-97460000D03*
D23*
X150800000Y-97460000D03*
D24*
X153340000Y-97460000D03*
X155880000Y-97460000D03*
X158420000Y-97460000D03*
X160960000Y-97460000D03*
X163500000Y-97460000D03*
D23*
X118796000Y-49200000D03*
D24*
X121336000Y-49200000D03*
X123876000Y-49200000D03*
X126416000Y-49200000D03*
X128956000Y-49200000D03*
X131496000Y-49200000D03*
X134036000Y-49200000D03*
X136576000Y-49200000D03*
X139116000Y-49200000D03*
X141656000Y-49200000D03*
D23*
X145720000Y-49200000D03*
D24*
X148260000Y-49200000D03*
X150800000Y-49200000D03*
X153340000Y-49200000D03*
X155880000Y-49200000D03*
X158420000Y-49200000D03*
X160960000Y-49200000D03*
X163500000Y-49200000D03*
D25*
X115240000Y-49200000D03*
X113970000Y-97460000D03*
X166040000Y-64440000D03*
X166040000Y-92380000D03*
D26*
X146860000Y-75470000D03*
X144320000Y-75470000D03*
X141780000Y-75470000D03*
X139240000Y-75470000D03*
X139240000Y-67530000D03*
X141780000Y-67530000D03*
X144320000Y-67530000D03*
D27*
X146860000Y-67530000D03*
%LPD*%
M02*
