G04 #@! TF.GenerationSoftware,KiCad,Pcbnew,9.0.2*
G04 #@! TF.CreationDate,2025-06-21T01:50:52-04:00*
G04 #@! TF.ProjectId,ArduinoGuitarShield v2,41726475-696e-46f4-9775-697461725368,rev?*
G04 #@! TF.SameCoordinates,Original*
G04 #@! TF.FileFunction,Legend,Top*
G04 #@! TF.FilePolarity,Positive*
%FSLAX46Y46*%
G04 Gerber Fmt 4.6, Leading zero omitted, Abs format (unit mm)*
G04 Created by KiCad (PCBNEW 9.0.2) date 2025-06-21 01:50:52*
%MOMM*%
%LPD*%
G01*
G04 APERTURE LIST*
G04 Aperture macros list*
%AMRoundRect*
0 Rectangle with rounded corners*
0 $1 Rounding radius*
0 $2 $3 $4 $5 $6 $7 $8 $9 X,Y pos of 4 corners*
0 Add a 4 corners polygon primitive as box body*
4,1,4,$2,$3,$4,$5,$6,$7,$8,$9,$2,$3,0*
0 Add four circle primitives for the rounded corners*
1,1,$1+$1,$2,$3*
1,1,$1+$1,$4,$5*
1,1,$1+$1,$6,$7*
1,1,$1+$1,$8,$9*
0 Add four rect primitives between the rounded corners*
20,1,$1+$1,$2,$3,$4,$5,0*
20,1,$1+$1,$4,$5,$6,$7,0*
20,1,$1+$1,$6,$7,$8,$9,0*
20,1,$1+$1,$8,$9,$2,$3,0*%
G04 Aperture macros list end*
%ADD10C,0.150000*%
%ADD11C,0.187500*%
%ADD12C,0.093750*%
%ADD13C,0.125000*%
%ADD14C,0.200000*%
%ADD15C,0.250000*%
%ADD16C,0.127000*%
%ADD17C,0.120000*%
%ADD18O,2.014000X3.824000*%
%ADD19C,1.200000*%
%ADD20RoundRect,0.250000X0.350000X0.350000X-0.350000X0.350000X-0.350000X-0.350000X0.350000X-0.350000X0*%
%ADD21C,1.422000*%
%ADD22C,2.304000*%
%ADD23C,1.600000*%
%ADD24R,1.800000X1.800000*%
%ADD25C,1.800000*%
%ADD26O,1.224000X3.324000*%
%ADD27R,1.000000X1.000000*%
%ADD28RoundRect,0.102000X-0.754000X-0.754000X0.754000X-0.754000X0.754000X0.754000X-0.754000X0.754000X0*%
%ADD29C,1.712000*%
%ADD30R,2.500000X2.500000*%
%ADD31R,1.700000X1.700000*%
%ADD32O,1.700000X1.700000*%
%ADD33C,3.200000*%
%ADD34C,1.344000*%
%ADD35RoundRect,0.102000X-0.570000X0.570000X-0.570000X-0.570000X0.570000X-0.570000X0.570000X0.570000X0*%
G04 APERTURE END LIST*
D10*
X103530180Y-55227255D02*
X103530180Y-55417731D01*
X103530180Y-55417731D02*
X103482561Y-55512969D01*
X103482561Y-55512969D02*
X103387323Y-55608207D01*
X103387323Y-55608207D02*
X103196847Y-55655826D01*
X103196847Y-55655826D02*
X102863514Y-55655826D01*
X102863514Y-55655826D02*
X102673038Y-55608207D01*
X102673038Y-55608207D02*
X102577800Y-55512969D01*
X102577800Y-55512969D02*
X102530180Y-55417731D01*
X102530180Y-55417731D02*
X102530180Y-55227255D01*
X102530180Y-55227255D02*
X102577800Y-55132017D01*
X102577800Y-55132017D02*
X102673038Y-55036779D01*
X102673038Y-55036779D02*
X102863514Y-54989160D01*
X102863514Y-54989160D02*
X103196847Y-54989160D01*
X103196847Y-54989160D02*
X103387323Y-55036779D01*
X103387323Y-55036779D02*
X103482561Y-55132017D01*
X103482561Y-55132017D02*
X103530180Y-55227255D01*
X103196847Y-56512969D02*
X102530180Y-56512969D01*
X103196847Y-56084398D02*
X102673038Y-56084398D01*
X102673038Y-56084398D02*
X102577800Y-56132017D01*
X102577800Y-56132017D02*
X102530180Y-56227255D01*
X102530180Y-56227255D02*
X102530180Y-56370112D01*
X102530180Y-56370112D02*
X102577800Y-56465350D01*
X102577800Y-56465350D02*
X102625419Y-56512969D01*
X103196847Y-56846303D02*
X103196847Y-57227255D01*
X103530180Y-56989160D02*
X102673038Y-56989160D01*
X102673038Y-56989160D02*
X102577800Y-57036779D01*
X102577800Y-57036779D02*
X102530180Y-57132017D01*
X102530180Y-57132017D02*
X102530180Y-57227255D01*
X103196847Y-57560589D02*
X102196847Y-57560589D01*
X103149228Y-57560589D02*
X103196847Y-57655827D01*
X103196847Y-57655827D02*
X103196847Y-57846303D01*
X103196847Y-57846303D02*
X103149228Y-57941541D01*
X103149228Y-57941541D02*
X103101609Y-57989160D01*
X103101609Y-57989160D02*
X103006371Y-58036779D01*
X103006371Y-58036779D02*
X102720657Y-58036779D01*
X102720657Y-58036779D02*
X102625419Y-57989160D01*
X102625419Y-57989160D02*
X102577800Y-57941541D01*
X102577800Y-57941541D02*
X102530180Y-57846303D01*
X102530180Y-57846303D02*
X102530180Y-57655827D01*
X102530180Y-57655827D02*
X102577800Y-57560589D01*
X103196847Y-58893922D02*
X102530180Y-58893922D01*
X103196847Y-58465351D02*
X102673038Y-58465351D01*
X102673038Y-58465351D02*
X102577800Y-58512970D01*
X102577800Y-58512970D02*
X102530180Y-58608208D01*
X102530180Y-58608208D02*
X102530180Y-58751065D01*
X102530180Y-58751065D02*
X102577800Y-58846303D01*
X102577800Y-58846303D02*
X102625419Y-58893922D01*
X103196847Y-59227256D02*
X103196847Y-59608208D01*
X103530180Y-59370113D02*
X102673038Y-59370113D01*
X102673038Y-59370113D02*
X102577800Y-59417732D01*
X102577800Y-59417732D02*
X102530180Y-59512970D01*
X102530180Y-59512970D02*
X102530180Y-59608208D01*
X103530180Y-60989161D02*
X102815895Y-60989161D01*
X102815895Y-60989161D02*
X102673038Y-60941542D01*
X102673038Y-60941542D02*
X102577800Y-60846304D01*
X102577800Y-60846304D02*
X102530180Y-60703447D01*
X102530180Y-60703447D02*
X102530180Y-60608209D01*
X102530180Y-61893923D02*
X103053990Y-61893923D01*
X103053990Y-61893923D02*
X103149228Y-61846304D01*
X103149228Y-61846304D02*
X103196847Y-61751066D01*
X103196847Y-61751066D02*
X103196847Y-61560590D01*
X103196847Y-61560590D02*
X103149228Y-61465352D01*
X102577800Y-61893923D02*
X102530180Y-61798685D01*
X102530180Y-61798685D02*
X102530180Y-61560590D01*
X102530180Y-61560590D02*
X102577800Y-61465352D01*
X102577800Y-61465352D02*
X102673038Y-61417733D01*
X102673038Y-61417733D02*
X102768276Y-61417733D01*
X102768276Y-61417733D02*
X102863514Y-61465352D01*
X102863514Y-61465352D02*
X102911133Y-61560590D01*
X102911133Y-61560590D02*
X102911133Y-61798685D01*
X102911133Y-61798685D02*
X102958752Y-61893923D01*
X102577800Y-62798685D02*
X102530180Y-62703447D01*
X102530180Y-62703447D02*
X102530180Y-62512971D01*
X102530180Y-62512971D02*
X102577800Y-62417733D01*
X102577800Y-62417733D02*
X102625419Y-62370114D01*
X102625419Y-62370114D02*
X102720657Y-62322495D01*
X102720657Y-62322495D02*
X103006371Y-62322495D01*
X103006371Y-62322495D02*
X103101609Y-62370114D01*
X103101609Y-62370114D02*
X103149228Y-62417733D01*
X103149228Y-62417733D02*
X103196847Y-62512971D01*
X103196847Y-62512971D02*
X103196847Y-62703447D01*
X103196847Y-62703447D02*
X103149228Y-62798685D01*
X102530180Y-63227257D02*
X103530180Y-63227257D01*
X102911133Y-63322495D02*
X102530180Y-63608209D01*
X103196847Y-63608209D02*
X102815895Y-63227257D01*
X101980180Y-85186779D02*
X102980180Y-85186779D01*
X102646847Y-85662969D02*
X101980180Y-85662969D01*
X102551609Y-85662969D02*
X102599228Y-85710588D01*
X102599228Y-85710588D02*
X102646847Y-85805826D01*
X102646847Y-85805826D02*
X102646847Y-85948683D01*
X102646847Y-85948683D02*
X102599228Y-86043921D01*
X102599228Y-86043921D02*
X102503990Y-86091540D01*
X102503990Y-86091540D02*
X101980180Y-86091540D01*
X102646847Y-86567731D02*
X101646847Y-86567731D01*
X102599228Y-86567731D02*
X102646847Y-86662969D01*
X102646847Y-86662969D02*
X102646847Y-86853445D01*
X102646847Y-86853445D02*
X102599228Y-86948683D01*
X102599228Y-86948683D02*
X102551609Y-86996302D01*
X102551609Y-86996302D02*
X102456371Y-87043921D01*
X102456371Y-87043921D02*
X102170657Y-87043921D01*
X102170657Y-87043921D02*
X102075419Y-86996302D01*
X102075419Y-86996302D02*
X102027800Y-86948683D01*
X102027800Y-86948683D02*
X101980180Y-86853445D01*
X101980180Y-86853445D02*
X101980180Y-86662969D01*
X101980180Y-86662969D02*
X102027800Y-86567731D01*
X102646847Y-87901064D02*
X101980180Y-87901064D01*
X102646847Y-87472493D02*
X102123038Y-87472493D01*
X102123038Y-87472493D02*
X102027800Y-87520112D01*
X102027800Y-87520112D02*
X101980180Y-87615350D01*
X101980180Y-87615350D02*
X101980180Y-87758207D01*
X101980180Y-87758207D02*
X102027800Y-87853445D01*
X102027800Y-87853445D02*
X102075419Y-87901064D01*
X102646847Y-88234398D02*
X102646847Y-88615350D01*
X102980180Y-88377255D02*
X102123038Y-88377255D01*
X102123038Y-88377255D02*
X102027800Y-88424874D01*
X102027800Y-88424874D02*
X101980180Y-88520112D01*
X101980180Y-88520112D02*
X101980180Y-88615350D01*
X102980180Y-89996303D02*
X102265895Y-89996303D01*
X102265895Y-89996303D02*
X102123038Y-89948684D01*
X102123038Y-89948684D02*
X102027800Y-89853446D01*
X102027800Y-89853446D02*
X101980180Y-89710589D01*
X101980180Y-89710589D02*
X101980180Y-89615351D01*
X101980180Y-90901065D02*
X102503990Y-90901065D01*
X102503990Y-90901065D02*
X102599228Y-90853446D01*
X102599228Y-90853446D02*
X102646847Y-90758208D01*
X102646847Y-90758208D02*
X102646847Y-90567732D01*
X102646847Y-90567732D02*
X102599228Y-90472494D01*
X102027800Y-90901065D02*
X101980180Y-90805827D01*
X101980180Y-90805827D02*
X101980180Y-90567732D01*
X101980180Y-90567732D02*
X102027800Y-90472494D01*
X102027800Y-90472494D02*
X102123038Y-90424875D01*
X102123038Y-90424875D02*
X102218276Y-90424875D01*
X102218276Y-90424875D02*
X102313514Y-90472494D01*
X102313514Y-90472494D02*
X102361133Y-90567732D01*
X102361133Y-90567732D02*
X102361133Y-90805827D01*
X102361133Y-90805827D02*
X102408752Y-90901065D01*
X102027800Y-91805827D02*
X101980180Y-91710589D01*
X101980180Y-91710589D02*
X101980180Y-91520113D01*
X101980180Y-91520113D02*
X102027800Y-91424875D01*
X102027800Y-91424875D02*
X102075419Y-91377256D01*
X102075419Y-91377256D02*
X102170657Y-91329637D01*
X102170657Y-91329637D02*
X102456371Y-91329637D01*
X102456371Y-91329637D02*
X102551609Y-91377256D01*
X102551609Y-91377256D02*
X102599228Y-91424875D01*
X102599228Y-91424875D02*
X102646847Y-91520113D01*
X102646847Y-91520113D02*
X102646847Y-91710589D01*
X102646847Y-91710589D02*
X102599228Y-91805827D01*
X101980180Y-92234399D02*
X102980180Y-92234399D01*
X102361133Y-92329637D02*
X101980180Y-92615351D01*
X102646847Y-92615351D02*
X102265895Y-92234399D01*
X116780180Y-79184398D02*
X116780180Y-79374874D01*
X116780180Y-79374874D02*
X116827800Y-79470112D01*
X116827800Y-79470112D02*
X116875419Y-79517731D01*
X116875419Y-79517731D02*
X117018276Y-79612969D01*
X117018276Y-79612969D02*
X117208752Y-79660588D01*
X117208752Y-79660588D02*
X117589704Y-79660588D01*
X117589704Y-79660588D02*
X117684942Y-79612969D01*
X117684942Y-79612969D02*
X117732561Y-79565350D01*
X117732561Y-79565350D02*
X117780180Y-79470112D01*
X117780180Y-79470112D02*
X117780180Y-79279636D01*
X117780180Y-79279636D02*
X117732561Y-79184398D01*
X117732561Y-79184398D02*
X117684942Y-79136779D01*
X117684942Y-79136779D02*
X117589704Y-79089160D01*
X117589704Y-79089160D02*
X117351609Y-79089160D01*
X117351609Y-79089160D02*
X117256371Y-79136779D01*
X117256371Y-79136779D02*
X117208752Y-79184398D01*
X117208752Y-79184398D02*
X117161133Y-79279636D01*
X117161133Y-79279636D02*
X117161133Y-79470112D01*
X117161133Y-79470112D02*
X117208752Y-79565350D01*
X117208752Y-79565350D02*
X117256371Y-79612969D01*
X117256371Y-79612969D02*
X117351609Y-79660588D01*
X122201609Y-79229636D02*
X122249228Y-79134398D01*
X122249228Y-79134398D02*
X122296847Y-79086779D01*
X122296847Y-79086779D02*
X122392085Y-79039160D01*
X122392085Y-79039160D02*
X122439704Y-79039160D01*
X122439704Y-79039160D02*
X122534942Y-79086779D01*
X122534942Y-79086779D02*
X122582561Y-79134398D01*
X122582561Y-79134398D02*
X122630180Y-79229636D01*
X122630180Y-79229636D02*
X122630180Y-79420112D01*
X122630180Y-79420112D02*
X122582561Y-79515350D01*
X122582561Y-79515350D02*
X122534942Y-79562969D01*
X122534942Y-79562969D02*
X122439704Y-79610588D01*
X122439704Y-79610588D02*
X122392085Y-79610588D01*
X122392085Y-79610588D02*
X122296847Y-79562969D01*
X122296847Y-79562969D02*
X122249228Y-79515350D01*
X122249228Y-79515350D02*
X122201609Y-79420112D01*
X122201609Y-79420112D02*
X122201609Y-79229636D01*
X122201609Y-79229636D02*
X122153990Y-79134398D01*
X122153990Y-79134398D02*
X122106371Y-79086779D01*
X122106371Y-79086779D02*
X122011133Y-79039160D01*
X122011133Y-79039160D02*
X121820657Y-79039160D01*
X121820657Y-79039160D02*
X121725419Y-79086779D01*
X121725419Y-79086779D02*
X121677800Y-79134398D01*
X121677800Y-79134398D02*
X121630180Y-79229636D01*
X121630180Y-79229636D02*
X121630180Y-79420112D01*
X121630180Y-79420112D02*
X121677800Y-79515350D01*
X121677800Y-79515350D02*
X121725419Y-79562969D01*
X121725419Y-79562969D02*
X121820657Y-79610588D01*
X121820657Y-79610588D02*
X122011133Y-79610588D01*
X122011133Y-79610588D02*
X122106371Y-79562969D01*
X122106371Y-79562969D02*
X122153990Y-79515350D01*
X122153990Y-79515350D02*
X122201609Y-79420112D01*
X127380180Y-78991541D02*
X127380180Y-79658207D01*
X127380180Y-79658207D02*
X126380180Y-79229636D01*
X117830180Y-74465350D02*
X117830180Y-74274874D01*
X117830180Y-74274874D02*
X117782561Y-74179636D01*
X117782561Y-74179636D02*
X117734942Y-74132017D01*
X117734942Y-74132017D02*
X117592085Y-74036779D01*
X117592085Y-74036779D02*
X117401609Y-73989160D01*
X117401609Y-73989160D02*
X117020657Y-73989160D01*
X117020657Y-73989160D02*
X116925419Y-74036779D01*
X116925419Y-74036779D02*
X116877800Y-74084398D01*
X116877800Y-74084398D02*
X116830180Y-74179636D01*
X116830180Y-74179636D02*
X116830180Y-74370112D01*
X116830180Y-74370112D02*
X116877800Y-74465350D01*
X116877800Y-74465350D02*
X116925419Y-74512969D01*
X116925419Y-74512969D02*
X117020657Y-74560588D01*
X117020657Y-74560588D02*
X117258752Y-74560588D01*
X117258752Y-74560588D02*
X117353990Y-74512969D01*
X117353990Y-74512969D02*
X117401609Y-74465350D01*
X117401609Y-74465350D02*
X117449228Y-74370112D01*
X117449228Y-74370112D02*
X117449228Y-74179636D01*
X117449228Y-74179636D02*
X117401609Y-74084398D01*
X117401609Y-74084398D02*
X117353990Y-74036779D01*
X117353990Y-74036779D02*
X117258752Y-73989160D01*
X122630180Y-74512969D02*
X122630180Y-74036779D01*
X122630180Y-74036779D02*
X122153990Y-73989160D01*
X122153990Y-73989160D02*
X122201609Y-74036779D01*
X122201609Y-74036779D02*
X122249228Y-74132017D01*
X122249228Y-74132017D02*
X122249228Y-74370112D01*
X122249228Y-74370112D02*
X122201609Y-74465350D01*
X122201609Y-74465350D02*
X122153990Y-74512969D01*
X122153990Y-74512969D02*
X122058752Y-74560588D01*
X122058752Y-74560588D02*
X121820657Y-74560588D01*
X121820657Y-74560588D02*
X121725419Y-74512969D01*
X121725419Y-74512969D02*
X121677800Y-74465350D01*
X121677800Y-74465350D02*
X121630180Y-74370112D01*
X121630180Y-74370112D02*
X121630180Y-74132017D01*
X121630180Y-74132017D02*
X121677800Y-74036779D01*
X121677800Y-74036779D02*
X121725419Y-73989160D01*
X127096847Y-74315350D02*
X126430180Y-74315350D01*
X127477800Y-74077255D02*
X126763514Y-73839160D01*
X126763514Y-73839160D02*
X126763514Y-74458207D01*
X117780180Y-68841541D02*
X117780180Y-69460588D01*
X117780180Y-69460588D02*
X117399228Y-69127255D01*
X117399228Y-69127255D02*
X117399228Y-69270112D01*
X117399228Y-69270112D02*
X117351609Y-69365350D01*
X117351609Y-69365350D02*
X117303990Y-69412969D01*
X117303990Y-69412969D02*
X117208752Y-69460588D01*
X117208752Y-69460588D02*
X116970657Y-69460588D01*
X116970657Y-69460588D02*
X116875419Y-69412969D01*
X116875419Y-69412969D02*
X116827800Y-69365350D01*
X116827800Y-69365350D02*
X116780180Y-69270112D01*
X116780180Y-69270112D02*
X116780180Y-68984398D01*
X116780180Y-68984398D02*
X116827800Y-68889160D01*
X116827800Y-68889160D02*
X116875419Y-68841541D01*
X122634942Y-68889160D02*
X122682561Y-68936779D01*
X122682561Y-68936779D02*
X122730180Y-69032017D01*
X122730180Y-69032017D02*
X122730180Y-69270112D01*
X122730180Y-69270112D02*
X122682561Y-69365350D01*
X122682561Y-69365350D02*
X122634942Y-69412969D01*
X122634942Y-69412969D02*
X122539704Y-69460588D01*
X122539704Y-69460588D02*
X122444466Y-69460588D01*
X122444466Y-69460588D02*
X122301609Y-69412969D01*
X122301609Y-69412969D02*
X121730180Y-68841541D01*
X121730180Y-68841541D02*
X121730180Y-69460588D01*
D11*
X126382130Y-69435259D02*
X126382130Y-68863831D01*
X126382130Y-69149545D02*
X127382130Y-69149545D01*
X127382130Y-69149545D02*
X127239273Y-69054307D01*
X127239273Y-69054307D02*
X127144035Y-68959069D01*
X127144035Y-68959069D02*
X127096416Y-68863831D01*
D12*
X153135486Y-77772744D02*
X153135486Y-78487029D01*
X153135486Y-78487029D02*
X153087867Y-78629886D01*
X153087867Y-78629886D02*
X152992629Y-78725125D01*
X152992629Y-78725125D02*
X152849772Y-78772744D01*
X152849772Y-78772744D02*
X152754534Y-78772744D01*
X154087867Y-78772744D02*
X153611677Y-78772744D01*
X153611677Y-78772744D02*
X153611677Y-77772744D01*
X154992629Y-78677505D02*
X154945010Y-78725125D01*
X154945010Y-78725125D02*
X154802153Y-78772744D01*
X154802153Y-78772744D02*
X154706915Y-78772744D01*
X154706915Y-78772744D02*
X154564058Y-78725125D01*
X154564058Y-78725125D02*
X154468820Y-78629886D01*
X154468820Y-78629886D02*
X154421201Y-78534648D01*
X154421201Y-78534648D02*
X154373582Y-78344172D01*
X154373582Y-78344172D02*
X154373582Y-78201315D01*
X154373582Y-78201315D02*
X154421201Y-78010839D01*
X154421201Y-78010839D02*
X154468820Y-77915601D01*
X154468820Y-77915601D02*
X154564058Y-77820363D01*
X154564058Y-77820363D02*
X154706915Y-77772744D01*
X154706915Y-77772744D02*
X154802153Y-77772744D01*
X154802153Y-77772744D02*
X154945010Y-77820363D01*
X154945010Y-77820363D02*
X154992629Y-77867982D01*
X155706915Y-77772744D02*
X155706915Y-78487029D01*
X155706915Y-78487029D02*
X155659296Y-78629886D01*
X155659296Y-78629886D02*
X155564058Y-78725125D01*
X155564058Y-78725125D02*
X155421201Y-78772744D01*
X155421201Y-78772744D02*
X155325963Y-78772744D01*
X156659296Y-78772744D02*
X156183106Y-78772744D01*
X156183106Y-78772744D02*
X156183106Y-77772744D01*
X157564058Y-78677505D02*
X157516439Y-78725125D01*
X157516439Y-78725125D02*
X157373582Y-78772744D01*
X157373582Y-78772744D02*
X157278344Y-78772744D01*
X157278344Y-78772744D02*
X157135487Y-78725125D01*
X157135487Y-78725125D02*
X157040249Y-78629886D01*
X157040249Y-78629886D02*
X156992630Y-78534648D01*
X156992630Y-78534648D02*
X156945011Y-78344172D01*
X156945011Y-78344172D02*
X156945011Y-78201315D01*
X156945011Y-78201315D02*
X156992630Y-78010839D01*
X156992630Y-78010839D02*
X157040249Y-77915601D01*
X157040249Y-77915601D02*
X157135487Y-77820363D01*
X157135487Y-77820363D02*
X157278344Y-77772744D01*
X157278344Y-77772744D02*
X157373582Y-77772744D01*
X157373582Y-77772744D02*
X157516439Y-77820363D01*
X157516439Y-77820363D02*
X157564058Y-77867982D01*
X158278344Y-77772744D02*
X158278344Y-78487029D01*
X158278344Y-78487029D02*
X158230725Y-78629886D01*
X158230725Y-78629886D02*
X158135487Y-78725125D01*
X158135487Y-78725125D02*
X157992630Y-78772744D01*
X157992630Y-78772744D02*
X157897392Y-78772744D01*
X159230725Y-78772744D02*
X158754535Y-78772744D01*
X158754535Y-78772744D02*
X158754535Y-77772744D01*
X160135487Y-78677505D02*
X160087868Y-78725125D01*
X160087868Y-78725125D02*
X159945011Y-78772744D01*
X159945011Y-78772744D02*
X159849773Y-78772744D01*
X159849773Y-78772744D02*
X159706916Y-78725125D01*
X159706916Y-78725125D02*
X159611678Y-78629886D01*
X159611678Y-78629886D02*
X159564059Y-78534648D01*
X159564059Y-78534648D02*
X159516440Y-78344172D01*
X159516440Y-78344172D02*
X159516440Y-78201315D01*
X159516440Y-78201315D02*
X159564059Y-78010839D01*
X159564059Y-78010839D02*
X159611678Y-77915601D01*
X159611678Y-77915601D02*
X159706916Y-77820363D01*
X159706916Y-77820363D02*
X159849773Y-77772744D01*
X159849773Y-77772744D02*
X159945011Y-77772744D01*
X159945011Y-77772744D02*
X160087868Y-77820363D01*
X160087868Y-77820363D02*
X160135487Y-77867982D01*
X160849773Y-77772744D02*
X160849773Y-78487029D01*
X160849773Y-78487029D02*
X160802154Y-78629886D01*
X160802154Y-78629886D02*
X160706916Y-78725125D01*
X160706916Y-78725125D02*
X160564059Y-78772744D01*
X160564059Y-78772744D02*
X160468821Y-78772744D01*
X161802154Y-78772744D02*
X161325964Y-78772744D01*
X161325964Y-78772744D02*
X161325964Y-77772744D01*
X162706916Y-78677505D02*
X162659297Y-78725125D01*
X162659297Y-78725125D02*
X162516440Y-78772744D01*
X162516440Y-78772744D02*
X162421202Y-78772744D01*
X162421202Y-78772744D02*
X162278345Y-78725125D01*
X162278345Y-78725125D02*
X162183107Y-78629886D01*
X162183107Y-78629886D02*
X162135488Y-78534648D01*
X162135488Y-78534648D02*
X162087869Y-78344172D01*
X162087869Y-78344172D02*
X162087869Y-78201315D01*
X162087869Y-78201315D02*
X162135488Y-78010839D01*
X162135488Y-78010839D02*
X162183107Y-77915601D01*
X162183107Y-77915601D02*
X162278345Y-77820363D01*
X162278345Y-77820363D02*
X162421202Y-77772744D01*
X162421202Y-77772744D02*
X162516440Y-77772744D01*
X162516440Y-77772744D02*
X162659297Y-77820363D01*
X162659297Y-77820363D02*
X162706916Y-77867982D01*
D13*
X167928880Y-51006045D02*
X167214595Y-51006045D01*
X167214595Y-51006045D02*
X167071738Y-50958426D01*
X167071738Y-50958426D02*
X166976500Y-50863188D01*
X166976500Y-50863188D02*
X166928880Y-50720331D01*
X166928880Y-50720331D02*
X166928880Y-50625093D01*
X167595547Y-51910807D02*
X166928880Y-51910807D01*
X167595547Y-51482236D02*
X167071738Y-51482236D01*
X167071738Y-51482236D02*
X166976500Y-51529855D01*
X166976500Y-51529855D02*
X166928880Y-51625093D01*
X166928880Y-51625093D02*
X166928880Y-51767950D01*
X166928880Y-51767950D02*
X166976500Y-51863188D01*
X166976500Y-51863188D02*
X167024119Y-51910807D01*
X167595547Y-52386998D02*
X166928880Y-52386998D01*
X167500309Y-52386998D02*
X167547928Y-52434617D01*
X167547928Y-52434617D02*
X167595547Y-52529855D01*
X167595547Y-52529855D02*
X167595547Y-52672712D01*
X167595547Y-52672712D02*
X167547928Y-52767950D01*
X167547928Y-52767950D02*
X167452690Y-52815569D01*
X167452690Y-52815569D02*
X166928880Y-52815569D01*
X166976500Y-53672712D02*
X166928880Y-53577474D01*
X166928880Y-53577474D02*
X166928880Y-53386998D01*
X166928880Y-53386998D02*
X166976500Y-53291760D01*
X166976500Y-53291760D02*
X167071738Y-53244141D01*
X167071738Y-53244141D02*
X167452690Y-53244141D01*
X167452690Y-53244141D02*
X167547928Y-53291760D01*
X167547928Y-53291760D02*
X167595547Y-53386998D01*
X167595547Y-53386998D02*
X167595547Y-53577474D01*
X167595547Y-53577474D02*
X167547928Y-53672712D01*
X167547928Y-53672712D02*
X167452690Y-53720331D01*
X167452690Y-53720331D02*
X167357452Y-53720331D01*
X167357452Y-53720331D02*
X167262214Y-53244141D01*
X167833642Y-54863189D02*
X167881261Y-54910808D01*
X167881261Y-54910808D02*
X167928880Y-55006046D01*
X167928880Y-55006046D02*
X167928880Y-55244141D01*
X167928880Y-55244141D02*
X167881261Y-55339379D01*
X167881261Y-55339379D02*
X167833642Y-55386998D01*
X167833642Y-55386998D02*
X167738404Y-55434617D01*
X167738404Y-55434617D02*
X167643166Y-55434617D01*
X167643166Y-55434617D02*
X167500309Y-55386998D01*
X167500309Y-55386998D02*
X166928880Y-54815570D01*
X166928880Y-54815570D02*
X166928880Y-55434617D01*
X167928880Y-56053665D02*
X167928880Y-56148903D01*
X167928880Y-56148903D02*
X167881261Y-56244141D01*
X167881261Y-56244141D02*
X167833642Y-56291760D01*
X167833642Y-56291760D02*
X167738404Y-56339379D01*
X167738404Y-56339379D02*
X167547928Y-56386998D01*
X167547928Y-56386998D02*
X167309833Y-56386998D01*
X167309833Y-56386998D02*
X167119357Y-56339379D01*
X167119357Y-56339379D02*
X167024119Y-56291760D01*
X167024119Y-56291760D02*
X166976500Y-56244141D01*
X166976500Y-56244141D02*
X166928880Y-56148903D01*
X166928880Y-56148903D02*
X166928880Y-56053665D01*
X166928880Y-56053665D02*
X166976500Y-55958427D01*
X166976500Y-55958427D02*
X167024119Y-55910808D01*
X167024119Y-55910808D02*
X167119357Y-55863189D01*
X167119357Y-55863189D02*
X167309833Y-55815570D01*
X167309833Y-55815570D02*
X167547928Y-55815570D01*
X167547928Y-55815570D02*
X167738404Y-55863189D01*
X167738404Y-55863189D02*
X167833642Y-55910808D01*
X167833642Y-55910808D02*
X167881261Y-55958427D01*
X167881261Y-55958427D02*
X167928880Y-56053665D01*
X167833642Y-56767951D02*
X167881261Y-56815570D01*
X167881261Y-56815570D02*
X167928880Y-56910808D01*
X167928880Y-56910808D02*
X167928880Y-57148903D01*
X167928880Y-57148903D02*
X167881261Y-57244141D01*
X167881261Y-57244141D02*
X167833642Y-57291760D01*
X167833642Y-57291760D02*
X167738404Y-57339379D01*
X167738404Y-57339379D02*
X167643166Y-57339379D01*
X167643166Y-57339379D02*
X167500309Y-57291760D01*
X167500309Y-57291760D02*
X166928880Y-56720332D01*
X166928880Y-56720332D02*
X166928880Y-57339379D01*
X167928880Y-58244141D02*
X167928880Y-57767951D01*
X167928880Y-57767951D02*
X167452690Y-57720332D01*
X167452690Y-57720332D02*
X167500309Y-57767951D01*
X167500309Y-57767951D02*
X167547928Y-57863189D01*
X167547928Y-57863189D02*
X167547928Y-58101284D01*
X167547928Y-58101284D02*
X167500309Y-58196522D01*
X167500309Y-58196522D02*
X167452690Y-58244141D01*
X167452690Y-58244141D02*
X167357452Y-58291760D01*
X167357452Y-58291760D02*
X167119357Y-58291760D01*
X167119357Y-58291760D02*
X167024119Y-58244141D01*
X167024119Y-58244141D02*
X166976500Y-58196522D01*
X166976500Y-58196522D02*
X166928880Y-58101284D01*
X166928880Y-58101284D02*
X166928880Y-57863189D01*
X166928880Y-57863189D02*
X166976500Y-57767951D01*
X166976500Y-57767951D02*
X167024119Y-57720332D01*
D11*
X155211450Y-94580130D02*
X155806688Y-94580130D01*
X155092402Y-94937273D02*
X155509069Y-93687273D01*
X155509069Y-93687273D02*
X155925735Y-94937273D01*
X156342403Y-94103940D02*
X156342403Y-94937273D01*
X156342403Y-94222988D02*
X156401926Y-94163464D01*
X156401926Y-94163464D02*
X156520974Y-94103940D01*
X156520974Y-94103940D02*
X156699545Y-94103940D01*
X156699545Y-94103940D02*
X156818593Y-94163464D01*
X156818593Y-94163464D02*
X156878117Y-94282511D01*
X156878117Y-94282511D02*
X156878117Y-94937273D01*
X158009069Y-94937273D02*
X158009069Y-94282511D01*
X158009069Y-94282511D02*
X157949545Y-94163464D01*
X157949545Y-94163464D02*
X157830497Y-94103940D01*
X157830497Y-94103940D02*
X157592402Y-94103940D01*
X157592402Y-94103940D02*
X157473355Y-94163464D01*
X158009069Y-94877750D02*
X157890021Y-94937273D01*
X157890021Y-94937273D02*
X157592402Y-94937273D01*
X157592402Y-94937273D02*
X157473355Y-94877750D01*
X157473355Y-94877750D02*
X157413831Y-94758702D01*
X157413831Y-94758702D02*
X157413831Y-94639654D01*
X157413831Y-94639654D02*
X157473355Y-94520607D01*
X157473355Y-94520607D02*
X157592402Y-94461083D01*
X157592402Y-94461083D02*
X157890021Y-94461083D01*
X157890021Y-94461083D02*
X158009069Y-94401559D01*
X158782878Y-94937273D02*
X158663830Y-94877750D01*
X158663830Y-94877750D02*
X158604307Y-94758702D01*
X158604307Y-94758702D02*
X158604307Y-93687273D01*
X159437640Y-94937273D02*
X159318592Y-94877750D01*
X159318592Y-94877750D02*
X159259069Y-94818226D01*
X159259069Y-94818226D02*
X159199545Y-94699178D01*
X159199545Y-94699178D02*
X159199545Y-94342035D01*
X159199545Y-94342035D02*
X159259069Y-94222988D01*
X159259069Y-94222988D02*
X159318592Y-94163464D01*
X159318592Y-94163464D02*
X159437640Y-94103940D01*
X159437640Y-94103940D02*
X159616211Y-94103940D01*
X159616211Y-94103940D02*
X159735259Y-94163464D01*
X159735259Y-94163464D02*
X159794783Y-94222988D01*
X159794783Y-94222988D02*
X159854307Y-94342035D01*
X159854307Y-94342035D02*
X159854307Y-94699178D01*
X159854307Y-94699178D02*
X159794783Y-94818226D01*
X159794783Y-94818226D02*
X159735259Y-94877750D01*
X159735259Y-94877750D02*
X159616211Y-94937273D01*
X159616211Y-94937273D02*
X159437640Y-94937273D01*
X160925735Y-94103940D02*
X160925735Y-95115845D01*
X160925735Y-95115845D02*
X160866211Y-95234892D01*
X160866211Y-95234892D02*
X160806687Y-95294416D01*
X160806687Y-95294416D02*
X160687640Y-95353940D01*
X160687640Y-95353940D02*
X160509068Y-95353940D01*
X160509068Y-95353940D02*
X160390021Y-95294416D01*
X160925735Y-94877750D02*
X160806687Y-94937273D01*
X160806687Y-94937273D02*
X160568592Y-94937273D01*
X160568592Y-94937273D02*
X160449544Y-94877750D01*
X160449544Y-94877750D02*
X160390021Y-94818226D01*
X160390021Y-94818226D02*
X160330497Y-94699178D01*
X160330497Y-94699178D02*
X160330497Y-94342035D01*
X160330497Y-94342035D02*
X160390021Y-94222988D01*
X160390021Y-94222988D02*
X160449544Y-94163464D01*
X160449544Y-94163464D02*
X160568592Y-94103940D01*
X160568592Y-94103940D02*
X160806687Y-94103940D01*
X160806687Y-94103940D02*
X160925735Y-94163464D01*
X140770974Y-95187273D02*
X140770974Y-93937273D01*
X140770974Y-93937273D02*
X141247164Y-93937273D01*
X141247164Y-93937273D02*
X141366212Y-93996797D01*
X141366212Y-93996797D02*
X141425735Y-94056321D01*
X141425735Y-94056321D02*
X141485259Y-94175369D01*
X141485259Y-94175369D02*
X141485259Y-94353940D01*
X141485259Y-94353940D02*
X141425735Y-94472988D01*
X141425735Y-94472988D02*
X141366212Y-94532511D01*
X141366212Y-94532511D02*
X141247164Y-94592035D01*
X141247164Y-94592035D02*
X140770974Y-94592035D01*
X142199545Y-95187273D02*
X142080497Y-95127750D01*
X142080497Y-95127750D02*
X142020974Y-95068226D01*
X142020974Y-95068226D02*
X141961450Y-94949178D01*
X141961450Y-94949178D02*
X141961450Y-94592035D01*
X141961450Y-94592035D02*
X142020974Y-94472988D01*
X142020974Y-94472988D02*
X142080497Y-94413464D01*
X142080497Y-94413464D02*
X142199545Y-94353940D01*
X142199545Y-94353940D02*
X142378116Y-94353940D01*
X142378116Y-94353940D02*
X142497164Y-94413464D01*
X142497164Y-94413464D02*
X142556688Y-94472988D01*
X142556688Y-94472988D02*
X142616212Y-94592035D01*
X142616212Y-94592035D02*
X142616212Y-94949178D01*
X142616212Y-94949178D02*
X142556688Y-95068226D01*
X142556688Y-95068226D02*
X142497164Y-95127750D01*
X142497164Y-95127750D02*
X142378116Y-95187273D01*
X142378116Y-95187273D02*
X142199545Y-95187273D01*
X143032878Y-94353940D02*
X143270973Y-95187273D01*
X143270973Y-95187273D02*
X143509068Y-94592035D01*
X143509068Y-94592035D02*
X143747164Y-95187273D01*
X143747164Y-95187273D02*
X143985259Y-94353940D01*
X144937640Y-95127750D02*
X144818592Y-95187273D01*
X144818592Y-95187273D02*
X144580497Y-95187273D01*
X144580497Y-95187273D02*
X144461450Y-95127750D01*
X144461450Y-95127750D02*
X144401926Y-95008702D01*
X144401926Y-95008702D02*
X144401926Y-94532511D01*
X144401926Y-94532511D02*
X144461450Y-94413464D01*
X144461450Y-94413464D02*
X144580497Y-94353940D01*
X144580497Y-94353940D02*
X144818592Y-94353940D01*
X144818592Y-94353940D02*
X144937640Y-94413464D01*
X144937640Y-94413464D02*
X144997164Y-94532511D01*
X144997164Y-94532511D02*
X144997164Y-94651559D01*
X144997164Y-94651559D02*
X144401926Y-94770607D01*
X145532879Y-95187273D02*
X145532879Y-94353940D01*
X145532879Y-94592035D02*
X145592402Y-94472988D01*
X145592402Y-94472988D02*
X145651926Y-94413464D01*
X145651926Y-94413464D02*
X145770974Y-94353940D01*
X145770974Y-94353940D02*
X145890021Y-94353940D01*
X145311450Y-52767869D02*
X145311450Y-51767869D01*
X145311450Y-51767869D02*
X145549545Y-51767869D01*
X145549545Y-51767869D02*
X145692402Y-51815488D01*
X145692402Y-51815488D02*
X145787640Y-51910726D01*
X145787640Y-51910726D02*
X145835259Y-52005964D01*
X145835259Y-52005964D02*
X145882878Y-52196440D01*
X145882878Y-52196440D02*
X145882878Y-52339297D01*
X145882878Y-52339297D02*
X145835259Y-52529773D01*
X145835259Y-52529773D02*
X145787640Y-52625011D01*
X145787640Y-52625011D02*
X145692402Y-52720250D01*
X145692402Y-52720250D02*
X145549545Y-52767869D01*
X145549545Y-52767869D02*
X145311450Y-52767869D01*
X146311450Y-52767869D02*
X146311450Y-52101202D01*
X146311450Y-51767869D02*
X146263831Y-51815488D01*
X146263831Y-51815488D02*
X146311450Y-51863107D01*
X146311450Y-51863107D02*
X146359069Y-51815488D01*
X146359069Y-51815488D02*
X146311450Y-51767869D01*
X146311450Y-51767869D02*
X146311450Y-51863107D01*
X147216211Y-52101202D02*
X147216211Y-52910726D01*
X147216211Y-52910726D02*
X147168592Y-53005964D01*
X147168592Y-53005964D02*
X147120973Y-53053583D01*
X147120973Y-53053583D02*
X147025735Y-53101202D01*
X147025735Y-53101202D02*
X146882878Y-53101202D01*
X146882878Y-53101202D02*
X146787640Y-53053583D01*
X147216211Y-52720250D02*
X147120973Y-52767869D01*
X147120973Y-52767869D02*
X146930497Y-52767869D01*
X146930497Y-52767869D02*
X146835259Y-52720250D01*
X146835259Y-52720250D02*
X146787640Y-52672630D01*
X146787640Y-52672630D02*
X146740021Y-52577392D01*
X146740021Y-52577392D02*
X146740021Y-52291678D01*
X146740021Y-52291678D02*
X146787640Y-52196440D01*
X146787640Y-52196440D02*
X146835259Y-52148821D01*
X146835259Y-52148821D02*
X146930497Y-52101202D01*
X146930497Y-52101202D02*
X147120973Y-52101202D01*
X147120973Y-52101202D02*
X147216211Y-52148821D01*
X147692402Y-52767869D02*
X147692402Y-52101202D01*
X147692402Y-51767869D02*
X147644783Y-51815488D01*
X147644783Y-51815488D02*
X147692402Y-51863107D01*
X147692402Y-51863107D02*
X147740021Y-51815488D01*
X147740021Y-51815488D02*
X147692402Y-51767869D01*
X147692402Y-51767869D02*
X147692402Y-51863107D01*
X148025735Y-52101202D02*
X148406687Y-52101202D01*
X148168592Y-51767869D02*
X148168592Y-52625011D01*
X148168592Y-52625011D02*
X148216211Y-52720250D01*
X148216211Y-52720250D02*
X148311449Y-52767869D01*
X148311449Y-52767869D02*
X148406687Y-52767869D01*
X149168592Y-52767869D02*
X149168592Y-52244059D01*
X149168592Y-52244059D02*
X149120973Y-52148821D01*
X149120973Y-52148821D02*
X149025735Y-52101202D01*
X149025735Y-52101202D02*
X148835259Y-52101202D01*
X148835259Y-52101202D02*
X148740021Y-52148821D01*
X149168592Y-52720250D02*
X149073354Y-52767869D01*
X149073354Y-52767869D02*
X148835259Y-52767869D01*
X148835259Y-52767869D02*
X148740021Y-52720250D01*
X148740021Y-52720250D02*
X148692402Y-52625011D01*
X148692402Y-52625011D02*
X148692402Y-52529773D01*
X148692402Y-52529773D02*
X148740021Y-52434535D01*
X148740021Y-52434535D02*
X148835259Y-52386916D01*
X148835259Y-52386916D02*
X149073354Y-52386916D01*
X149073354Y-52386916D02*
X149168592Y-52339297D01*
X149787640Y-52767869D02*
X149692402Y-52720250D01*
X149692402Y-52720250D02*
X149644783Y-52625011D01*
X149644783Y-52625011D02*
X149644783Y-51767869D01*
X151120974Y-51767869D02*
X151216212Y-51767869D01*
X151216212Y-51767869D02*
X151311450Y-51815488D01*
X151311450Y-51815488D02*
X151359069Y-51863107D01*
X151359069Y-51863107D02*
X151406688Y-51958345D01*
X151406688Y-51958345D02*
X151454307Y-52148821D01*
X151454307Y-52148821D02*
X151454307Y-52386916D01*
X151454307Y-52386916D02*
X151406688Y-52577392D01*
X151406688Y-52577392D02*
X151359069Y-52672630D01*
X151359069Y-52672630D02*
X151311450Y-52720250D01*
X151311450Y-52720250D02*
X151216212Y-52767869D01*
X151216212Y-52767869D02*
X151120974Y-52767869D01*
X151120974Y-52767869D02*
X151025736Y-52720250D01*
X151025736Y-52720250D02*
X150978117Y-52672630D01*
X150978117Y-52672630D02*
X150930498Y-52577392D01*
X150930498Y-52577392D02*
X150882879Y-52386916D01*
X150882879Y-52386916D02*
X150882879Y-52148821D01*
X150882879Y-52148821D02*
X150930498Y-51958345D01*
X150930498Y-51958345D02*
X150978117Y-51863107D01*
X150978117Y-51863107D02*
X151025736Y-51815488D01*
X151025736Y-51815488D02*
X151120974Y-51767869D01*
X151882879Y-52386916D02*
X152644784Y-52386916D01*
X153025736Y-51767869D02*
X153692402Y-51767869D01*
X153692402Y-51767869D02*
X153263831Y-52767869D01*
D14*
X130869673Y-52917219D02*
X130869673Y-51917219D01*
X130869673Y-51917219D02*
X131107768Y-51917219D01*
X131107768Y-51917219D02*
X131250625Y-51964838D01*
X131250625Y-51964838D02*
X131345863Y-52060076D01*
X131345863Y-52060076D02*
X131393482Y-52155314D01*
X131393482Y-52155314D02*
X131441101Y-52345790D01*
X131441101Y-52345790D02*
X131441101Y-52488647D01*
X131441101Y-52488647D02*
X131393482Y-52679123D01*
X131393482Y-52679123D02*
X131345863Y-52774361D01*
X131345863Y-52774361D02*
X131250625Y-52869600D01*
X131250625Y-52869600D02*
X131107768Y-52917219D01*
X131107768Y-52917219D02*
X130869673Y-52917219D01*
X131869673Y-52917219D02*
X131869673Y-52250552D01*
X131869673Y-51917219D02*
X131822054Y-51964838D01*
X131822054Y-51964838D02*
X131869673Y-52012457D01*
X131869673Y-52012457D02*
X131917292Y-51964838D01*
X131917292Y-51964838D02*
X131869673Y-51917219D01*
X131869673Y-51917219D02*
X131869673Y-52012457D01*
X132774434Y-52250552D02*
X132774434Y-53060076D01*
X132774434Y-53060076D02*
X132726815Y-53155314D01*
X132726815Y-53155314D02*
X132679196Y-53202933D01*
X132679196Y-53202933D02*
X132583958Y-53250552D01*
X132583958Y-53250552D02*
X132441101Y-53250552D01*
X132441101Y-53250552D02*
X132345863Y-53202933D01*
X132774434Y-52869600D02*
X132679196Y-52917219D01*
X132679196Y-52917219D02*
X132488720Y-52917219D01*
X132488720Y-52917219D02*
X132393482Y-52869600D01*
X132393482Y-52869600D02*
X132345863Y-52821980D01*
X132345863Y-52821980D02*
X132298244Y-52726742D01*
X132298244Y-52726742D02*
X132298244Y-52441028D01*
X132298244Y-52441028D02*
X132345863Y-52345790D01*
X132345863Y-52345790D02*
X132393482Y-52298171D01*
X132393482Y-52298171D02*
X132488720Y-52250552D01*
X132488720Y-52250552D02*
X132679196Y-52250552D01*
X132679196Y-52250552D02*
X132774434Y-52298171D01*
X133250625Y-52917219D02*
X133250625Y-52250552D01*
X133250625Y-51917219D02*
X133203006Y-51964838D01*
X133203006Y-51964838D02*
X133250625Y-52012457D01*
X133250625Y-52012457D02*
X133298244Y-51964838D01*
X133298244Y-51964838D02*
X133250625Y-51917219D01*
X133250625Y-51917219D02*
X133250625Y-52012457D01*
X133583958Y-52250552D02*
X133964910Y-52250552D01*
X133726815Y-51917219D02*
X133726815Y-52774361D01*
X133726815Y-52774361D02*
X133774434Y-52869600D01*
X133774434Y-52869600D02*
X133869672Y-52917219D01*
X133869672Y-52917219D02*
X133964910Y-52917219D01*
X134726815Y-52917219D02*
X134726815Y-52393409D01*
X134726815Y-52393409D02*
X134679196Y-52298171D01*
X134679196Y-52298171D02*
X134583958Y-52250552D01*
X134583958Y-52250552D02*
X134393482Y-52250552D01*
X134393482Y-52250552D02*
X134298244Y-52298171D01*
X134726815Y-52869600D02*
X134631577Y-52917219D01*
X134631577Y-52917219D02*
X134393482Y-52917219D01*
X134393482Y-52917219D02*
X134298244Y-52869600D01*
X134298244Y-52869600D02*
X134250625Y-52774361D01*
X134250625Y-52774361D02*
X134250625Y-52679123D01*
X134250625Y-52679123D02*
X134298244Y-52583885D01*
X134298244Y-52583885D02*
X134393482Y-52536266D01*
X134393482Y-52536266D02*
X134631577Y-52536266D01*
X134631577Y-52536266D02*
X134726815Y-52488647D01*
X135345863Y-52917219D02*
X135250625Y-52869600D01*
X135250625Y-52869600D02*
X135203006Y-52774361D01*
X135203006Y-52774361D02*
X135203006Y-51917219D01*
X136631578Y-52345790D02*
X136536340Y-52298171D01*
X136536340Y-52298171D02*
X136488721Y-52250552D01*
X136488721Y-52250552D02*
X136441102Y-52155314D01*
X136441102Y-52155314D02*
X136441102Y-52107695D01*
X136441102Y-52107695D02*
X136488721Y-52012457D01*
X136488721Y-52012457D02*
X136536340Y-51964838D01*
X136536340Y-51964838D02*
X136631578Y-51917219D01*
X136631578Y-51917219D02*
X136822054Y-51917219D01*
X136822054Y-51917219D02*
X136917292Y-51964838D01*
X136917292Y-51964838D02*
X136964911Y-52012457D01*
X136964911Y-52012457D02*
X137012530Y-52107695D01*
X137012530Y-52107695D02*
X137012530Y-52155314D01*
X137012530Y-52155314D02*
X136964911Y-52250552D01*
X136964911Y-52250552D02*
X136917292Y-52298171D01*
X136917292Y-52298171D02*
X136822054Y-52345790D01*
X136822054Y-52345790D02*
X136631578Y-52345790D01*
X136631578Y-52345790D02*
X136536340Y-52393409D01*
X136536340Y-52393409D02*
X136488721Y-52441028D01*
X136488721Y-52441028D02*
X136441102Y-52536266D01*
X136441102Y-52536266D02*
X136441102Y-52726742D01*
X136441102Y-52726742D02*
X136488721Y-52821980D01*
X136488721Y-52821980D02*
X136536340Y-52869600D01*
X136536340Y-52869600D02*
X136631578Y-52917219D01*
X136631578Y-52917219D02*
X136822054Y-52917219D01*
X136822054Y-52917219D02*
X136917292Y-52869600D01*
X136917292Y-52869600D02*
X136964911Y-52821980D01*
X136964911Y-52821980D02*
X137012530Y-52726742D01*
X137012530Y-52726742D02*
X137012530Y-52536266D01*
X137012530Y-52536266D02*
X136964911Y-52441028D01*
X136964911Y-52441028D02*
X136917292Y-52393409D01*
X136917292Y-52393409D02*
X136822054Y-52345790D01*
X137441102Y-52536266D02*
X138203007Y-52536266D01*
X139203006Y-52917219D02*
X138631578Y-52917219D01*
X138917292Y-52917219D02*
X138917292Y-51917219D01*
X138917292Y-51917219D02*
X138822054Y-52060076D01*
X138822054Y-52060076D02*
X138726816Y-52155314D01*
X138726816Y-52155314D02*
X138631578Y-52202933D01*
X139679197Y-52917219D02*
X139869673Y-52917219D01*
X139869673Y-52917219D02*
X139964911Y-52869600D01*
X139964911Y-52869600D02*
X140012530Y-52821980D01*
X140012530Y-52821980D02*
X140107768Y-52679123D01*
X140107768Y-52679123D02*
X140155387Y-52488647D01*
X140155387Y-52488647D02*
X140155387Y-52107695D01*
X140155387Y-52107695D02*
X140107768Y-52012457D01*
X140107768Y-52012457D02*
X140060149Y-51964838D01*
X140060149Y-51964838D02*
X139964911Y-51917219D01*
X139964911Y-51917219D02*
X139774435Y-51917219D01*
X139774435Y-51917219D02*
X139679197Y-51964838D01*
X139679197Y-51964838D02*
X139631578Y-52012457D01*
X139631578Y-52012457D02*
X139583959Y-52107695D01*
X139583959Y-52107695D02*
X139583959Y-52345790D01*
X139583959Y-52345790D02*
X139631578Y-52441028D01*
X139631578Y-52441028D02*
X139679197Y-52488647D01*
X139679197Y-52488647D02*
X139774435Y-52536266D01*
X139774435Y-52536266D02*
X139964911Y-52536266D01*
X139964911Y-52536266D02*
X140060149Y-52488647D01*
X140060149Y-52488647D02*
X140107768Y-52441028D01*
X140107768Y-52441028D02*
X140155387Y-52345790D01*
D15*
G36*
X123226050Y-54089497D02*
G01*
X123226050Y-54368239D01*
X122210000Y-54711828D01*
X122210000Y-54448839D01*
X122413210Y-54385275D01*
X122413210Y-54329282D01*
X122600788Y-54329282D01*
X122936744Y-54225479D01*
X122600788Y-54121615D01*
X122600788Y-54329282D01*
X122413210Y-54329282D01*
X122413210Y-54065622D01*
X122210000Y-54002058D01*
X122210000Y-53745908D01*
X123226050Y-54089497D01*
G37*
G36*
X122749288Y-55315047D02*
G01*
X122749288Y-55295263D01*
X122755150Y-55255573D01*
X122757103Y-55198237D01*
X122754472Y-55160322D01*
X122746235Y-55119286D01*
X122720467Y-55039052D01*
X122210000Y-55039052D01*
X122210000Y-54799938D01*
X122975945Y-54799938D01*
X122975945Y-55039052D01*
X122863777Y-55039052D01*
X122901512Y-55084481D01*
X122937904Y-55137421D01*
X122952110Y-55164809D01*
X122964710Y-55197871D01*
X122973251Y-55232114D01*
X122975945Y-55263145D01*
X122975273Y-55289096D01*
X122973258Y-55315047D01*
X122749288Y-55315047D01*
G37*
G36*
X122654111Y-55355132D02*
G01*
X122712014Y-55364011D01*
X122762049Y-55377939D01*
X122832058Y-55409261D01*
X122891010Y-55449685D01*
X122935767Y-55495673D01*
X122970205Y-55550741D01*
X122992096Y-55611908D01*
X122999392Y-55676465D01*
X122995895Y-55733777D01*
X122986753Y-55775200D01*
X122971511Y-55814897D01*
X122947491Y-55865020D01*
X123272944Y-55865020D01*
X123272944Y-56104134D01*
X122210000Y-56104134D01*
X122210000Y-55865020D01*
X122289928Y-55865020D01*
X122248956Y-55812081D01*
X122216167Y-55759813D01*
X122209523Y-55742716D01*
X122374131Y-55742716D01*
X122377147Y-55773981D01*
X122386465Y-55806280D01*
X122401108Y-55837058D01*
X122420170Y-55865020D01*
X122798991Y-55865020D01*
X122813768Y-55818553D01*
X122819630Y-55769399D01*
X122815512Y-55727384D01*
X122803906Y-55692716D01*
X122785265Y-55663876D01*
X122759118Y-55639890D01*
X122716580Y-55617020D01*
X122661329Y-55602049D01*
X122589980Y-55596536D01*
X122513960Y-55601292D01*
X122460893Y-55613549D01*
X122424994Y-55631036D01*
X122397462Y-55657748D01*
X122380365Y-55693906D01*
X122374131Y-55742716D01*
X122209523Y-55742716D01*
X122194124Y-55703087D01*
X122188596Y-55673677D01*
X122186552Y-55636165D01*
X122193529Y-55573313D01*
X122213702Y-55518886D01*
X122247164Y-55470977D01*
X122295607Y-55428497D01*
X122351246Y-55396612D01*
X122417104Y-55372709D01*
X122495021Y-55357433D01*
X122587172Y-55351988D01*
X122654111Y-55355132D01*
G37*
G36*
X122210000Y-56999406D02*
G01*
X122210000Y-56760293D01*
X122292554Y-56760293D01*
X122245135Y-56698237D01*
X122213541Y-56646170D01*
X122198934Y-56610615D01*
X122189773Y-56569749D01*
X122186552Y-56522583D01*
X122191474Y-56466408D01*
X122205407Y-56419051D01*
X122227737Y-56378842D01*
X122258726Y-56344591D01*
X122296136Y-56318393D01*
X122343285Y-56298465D01*
X122402331Y-56285459D01*
X122475919Y-56280722D01*
X122975945Y-56280722D01*
X122975945Y-56521179D01*
X122595109Y-56521179D01*
X122497962Y-56524232D01*
X122462141Y-56529739D01*
X122434398Y-56538948D01*
X122413336Y-56552894D01*
X122398128Y-56572775D01*
X122389304Y-56598282D01*
X122385854Y-56636645D01*
X122388630Y-56662771D01*
X122398128Y-56696423D01*
X122412699Y-56729685D01*
X122431650Y-56760293D01*
X122975945Y-56760293D01*
X122975945Y-56999406D01*
X122210000Y-56999406D01*
G37*
G36*
X122210000Y-57421885D02*
G01*
X122210000Y-57182772D01*
X122975945Y-57182772D01*
X122975945Y-57421885D01*
X122210000Y-57421885D01*
G37*
G36*
X123085366Y-57428724D02*
G01*
X123085366Y-57175933D01*
X123272944Y-57175933D01*
X123272944Y-57428724D01*
X123085366Y-57428724D01*
G37*
G36*
X122210000Y-58323447D02*
G01*
X122210000Y-58082990D01*
X122590835Y-58082990D01*
X122683525Y-58079204D01*
X122726477Y-58073236D01*
X122751547Y-58065221D01*
X122774080Y-58049965D01*
X122788794Y-58029684D01*
X122796952Y-58004226D01*
X122800090Y-57967585D01*
X122797415Y-57938346D01*
X122789160Y-57908112D01*
X122775583Y-57878165D01*
X122754295Y-57843937D01*
X122210000Y-57843937D01*
X122210000Y-57604823D01*
X122975945Y-57604823D01*
X122975945Y-57843937D01*
X122893391Y-57843937D01*
X122938938Y-57903487D01*
X122971366Y-57958304D01*
X122992244Y-58016363D01*
X122999392Y-58081646D01*
X122994273Y-58139531D01*
X122979867Y-58187589D01*
X122956905Y-58227728D01*
X122925143Y-58261287D01*
X122886845Y-58286933D01*
X122839548Y-58306332D01*
X122781371Y-58318900D01*
X122710026Y-58323447D01*
X122210000Y-58323447D01*
G37*
G36*
X122669914Y-58449411D02*
G01*
X122737107Y-58462763D01*
X122795643Y-58483964D01*
X122846750Y-58512643D01*
X122891376Y-58548883D01*
X122929102Y-58592287D01*
X122958830Y-58642104D01*
X122980748Y-58699271D01*
X122994539Y-58765045D01*
X122999392Y-58840936D01*
X122994503Y-58917082D01*
X122980620Y-58982983D01*
X122958564Y-59040179D01*
X122928657Y-59089946D01*
X122890704Y-59133234D01*
X122845783Y-59169431D01*
X122794556Y-59198039D01*
X122736109Y-59219156D01*
X122669261Y-59232434D01*
X122592606Y-59237098D01*
X122498755Y-59229917D01*
X122419514Y-59209659D01*
X122352330Y-59177509D01*
X122295240Y-59133600D01*
X122257322Y-59090442D01*
X122227423Y-59040722D01*
X122205354Y-58983473D01*
X122191451Y-58917400D01*
X122186681Y-58842951D01*
X122358499Y-58842951D01*
X122361469Y-58871493D01*
X122370711Y-58901325D01*
X122386118Y-58928253D01*
X122407348Y-58948831D01*
X122438781Y-58967125D01*
X122477568Y-58980949D01*
X122522607Y-58988751D01*
X122591263Y-58991878D01*
X122656283Y-58988765D01*
X122704286Y-58980582D01*
X122746432Y-58966531D01*
X122776521Y-58949502D01*
X122801211Y-58926367D01*
X122816210Y-58901692D01*
X122824518Y-58873823D01*
X122827445Y-58840936D01*
X122824899Y-58809825D01*
X122817615Y-58782807D01*
X122803861Y-58758622D01*
X122779940Y-58734996D01*
X122750262Y-58717344D01*
X122707339Y-58702206D01*
X122658153Y-58693319D01*
X122591263Y-58689933D01*
X122524728Y-58693187D01*
X122478239Y-58701535D01*
X122437976Y-58715524D01*
X122409424Y-58731577D01*
X122386377Y-58753262D01*
X122370711Y-58779387D01*
X122361637Y-58809192D01*
X122358499Y-58842951D01*
X122186681Y-58842951D01*
X122186552Y-58840936D01*
X122191431Y-58765083D01*
X122205295Y-58699329D01*
X122227339Y-58642161D01*
X122257253Y-58592324D01*
X122295240Y-58548883D01*
X122340191Y-58512542D01*
X122391374Y-58483844D01*
X122449688Y-58462680D01*
X122516303Y-58449382D01*
X122592606Y-58444713D01*
X122669914Y-58449411D01*
G37*
G36*
X120586114Y-54704989D02*
G01*
X120560469Y-54632701D01*
X120532625Y-54531149D01*
X120512979Y-54424265D01*
X120506552Y-54320429D01*
X120512666Y-54223938D01*
X120530156Y-54138992D01*
X120558146Y-54063923D01*
X120596329Y-53997340D01*
X120644977Y-53938189D01*
X120702540Y-53888677D01*
X120769060Y-53849518D01*
X120845873Y-53820541D01*
X120934742Y-53802249D01*
X121037780Y-53795795D01*
X121133782Y-53802032D01*
X121218652Y-53819915D01*
X121294020Y-53848624D01*
X121361235Y-53887925D01*
X121421303Y-53938189D01*
X121471937Y-53997521D01*
X121511700Y-54064833D01*
X121540894Y-54141268D01*
X121559180Y-54228355D01*
X121565589Y-54327939D01*
X121562471Y-54413414D01*
X121554002Y-54481719D01*
X121541348Y-54535607D01*
X121513314Y-54615529D01*
X121475525Y-54700898D01*
X121237327Y-54700898D01*
X121237327Y-54677695D01*
X121277383Y-54624755D01*
X121321530Y-54557466D01*
X121341143Y-54517227D01*
X121358593Y-54468989D01*
X121370164Y-54417750D01*
X121374103Y-54362744D01*
X121368826Y-54299123D01*
X121353647Y-54243187D01*
X121327871Y-54192377D01*
X121290877Y-54146894D01*
X121245500Y-54111394D01*
X121187196Y-54083025D01*
X121121370Y-54065678D01*
X121041261Y-54059455D01*
X120951650Y-54066025D01*
X120880229Y-54084071D01*
X120823486Y-54111884D01*
X120778700Y-54148909D01*
X120742833Y-54195888D01*
X120716559Y-54251154D01*
X120700001Y-54316316D01*
X120694131Y-54393457D01*
X120694802Y-54425575D01*
X120696878Y-54457693D01*
X120897341Y-54457693D01*
X120897341Y-54260284D01*
X121088827Y-54260284D01*
X121088827Y-54704989D01*
X120586114Y-54704989D01*
G37*
G36*
X120530000Y-55596475D02*
G01*
X120530000Y-55357362D01*
X120612554Y-55357362D01*
X120565135Y-55295306D01*
X120533541Y-55243239D01*
X120518934Y-55207684D01*
X120509773Y-55166818D01*
X120506552Y-55119652D01*
X120511474Y-55063477D01*
X120525407Y-55016121D01*
X120547737Y-54975911D01*
X120578726Y-54941660D01*
X120616136Y-54915463D01*
X120663285Y-54895534D01*
X120722331Y-54882528D01*
X120795919Y-54877791D01*
X121295945Y-54877791D01*
X121295945Y-55118248D01*
X120915109Y-55118248D01*
X120817962Y-55121301D01*
X120782141Y-55126808D01*
X120754398Y-55136017D01*
X120733336Y-55149963D01*
X120718128Y-55169844D01*
X120709304Y-55195351D01*
X120705854Y-55233714D01*
X120708630Y-55259840D01*
X120718128Y-55293492D01*
X120732699Y-55326754D01*
X120751650Y-55357362D01*
X121295945Y-55357362D01*
X121295945Y-55596475D01*
X120530000Y-55596475D01*
G37*
G36*
X120530000Y-56018954D02*
G01*
X120530000Y-55779841D01*
X121295945Y-55779841D01*
X121295945Y-56018954D01*
X120530000Y-56018954D01*
G37*
G36*
X121405366Y-56025793D02*
G01*
X121405366Y-55773002D01*
X121592944Y-55773002D01*
X121592944Y-56025793D01*
X121405366Y-56025793D01*
G37*
G36*
X120514368Y-56495655D02*
G01*
X120518952Y-56420867D01*
X120531369Y-56362484D01*
X120550082Y-56317347D01*
X120574269Y-56282859D01*
X120606192Y-56255534D01*
X120647829Y-56234821D01*
X120701544Y-56221236D01*
X120770396Y-56216242D01*
X121127906Y-56216242D01*
X121127906Y-56124712D01*
X121295945Y-56124712D01*
X121295945Y-56216242D01*
X121514787Y-56216242D01*
X121514787Y-56455355D01*
X121295945Y-56455355D01*
X121295945Y-56685554D01*
X121127906Y-56685554D01*
X121127906Y-56455355D01*
X120857590Y-56455355D01*
X120787676Y-56456027D01*
X120758858Y-56459192D01*
X120734003Y-56466957D01*
X120712917Y-56480021D01*
X120696329Y-56500785D01*
X120686374Y-56528219D01*
X120682407Y-56571493D01*
X120690650Y-56621685D01*
X120705854Y-56665038D01*
X120705854Y-56685554D01*
X120536350Y-56685554D01*
X120520230Y-56602878D01*
X120514368Y-56495655D01*
G37*
G36*
X120804739Y-56730028D02*
G01*
X120850297Y-56741735D01*
X120887083Y-56759926D01*
X120919388Y-56785540D01*
X120947278Y-56818032D01*
X120970919Y-56858356D01*
X120997067Y-56927268D01*
X121014883Y-57013389D01*
X121034117Y-57207440D01*
X121038269Y-57207440D01*
X121078209Y-57201731D01*
X121106743Y-57186122D01*
X121126868Y-57160607D01*
X121139364Y-57128298D01*
X121148038Y-57082777D01*
X121151353Y-57020228D01*
X121147834Y-56976457D01*
X121135966Y-56921188D01*
X121118455Y-56865232D01*
X121096643Y-56810546D01*
X121096643Y-56790029D01*
X121281229Y-56790029D01*
X121305409Y-56904762D01*
X121315895Y-56984341D01*
X121319392Y-57064619D01*
X121314217Y-57167161D01*
X121300293Y-57246660D01*
X121279600Y-57307436D01*
X121253447Y-57353192D01*
X121217109Y-57392013D01*
X121172705Y-57419942D01*
X121118571Y-57437481D01*
X121052191Y-57443745D01*
X120530000Y-57443745D01*
X120530000Y-57206036D01*
X120611271Y-57206036D01*
X120574391Y-57161950D01*
X120558808Y-57140451D01*
X120541601Y-57109743D01*
X120530381Y-57082388D01*
X120674591Y-57082388D01*
X120678065Y-57113656D01*
X120688941Y-57146624D01*
X120706157Y-57177733D01*
X120729363Y-57206036D01*
X120889525Y-57206036D01*
X120878900Y-57107667D01*
X120872324Y-57070527D01*
X120861437Y-57033906D01*
X120847325Y-57005470D01*
X120828220Y-56985057D01*
X120803339Y-56972313D01*
X120769052Y-56967655D01*
X120734308Y-56971460D01*
X120710562Y-56981442D01*
X120694741Y-56996659D01*
X120680278Y-57029971D01*
X120674591Y-57082388D01*
X120530381Y-57082388D01*
X120515956Y-57047217D01*
X120509249Y-57013742D01*
X120506552Y-56962159D01*
X120511027Y-56912448D01*
X120523979Y-56868374D01*
X120545218Y-56828845D01*
X120575245Y-56793082D01*
X120611577Y-56763805D01*
X120651951Y-56742975D01*
X120697174Y-56730214D01*
X120748353Y-56725793D01*
X120804739Y-56730028D01*
G37*
G36*
X121069288Y-58135563D02*
G01*
X121069288Y-58115779D01*
X121075150Y-58076090D01*
X121077103Y-58018754D01*
X121074472Y-57980839D01*
X121066235Y-57939802D01*
X121040467Y-57859569D01*
X120530000Y-57859569D01*
X120530000Y-57620455D01*
X121295945Y-57620455D01*
X121295945Y-57859569D01*
X121183777Y-57859569D01*
X121221512Y-57904998D01*
X121257904Y-57957937D01*
X121272110Y-57985326D01*
X121284710Y-58018387D01*
X121293251Y-58052631D01*
X121295945Y-58083661D01*
X121295273Y-58109612D01*
X121293258Y-58135563D01*
X121069288Y-58135563D01*
G37*
G36*
X118830460Y-54169426D02*
G01*
X118836463Y-54056392D01*
X118852991Y-53964139D01*
X118878640Y-53877877D01*
X118909045Y-53799886D01*
X119150907Y-53799886D01*
X119150907Y-53823089D01*
X119111379Y-53876015D01*
X119078630Y-53932144D01*
X119052416Y-53991800D01*
X119032983Y-54054023D01*
X119021710Y-54113533D01*
X119018039Y-54170830D01*
X119022740Y-54228532D01*
X119029205Y-54262475D01*
X119037578Y-54286296D01*
X119051366Y-54311007D01*
X119069513Y-54331359D01*
X119092678Y-54344949D01*
X119123796Y-54349799D01*
X119147878Y-54346408D01*
X119168303Y-54336533D01*
X119186017Y-54319696D01*
X119206455Y-54287257D01*
X119220882Y-54248011D01*
X119246894Y-54137002D01*
X119260796Y-54079099D01*
X119276997Y-54026666D01*
X119310292Y-53951052D01*
X119347795Y-53895912D01*
X119389105Y-53857222D01*
X119438413Y-53829438D01*
X119496537Y-53812113D01*
X119565570Y-53805992D01*
X119621000Y-53810907D01*
X119670928Y-53825220D01*
X119716446Y-53848816D01*
X119758343Y-53882288D01*
X119797051Y-53926892D01*
X119834799Y-53989093D01*
X119862377Y-54059206D01*
X119879578Y-54138575D01*
X119885589Y-54228838D01*
X119880974Y-54319336D01*
X119867088Y-54409516D01*
X119844864Y-54496359D01*
X119817201Y-54570411D01*
X119584682Y-54570411D01*
X119584682Y-54547880D01*
X119627739Y-54486426D01*
X119665160Y-54409516D01*
X119683479Y-54354367D01*
X119694376Y-54298619D01*
X119698011Y-54241844D01*
X119693309Y-54181699D01*
X119686689Y-54155024D01*
X119675296Y-54125706D01*
X119662055Y-54103546D01*
X119643483Y-54084368D01*
X119621026Y-54071265D01*
X119596345Y-54066966D01*
X119561060Y-54074028D01*
X119534429Y-54094626D01*
X119514881Y-54129586D01*
X119493091Y-54201543D01*
X119470498Y-54300218D01*
X119440457Y-54401700D01*
X119410201Y-54469518D01*
X119375779Y-54521040D01*
X119337508Y-54559115D01*
X119291835Y-54586893D01*
X119235848Y-54604427D01*
X119166905Y-54610711D01*
X119107536Y-54605767D01*
X119054434Y-54591436D01*
X119006455Y-54567985D01*
X118962741Y-54535021D01*
X118922784Y-54491521D01*
X118884153Y-54430214D01*
X118855354Y-54357576D01*
X118836999Y-54271498D01*
X118830460Y-54169426D01*
G37*
G36*
X118850000Y-55446266D02*
G01*
X118850000Y-55205809D01*
X119230835Y-55205809D01*
X119323525Y-55202023D01*
X119366477Y-55196055D01*
X119391547Y-55188040D01*
X119414080Y-55172784D01*
X119428794Y-55152503D01*
X119436952Y-55127045D01*
X119440090Y-55090404D01*
X119437415Y-55061165D01*
X119429160Y-55030931D01*
X119415583Y-55000984D01*
X119394295Y-54966756D01*
X118850000Y-54966756D01*
X118850000Y-54727643D01*
X119912944Y-54727643D01*
X119912944Y-54966756D01*
X119533391Y-54966756D01*
X119578938Y-55026306D01*
X119611366Y-55081123D01*
X119632244Y-55139183D01*
X119639392Y-55204466D01*
X119634273Y-55262350D01*
X119619867Y-55310408D01*
X119596905Y-55350547D01*
X119565143Y-55384106D01*
X119526845Y-55409752D01*
X119479548Y-55429151D01*
X119421371Y-55441720D01*
X119350026Y-55446266D01*
X118850000Y-55446266D01*
G37*
G36*
X118850000Y-55862639D02*
G01*
X118850000Y-55623525D01*
X119615945Y-55623525D01*
X119615945Y-55862639D01*
X118850000Y-55862639D01*
G37*
G36*
X119725366Y-55869478D02*
G01*
X119725366Y-55616687D01*
X119912944Y-55616687D01*
X119912944Y-55869478D01*
X119725366Y-55869478D01*
G37*
G36*
X119304149Y-55994346D02*
G01*
X119370524Y-56007973D01*
X119429235Y-56029788D01*
X119481359Y-56059553D01*
X119527712Y-56097479D01*
X119566736Y-56142458D01*
X119597476Y-56194024D01*
X119620132Y-56253139D01*
X119634380Y-56321089D01*
X119639392Y-56399424D01*
X119632579Y-56487505D01*
X119613674Y-56559080D01*
X119584156Y-56617266D01*
X119544321Y-56664427D01*
X119494627Y-56701578D01*
X119434268Y-56729225D01*
X119361060Y-56746919D01*
X119272234Y-56753271D01*
X119186078Y-56753271D01*
X119186078Y-56517637D01*
X119330669Y-56517637D01*
X119380649Y-56512184D01*
X119418560Y-56500078D01*
X119447051Y-56482405D01*
X119468494Y-56457659D01*
X119482034Y-56424733D01*
X119486985Y-56380983D01*
X119481940Y-56336339D01*
X119467807Y-56300692D01*
X119444975Y-56271990D01*
X119414814Y-56250370D01*
X119377325Y-56235745D01*
X119330669Y-56228637D01*
X119330669Y-56517637D01*
X119186078Y-56517637D01*
X119186078Y-56229370D01*
X119136160Y-56237108D01*
X119097906Y-56251901D01*
X119065890Y-56274293D01*
X119041547Y-56302459D01*
X119023823Y-56335196D01*
X119011505Y-56374145D01*
X119004765Y-56416228D01*
X119002407Y-56463660D01*
X119004762Y-56505051D01*
X119011810Y-56545664D01*
X119022877Y-56584798D01*
X119036540Y-56619426D01*
X119065116Y-56673709D01*
X119092288Y-56714375D01*
X119092288Y-56739654D01*
X118894207Y-56739654D01*
X118872592Y-56686043D01*
X118852381Y-56619426D01*
X118836322Y-56539131D01*
X118830460Y-56438381D01*
X118835297Y-56349210D01*
X118848911Y-56273042D01*
X118870244Y-56208025D01*
X118898657Y-56152562D01*
X118933958Y-56105355D01*
X118977469Y-56064757D01*
X119027571Y-56032909D01*
X119085226Y-56009490D01*
X119151764Y-55994769D01*
X119228820Y-55989584D01*
X119304149Y-55994346D01*
G37*
G36*
X118850000Y-57115116D02*
G01*
X118850000Y-56876003D01*
X119912944Y-56876003D01*
X119912944Y-57115116D01*
X118850000Y-57115116D01*
G37*
G36*
X119294111Y-57246549D02*
G01*
X119352014Y-57255427D01*
X119402049Y-57269356D01*
X119472058Y-57300678D01*
X119531010Y-57341102D01*
X119575767Y-57387090D01*
X119610205Y-57442158D01*
X119632096Y-57503325D01*
X119639392Y-57567882D01*
X119635895Y-57625193D01*
X119626753Y-57666617D01*
X119611511Y-57706314D01*
X119587491Y-57756437D01*
X119912944Y-57756437D01*
X119912944Y-57995551D01*
X118850000Y-57995551D01*
X118850000Y-57756437D01*
X118929928Y-57756437D01*
X118888956Y-57703497D01*
X118856167Y-57651229D01*
X118849523Y-57634132D01*
X119014131Y-57634132D01*
X119017147Y-57665397D01*
X119026465Y-57697697D01*
X119041108Y-57728474D01*
X119060170Y-57756437D01*
X119438991Y-57756437D01*
X119453768Y-57709970D01*
X119459630Y-57660816D01*
X119455512Y-57618801D01*
X119443906Y-57584132D01*
X119425265Y-57555292D01*
X119399118Y-57531306D01*
X119356580Y-57508436D01*
X119301329Y-57493465D01*
X119229980Y-57487953D01*
X119153960Y-57492709D01*
X119100893Y-57504966D01*
X119064994Y-57522452D01*
X119037462Y-57549165D01*
X119020365Y-57585323D01*
X119014131Y-57634132D01*
X118849523Y-57634132D01*
X118834124Y-57594504D01*
X118828596Y-57565094D01*
X118826552Y-57527581D01*
X118833529Y-57464730D01*
X118853702Y-57410303D01*
X118887164Y-57362393D01*
X118935607Y-57319914D01*
X118991246Y-57288029D01*
X119057104Y-57264126D01*
X119135021Y-57248850D01*
X119227172Y-57243405D01*
X119294111Y-57246549D01*
G37*
G36*
X117935945Y-54559481D02*
G01*
X117170000Y-54284220D01*
X117170000Y-54023246D01*
X117935945Y-53750000D01*
X117935945Y-54001386D01*
X117429202Y-54158496D01*
X117935945Y-54313590D01*
X117935945Y-54559481D01*
G37*
G36*
X117170000Y-55774651D02*
G01*
X117170000Y-55102494D01*
X117345854Y-55102494D01*
X117345854Y-55316939D01*
X117885143Y-55316939D01*
X117885143Y-55102494D01*
X118049274Y-55102494D01*
X118055319Y-55196039D01*
X118063794Y-55239912D01*
X118074858Y-55270533D01*
X118094113Y-55299942D01*
X118118333Y-55321336D01*
X118148003Y-55335341D01*
X118186050Y-55342219D01*
X118186050Y-55564968D01*
X117345854Y-55564968D01*
X117345854Y-55774651D01*
X117170000Y-55774651D01*
G37*
G36*
X117170000Y-56199755D02*
G01*
X117170000Y-55957955D01*
X117439644Y-55957955D01*
X117439644Y-56199755D01*
X117170000Y-56199755D01*
G37*
G36*
X117806393Y-56355931D02*
G01*
X117907002Y-56371092D01*
X117969338Y-56388580D01*
X118023922Y-56411784D01*
X118071683Y-56440457D01*
X118113103Y-56475521D01*
X118146497Y-56516286D01*
X118172433Y-56563372D01*
X118190286Y-56614523D01*
X118201593Y-56673745D01*
X118205589Y-56742402D01*
X118201327Y-56815189D01*
X118189470Y-56875650D01*
X118171090Y-56925767D01*
X118144368Y-56971762D01*
X118110293Y-57011780D01*
X118068264Y-57046362D01*
X118021865Y-57073632D01*
X117967162Y-57096193D01*
X117902911Y-57113651D01*
X117800754Y-57128933D01*
X117676742Y-57134473D01*
X117549088Y-57128801D01*
X117445811Y-57113285D01*
X117381102Y-57095573D01*
X117326432Y-57072899D01*
X117280458Y-57045690D01*
X117239866Y-57011570D01*
X117206664Y-56971467D01*
X117180380Y-56924729D01*
X117162283Y-56873993D01*
X117150691Y-56813789D01*
X117146552Y-56742402D01*
X117334131Y-56742402D01*
X117338933Y-56776185D01*
X117352784Y-56804044D01*
X117376271Y-56827473D01*
X117411739Y-56846877D01*
X117465394Y-56862350D01*
X117550107Y-56873777D01*
X117676742Y-56878323D01*
X117804380Y-56873800D01*
X117888916Y-56862480D01*
X117941746Y-56847243D01*
X117976443Y-56828050D01*
X117999542Y-56804662D01*
X118013241Y-56776625D01*
X118018011Y-56742402D01*
X118013263Y-56708494D01*
X117999595Y-56680580D01*
X117976497Y-56657163D01*
X117941746Y-56637805D01*
X117888876Y-56622433D01*
X117803965Y-56610996D01*
X117675399Y-56606420D01*
X117549698Y-56610948D01*
X117465364Y-56622345D01*
X117411739Y-56637805D01*
X117376276Y-56657237D01*
X117352788Y-56680695D01*
X117338934Y-56708586D01*
X117334131Y-56742402D01*
X117146552Y-56742402D01*
X117150682Y-56671434D01*
X117162265Y-56611396D01*
X117180380Y-56560624D01*
X117206726Y-56513983D01*
X117240368Y-56473660D01*
X117281863Y-56439052D01*
X117328206Y-56411773D01*
X117382793Y-56389113D01*
X117446849Y-56371458D01*
X117549134Y-56355949D01*
X117676071Y-56350270D01*
X117806393Y-56355931D01*
G37*
D10*
X155602381Y-76157200D02*
X155745238Y-76204819D01*
X155745238Y-76204819D02*
X155983333Y-76204819D01*
X155983333Y-76204819D02*
X156078571Y-76157200D01*
X156078571Y-76157200D02*
X156126190Y-76109580D01*
X156126190Y-76109580D02*
X156173809Y-76014342D01*
X156173809Y-76014342D02*
X156173809Y-75919104D01*
X156173809Y-75919104D02*
X156126190Y-75823866D01*
X156126190Y-75823866D02*
X156078571Y-75776247D01*
X156078571Y-75776247D02*
X155983333Y-75728628D01*
X155983333Y-75728628D02*
X155792857Y-75681009D01*
X155792857Y-75681009D02*
X155697619Y-75633390D01*
X155697619Y-75633390D02*
X155650000Y-75585771D01*
X155650000Y-75585771D02*
X155602381Y-75490533D01*
X155602381Y-75490533D02*
X155602381Y-75395295D01*
X155602381Y-75395295D02*
X155650000Y-75300057D01*
X155650000Y-75300057D02*
X155697619Y-75252438D01*
X155697619Y-75252438D02*
X155792857Y-75204819D01*
X155792857Y-75204819D02*
X156030952Y-75204819D01*
X156030952Y-75204819D02*
X156173809Y-75252438D01*
X156507143Y-75204819D02*
X156745238Y-76204819D01*
X156745238Y-76204819D02*
X156935714Y-75490533D01*
X156935714Y-75490533D02*
X157126190Y-76204819D01*
X157126190Y-76204819D02*
X157364286Y-75204819D01*
X157745238Y-76204819D02*
X157745238Y-75204819D01*
X158078571Y-75204819D02*
X158649999Y-75204819D01*
X158364285Y-76204819D02*
X158364285Y-75204819D01*
X159554761Y-76109580D02*
X159507142Y-76157200D01*
X159507142Y-76157200D02*
X159364285Y-76204819D01*
X159364285Y-76204819D02*
X159269047Y-76204819D01*
X159269047Y-76204819D02*
X159126190Y-76157200D01*
X159126190Y-76157200D02*
X159030952Y-76061961D01*
X159030952Y-76061961D02*
X158983333Y-75966723D01*
X158983333Y-75966723D02*
X158935714Y-75776247D01*
X158935714Y-75776247D02*
X158935714Y-75633390D01*
X158935714Y-75633390D02*
X158983333Y-75442914D01*
X158983333Y-75442914D02*
X159030952Y-75347676D01*
X159030952Y-75347676D02*
X159126190Y-75252438D01*
X159126190Y-75252438D02*
X159269047Y-75204819D01*
X159269047Y-75204819D02*
X159364285Y-75204819D01*
X159364285Y-75204819D02*
X159507142Y-75252438D01*
X159507142Y-75252438D02*
X159554761Y-75300057D01*
X159983333Y-76204819D02*
X159983333Y-75204819D01*
X159983333Y-75681009D02*
X160554761Y-75681009D01*
X160554761Y-76204819D02*
X160554761Y-75204819D01*
X160792857Y-76300057D02*
X161554761Y-76300057D01*
X161792857Y-76204819D02*
X161792857Y-75204819D01*
X162269047Y-76204819D02*
X162269047Y-75204819D01*
X162269047Y-75204819D02*
X162840475Y-76204819D01*
X162840475Y-76204819D02*
X162840475Y-75204819D01*
X163173809Y-75204819D02*
X163507142Y-76204819D01*
X163507142Y-76204819D02*
X163840475Y-75204819D01*
X164697618Y-76204819D02*
X164126190Y-76204819D01*
X164411904Y-76204819D02*
X164411904Y-75204819D01*
X164411904Y-75204819D02*
X164316666Y-75347676D01*
X164316666Y-75347676D02*
X164221428Y-75442914D01*
X164221428Y-75442914D02*
X164126190Y-75490533D01*
X136959580Y-72192857D02*
X137007200Y-72240476D01*
X137007200Y-72240476D02*
X137054819Y-72383333D01*
X137054819Y-72383333D02*
X137054819Y-72478571D01*
X137054819Y-72478571D02*
X137007200Y-72621428D01*
X137007200Y-72621428D02*
X136911961Y-72716666D01*
X136911961Y-72716666D02*
X136816723Y-72764285D01*
X136816723Y-72764285D02*
X136626247Y-72811904D01*
X136626247Y-72811904D02*
X136483390Y-72811904D01*
X136483390Y-72811904D02*
X136292914Y-72764285D01*
X136292914Y-72764285D02*
X136197676Y-72716666D01*
X136197676Y-72716666D02*
X136102438Y-72621428D01*
X136102438Y-72621428D02*
X136054819Y-72478571D01*
X136054819Y-72478571D02*
X136054819Y-72383333D01*
X136054819Y-72383333D02*
X136102438Y-72240476D01*
X136102438Y-72240476D02*
X136150057Y-72192857D01*
X137054819Y-71240476D02*
X137054819Y-71811904D01*
X137054819Y-71526190D02*
X136054819Y-71526190D01*
X136054819Y-71526190D02*
X136197676Y-71621428D01*
X136197676Y-71621428D02*
X136292914Y-71716666D01*
X136292914Y-71716666D02*
X136340533Y-71811904D01*
X136054819Y-70621428D02*
X136054819Y-70526190D01*
X136054819Y-70526190D02*
X136102438Y-70430952D01*
X136102438Y-70430952D02*
X136150057Y-70383333D01*
X136150057Y-70383333D02*
X136245295Y-70335714D01*
X136245295Y-70335714D02*
X136435771Y-70288095D01*
X136435771Y-70288095D02*
X136673866Y-70288095D01*
X136673866Y-70288095D02*
X136864342Y-70335714D01*
X136864342Y-70335714D02*
X136959580Y-70383333D01*
X136959580Y-70383333D02*
X137007200Y-70430952D01*
X137007200Y-70430952D02*
X137054819Y-70526190D01*
X137054819Y-70526190D02*
X137054819Y-70621428D01*
X137054819Y-70621428D02*
X137007200Y-70716666D01*
X137007200Y-70716666D02*
X136959580Y-70764285D01*
X136959580Y-70764285D02*
X136864342Y-70811904D01*
X136864342Y-70811904D02*
X136673866Y-70859523D01*
X136673866Y-70859523D02*
X136435771Y-70859523D01*
X136435771Y-70859523D02*
X136245295Y-70811904D01*
X136245295Y-70811904D02*
X136150057Y-70764285D01*
X136150057Y-70764285D02*
X136102438Y-70716666D01*
X136102438Y-70716666D02*
X136054819Y-70621428D01*
X150959580Y-71692857D02*
X151007200Y-71740476D01*
X151007200Y-71740476D02*
X151054819Y-71883333D01*
X151054819Y-71883333D02*
X151054819Y-71978571D01*
X151054819Y-71978571D02*
X151007200Y-72121428D01*
X151007200Y-72121428D02*
X150911961Y-72216666D01*
X150911961Y-72216666D02*
X150816723Y-72264285D01*
X150816723Y-72264285D02*
X150626247Y-72311904D01*
X150626247Y-72311904D02*
X150483390Y-72311904D01*
X150483390Y-72311904D02*
X150292914Y-72264285D01*
X150292914Y-72264285D02*
X150197676Y-72216666D01*
X150197676Y-72216666D02*
X150102438Y-72121428D01*
X150102438Y-72121428D02*
X150054819Y-71978571D01*
X150054819Y-71978571D02*
X150054819Y-71883333D01*
X150054819Y-71883333D02*
X150102438Y-71740476D01*
X150102438Y-71740476D02*
X150150057Y-71692857D01*
X151054819Y-70740476D02*
X151054819Y-71311904D01*
X151054819Y-71026190D02*
X150054819Y-71026190D01*
X150054819Y-71026190D02*
X150197676Y-71121428D01*
X150197676Y-71121428D02*
X150292914Y-71216666D01*
X150292914Y-71216666D02*
X150340533Y-71311904D01*
X151054819Y-69788095D02*
X151054819Y-70359523D01*
X151054819Y-70073809D02*
X150054819Y-70073809D01*
X150054819Y-70073809D02*
X150197676Y-70169047D01*
X150197676Y-70169047D02*
X150292914Y-70264285D01*
X150292914Y-70264285D02*
X150340533Y-70359523D01*
X150059580Y-90366666D02*
X150107200Y-90414285D01*
X150107200Y-90414285D02*
X150154819Y-90557142D01*
X150154819Y-90557142D02*
X150154819Y-90652380D01*
X150154819Y-90652380D02*
X150107200Y-90795237D01*
X150107200Y-90795237D02*
X150011961Y-90890475D01*
X150011961Y-90890475D02*
X149916723Y-90938094D01*
X149916723Y-90938094D02*
X149726247Y-90985713D01*
X149726247Y-90985713D02*
X149583390Y-90985713D01*
X149583390Y-90985713D02*
X149392914Y-90938094D01*
X149392914Y-90938094D02*
X149297676Y-90890475D01*
X149297676Y-90890475D02*
X149202438Y-90795237D01*
X149202438Y-90795237D02*
X149154819Y-90652380D01*
X149154819Y-90652380D02*
X149154819Y-90557142D01*
X149154819Y-90557142D02*
X149202438Y-90414285D01*
X149202438Y-90414285D02*
X149250057Y-90366666D01*
X149154819Y-89461904D02*
X149154819Y-89938094D01*
X149154819Y-89938094D02*
X149631009Y-89985713D01*
X149631009Y-89985713D02*
X149583390Y-89938094D01*
X149583390Y-89938094D02*
X149535771Y-89842856D01*
X149535771Y-89842856D02*
X149535771Y-89604761D01*
X149535771Y-89604761D02*
X149583390Y-89509523D01*
X149583390Y-89509523D02*
X149631009Y-89461904D01*
X149631009Y-89461904D02*
X149726247Y-89414285D01*
X149726247Y-89414285D02*
X149964342Y-89414285D01*
X149964342Y-89414285D02*
X150059580Y-89461904D01*
X150059580Y-89461904D02*
X150107200Y-89509523D01*
X150107200Y-89509523D02*
X150154819Y-89604761D01*
X150154819Y-89604761D02*
X150154819Y-89842856D01*
X150154819Y-89842856D02*
X150107200Y-89938094D01*
X150107200Y-89938094D02*
X150059580Y-89985713D01*
X116883333Y-98009580D02*
X116835714Y-98057200D01*
X116835714Y-98057200D02*
X116692857Y-98104819D01*
X116692857Y-98104819D02*
X116597619Y-98104819D01*
X116597619Y-98104819D02*
X116454762Y-98057200D01*
X116454762Y-98057200D02*
X116359524Y-97961961D01*
X116359524Y-97961961D02*
X116311905Y-97866723D01*
X116311905Y-97866723D02*
X116264286Y-97676247D01*
X116264286Y-97676247D02*
X116264286Y-97533390D01*
X116264286Y-97533390D02*
X116311905Y-97342914D01*
X116311905Y-97342914D02*
X116359524Y-97247676D01*
X116359524Y-97247676D02*
X116454762Y-97152438D01*
X116454762Y-97152438D02*
X116597619Y-97104819D01*
X116597619Y-97104819D02*
X116692857Y-97104819D01*
X116692857Y-97104819D02*
X116835714Y-97152438D01*
X116835714Y-97152438D02*
X116883333Y-97200057D01*
X117740476Y-97104819D02*
X117550000Y-97104819D01*
X117550000Y-97104819D02*
X117454762Y-97152438D01*
X117454762Y-97152438D02*
X117407143Y-97200057D01*
X117407143Y-97200057D02*
X117311905Y-97342914D01*
X117311905Y-97342914D02*
X117264286Y-97533390D01*
X117264286Y-97533390D02*
X117264286Y-97914342D01*
X117264286Y-97914342D02*
X117311905Y-98009580D01*
X117311905Y-98009580D02*
X117359524Y-98057200D01*
X117359524Y-98057200D02*
X117454762Y-98104819D01*
X117454762Y-98104819D02*
X117645238Y-98104819D01*
X117645238Y-98104819D02*
X117740476Y-98057200D01*
X117740476Y-98057200D02*
X117788095Y-98009580D01*
X117788095Y-98009580D02*
X117835714Y-97914342D01*
X117835714Y-97914342D02*
X117835714Y-97676247D01*
X117835714Y-97676247D02*
X117788095Y-97581009D01*
X117788095Y-97581009D02*
X117740476Y-97533390D01*
X117740476Y-97533390D02*
X117645238Y-97485771D01*
X117645238Y-97485771D02*
X117454762Y-97485771D01*
X117454762Y-97485771D02*
X117359524Y-97533390D01*
X117359524Y-97533390D02*
X117311905Y-97581009D01*
X117311905Y-97581009D02*
X117264286Y-97676247D01*
X104281009Y-95623810D02*
X104328628Y-95480953D01*
X104328628Y-95480953D02*
X104376247Y-95433334D01*
X104376247Y-95433334D02*
X104471485Y-95385715D01*
X104471485Y-95385715D02*
X104614342Y-95385715D01*
X104614342Y-95385715D02*
X104709580Y-95433334D01*
X104709580Y-95433334D02*
X104757200Y-95480953D01*
X104757200Y-95480953D02*
X104804819Y-95576191D01*
X104804819Y-95576191D02*
X104804819Y-95957143D01*
X104804819Y-95957143D02*
X103804819Y-95957143D01*
X103804819Y-95957143D02*
X103804819Y-95623810D01*
X103804819Y-95623810D02*
X103852438Y-95528572D01*
X103852438Y-95528572D02*
X103900057Y-95480953D01*
X103900057Y-95480953D02*
X103995295Y-95433334D01*
X103995295Y-95433334D02*
X104090533Y-95433334D01*
X104090533Y-95433334D02*
X104185771Y-95480953D01*
X104185771Y-95480953D02*
X104233390Y-95528572D01*
X104233390Y-95528572D02*
X104281009Y-95623810D01*
X104281009Y-95623810D02*
X104281009Y-95957143D01*
X104804819Y-94528572D02*
X104281009Y-94528572D01*
X104281009Y-94528572D02*
X104185771Y-94576191D01*
X104185771Y-94576191D02*
X104138152Y-94671429D01*
X104138152Y-94671429D02*
X104138152Y-94861905D01*
X104138152Y-94861905D02*
X104185771Y-94957143D01*
X104757200Y-94528572D02*
X104804819Y-94623810D01*
X104804819Y-94623810D02*
X104804819Y-94861905D01*
X104804819Y-94861905D02*
X104757200Y-94957143D01*
X104757200Y-94957143D02*
X104661961Y-95004762D01*
X104661961Y-95004762D02*
X104566723Y-95004762D01*
X104566723Y-95004762D02*
X104471485Y-94957143D01*
X104471485Y-94957143D02*
X104423866Y-94861905D01*
X104423866Y-94861905D02*
X104423866Y-94623810D01*
X104423866Y-94623810D02*
X104376247Y-94528572D01*
X104804819Y-94052381D02*
X104138152Y-94052381D01*
X104328628Y-94052381D02*
X104233390Y-94004762D01*
X104233390Y-94004762D02*
X104185771Y-93957143D01*
X104185771Y-93957143D02*
X104138152Y-93861905D01*
X104138152Y-93861905D02*
X104138152Y-93766667D01*
X104804819Y-93433333D02*
X104138152Y-93433333D01*
X104328628Y-93433333D02*
X104233390Y-93385714D01*
X104233390Y-93385714D02*
X104185771Y-93338095D01*
X104185771Y-93338095D02*
X104138152Y-93242857D01*
X104138152Y-93242857D02*
X104138152Y-93147619D01*
X104757200Y-92433333D02*
X104804819Y-92528571D01*
X104804819Y-92528571D02*
X104804819Y-92719047D01*
X104804819Y-92719047D02*
X104757200Y-92814285D01*
X104757200Y-92814285D02*
X104661961Y-92861904D01*
X104661961Y-92861904D02*
X104281009Y-92861904D01*
X104281009Y-92861904D02*
X104185771Y-92814285D01*
X104185771Y-92814285D02*
X104138152Y-92719047D01*
X104138152Y-92719047D02*
X104138152Y-92528571D01*
X104138152Y-92528571D02*
X104185771Y-92433333D01*
X104185771Y-92433333D02*
X104281009Y-92385714D01*
X104281009Y-92385714D02*
X104376247Y-92385714D01*
X104376247Y-92385714D02*
X104471485Y-92861904D01*
X104804819Y-91814285D02*
X104757200Y-91909523D01*
X104757200Y-91909523D02*
X104661961Y-91957142D01*
X104661961Y-91957142D02*
X103804819Y-91957142D01*
X104900057Y-91671428D02*
X104900057Y-90909523D01*
X103804819Y-90385713D02*
X104519104Y-90385713D01*
X104519104Y-90385713D02*
X104661961Y-90433332D01*
X104661961Y-90433332D02*
X104757200Y-90528570D01*
X104757200Y-90528570D02*
X104804819Y-90671427D01*
X104804819Y-90671427D02*
X104804819Y-90766665D01*
X104804819Y-89480951D02*
X104281009Y-89480951D01*
X104281009Y-89480951D02*
X104185771Y-89528570D01*
X104185771Y-89528570D02*
X104138152Y-89623808D01*
X104138152Y-89623808D02*
X104138152Y-89814284D01*
X104138152Y-89814284D02*
X104185771Y-89909522D01*
X104757200Y-89480951D02*
X104804819Y-89576189D01*
X104804819Y-89576189D02*
X104804819Y-89814284D01*
X104804819Y-89814284D02*
X104757200Y-89909522D01*
X104757200Y-89909522D02*
X104661961Y-89957141D01*
X104661961Y-89957141D02*
X104566723Y-89957141D01*
X104566723Y-89957141D02*
X104471485Y-89909522D01*
X104471485Y-89909522D02*
X104423866Y-89814284D01*
X104423866Y-89814284D02*
X104423866Y-89576189D01*
X104423866Y-89576189D02*
X104376247Y-89480951D01*
X104757200Y-88576189D02*
X104804819Y-88671427D01*
X104804819Y-88671427D02*
X104804819Y-88861903D01*
X104804819Y-88861903D02*
X104757200Y-88957141D01*
X104757200Y-88957141D02*
X104709580Y-89004760D01*
X104709580Y-89004760D02*
X104614342Y-89052379D01*
X104614342Y-89052379D02*
X104328628Y-89052379D01*
X104328628Y-89052379D02*
X104233390Y-89004760D01*
X104233390Y-89004760D02*
X104185771Y-88957141D01*
X104185771Y-88957141D02*
X104138152Y-88861903D01*
X104138152Y-88861903D02*
X104138152Y-88671427D01*
X104138152Y-88671427D02*
X104185771Y-88576189D01*
X104804819Y-88147617D02*
X103804819Y-88147617D01*
X104423866Y-88052379D02*
X104804819Y-87766665D01*
X104138152Y-87766665D02*
X104519104Y-88147617D01*
X104900057Y-87576189D02*
X104900057Y-86814284D01*
X104757200Y-86623807D02*
X104804819Y-86480950D01*
X104804819Y-86480950D02*
X104804819Y-86242855D01*
X104804819Y-86242855D02*
X104757200Y-86147617D01*
X104757200Y-86147617D02*
X104709580Y-86099998D01*
X104709580Y-86099998D02*
X104614342Y-86052379D01*
X104614342Y-86052379D02*
X104519104Y-86052379D01*
X104519104Y-86052379D02*
X104423866Y-86099998D01*
X104423866Y-86099998D02*
X104376247Y-86147617D01*
X104376247Y-86147617D02*
X104328628Y-86242855D01*
X104328628Y-86242855D02*
X104281009Y-86433331D01*
X104281009Y-86433331D02*
X104233390Y-86528569D01*
X104233390Y-86528569D02*
X104185771Y-86576188D01*
X104185771Y-86576188D02*
X104090533Y-86623807D01*
X104090533Y-86623807D02*
X103995295Y-86623807D01*
X103995295Y-86623807D02*
X103900057Y-86576188D01*
X103900057Y-86576188D02*
X103852438Y-86528569D01*
X103852438Y-86528569D02*
X103804819Y-86433331D01*
X103804819Y-86433331D02*
X103804819Y-86195236D01*
X103804819Y-86195236D02*
X103852438Y-86052379D01*
X104138152Y-85719045D02*
X104804819Y-85528569D01*
X104804819Y-85528569D02*
X104328628Y-85338093D01*
X104328628Y-85338093D02*
X104804819Y-85147617D01*
X104804819Y-85147617D02*
X104138152Y-84957141D01*
X104804819Y-84576188D02*
X104138152Y-84576188D01*
X103804819Y-84576188D02*
X103852438Y-84623807D01*
X103852438Y-84623807D02*
X103900057Y-84576188D01*
X103900057Y-84576188D02*
X103852438Y-84528569D01*
X103852438Y-84528569D02*
X103804819Y-84576188D01*
X103804819Y-84576188D02*
X103900057Y-84576188D01*
X104138152Y-84242855D02*
X104138152Y-83861903D01*
X103804819Y-84099998D02*
X104661961Y-84099998D01*
X104661961Y-84099998D02*
X104757200Y-84052379D01*
X104757200Y-84052379D02*
X104804819Y-83957141D01*
X104804819Y-83957141D02*
X104804819Y-83861903D01*
X104757200Y-83099998D02*
X104804819Y-83195236D01*
X104804819Y-83195236D02*
X104804819Y-83385712D01*
X104804819Y-83385712D02*
X104757200Y-83480950D01*
X104757200Y-83480950D02*
X104709580Y-83528569D01*
X104709580Y-83528569D02*
X104614342Y-83576188D01*
X104614342Y-83576188D02*
X104328628Y-83576188D01*
X104328628Y-83576188D02*
X104233390Y-83528569D01*
X104233390Y-83528569D02*
X104185771Y-83480950D01*
X104185771Y-83480950D02*
X104138152Y-83385712D01*
X104138152Y-83385712D02*
X104138152Y-83195236D01*
X104138152Y-83195236D02*
X104185771Y-83099998D01*
X104804819Y-82671426D02*
X103804819Y-82671426D01*
X104804819Y-82242855D02*
X104281009Y-82242855D01*
X104281009Y-82242855D02*
X104185771Y-82290474D01*
X104185771Y-82290474D02*
X104138152Y-82385712D01*
X104138152Y-82385712D02*
X104138152Y-82528569D01*
X104138152Y-82528569D02*
X104185771Y-82623807D01*
X104185771Y-82623807D02*
X104233390Y-82671426D01*
X120043333Y-84054819D02*
X119710000Y-83578628D01*
X119471905Y-84054819D02*
X119471905Y-83054819D01*
X119471905Y-83054819D02*
X119852857Y-83054819D01*
X119852857Y-83054819D02*
X119948095Y-83102438D01*
X119948095Y-83102438D02*
X119995714Y-83150057D01*
X119995714Y-83150057D02*
X120043333Y-83245295D01*
X120043333Y-83245295D02*
X120043333Y-83388152D01*
X120043333Y-83388152D02*
X119995714Y-83483390D01*
X119995714Y-83483390D02*
X119948095Y-83531009D01*
X119948095Y-83531009D02*
X119852857Y-83578628D01*
X119852857Y-83578628D02*
X119471905Y-83578628D01*
X120995714Y-84054819D02*
X120424286Y-84054819D01*
X120710000Y-84054819D02*
X120710000Y-83054819D01*
X120710000Y-83054819D02*
X120614762Y-83197676D01*
X120614762Y-83197676D02*
X120519524Y-83292914D01*
X120519524Y-83292914D02*
X120424286Y-83340533D01*
X104581009Y-64123810D02*
X104628628Y-63980953D01*
X104628628Y-63980953D02*
X104676247Y-63933334D01*
X104676247Y-63933334D02*
X104771485Y-63885715D01*
X104771485Y-63885715D02*
X104914342Y-63885715D01*
X104914342Y-63885715D02*
X105009580Y-63933334D01*
X105009580Y-63933334D02*
X105057200Y-63980953D01*
X105057200Y-63980953D02*
X105104819Y-64076191D01*
X105104819Y-64076191D02*
X105104819Y-64457143D01*
X105104819Y-64457143D02*
X104104819Y-64457143D01*
X104104819Y-64457143D02*
X104104819Y-64123810D01*
X104104819Y-64123810D02*
X104152438Y-64028572D01*
X104152438Y-64028572D02*
X104200057Y-63980953D01*
X104200057Y-63980953D02*
X104295295Y-63933334D01*
X104295295Y-63933334D02*
X104390533Y-63933334D01*
X104390533Y-63933334D02*
X104485771Y-63980953D01*
X104485771Y-63980953D02*
X104533390Y-64028572D01*
X104533390Y-64028572D02*
X104581009Y-64123810D01*
X104581009Y-64123810D02*
X104581009Y-64457143D01*
X105104819Y-63028572D02*
X104581009Y-63028572D01*
X104581009Y-63028572D02*
X104485771Y-63076191D01*
X104485771Y-63076191D02*
X104438152Y-63171429D01*
X104438152Y-63171429D02*
X104438152Y-63361905D01*
X104438152Y-63361905D02*
X104485771Y-63457143D01*
X105057200Y-63028572D02*
X105104819Y-63123810D01*
X105104819Y-63123810D02*
X105104819Y-63361905D01*
X105104819Y-63361905D02*
X105057200Y-63457143D01*
X105057200Y-63457143D02*
X104961961Y-63504762D01*
X104961961Y-63504762D02*
X104866723Y-63504762D01*
X104866723Y-63504762D02*
X104771485Y-63457143D01*
X104771485Y-63457143D02*
X104723866Y-63361905D01*
X104723866Y-63361905D02*
X104723866Y-63123810D01*
X104723866Y-63123810D02*
X104676247Y-63028572D01*
X105104819Y-62552381D02*
X104438152Y-62552381D01*
X104628628Y-62552381D02*
X104533390Y-62504762D01*
X104533390Y-62504762D02*
X104485771Y-62457143D01*
X104485771Y-62457143D02*
X104438152Y-62361905D01*
X104438152Y-62361905D02*
X104438152Y-62266667D01*
X105104819Y-61933333D02*
X104438152Y-61933333D01*
X104628628Y-61933333D02*
X104533390Y-61885714D01*
X104533390Y-61885714D02*
X104485771Y-61838095D01*
X104485771Y-61838095D02*
X104438152Y-61742857D01*
X104438152Y-61742857D02*
X104438152Y-61647619D01*
X105057200Y-60933333D02*
X105104819Y-61028571D01*
X105104819Y-61028571D02*
X105104819Y-61219047D01*
X105104819Y-61219047D02*
X105057200Y-61314285D01*
X105057200Y-61314285D02*
X104961961Y-61361904D01*
X104961961Y-61361904D02*
X104581009Y-61361904D01*
X104581009Y-61361904D02*
X104485771Y-61314285D01*
X104485771Y-61314285D02*
X104438152Y-61219047D01*
X104438152Y-61219047D02*
X104438152Y-61028571D01*
X104438152Y-61028571D02*
X104485771Y-60933333D01*
X104485771Y-60933333D02*
X104581009Y-60885714D01*
X104581009Y-60885714D02*
X104676247Y-60885714D01*
X104676247Y-60885714D02*
X104771485Y-61361904D01*
X105104819Y-60314285D02*
X105057200Y-60409523D01*
X105057200Y-60409523D02*
X104961961Y-60457142D01*
X104961961Y-60457142D02*
X104104819Y-60457142D01*
X105200057Y-60171428D02*
X105200057Y-59409523D01*
X104104819Y-58885713D02*
X104819104Y-58885713D01*
X104819104Y-58885713D02*
X104961961Y-58933332D01*
X104961961Y-58933332D02*
X105057200Y-59028570D01*
X105057200Y-59028570D02*
X105104819Y-59171427D01*
X105104819Y-59171427D02*
X105104819Y-59266665D01*
X105104819Y-57980951D02*
X104581009Y-57980951D01*
X104581009Y-57980951D02*
X104485771Y-58028570D01*
X104485771Y-58028570D02*
X104438152Y-58123808D01*
X104438152Y-58123808D02*
X104438152Y-58314284D01*
X104438152Y-58314284D02*
X104485771Y-58409522D01*
X105057200Y-57980951D02*
X105104819Y-58076189D01*
X105104819Y-58076189D02*
X105104819Y-58314284D01*
X105104819Y-58314284D02*
X105057200Y-58409522D01*
X105057200Y-58409522D02*
X104961961Y-58457141D01*
X104961961Y-58457141D02*
X104866723Y-58457141D01*
X104866723Y-58457141D02*
X104771485Y-58409522D01*
X104771485Y-58409522D02*
X104723866Y-58314284D01*
X104723866Y-58314284D02*
X104723866Y-58076189D01*
X104723866Y-58076189D02*
X104676247Y-57980951D01*
X105057200Y-57076189D02*
X105104819Y-57171427D01*
X105104819Y-57171427D02*
X105104819Y-57361903D01*
X105104819Y-57361903D02*
X105057200Y-57457141D01*
X105057200Y-57457141D02*
X105009580Y-57504760D01*
X105009580Y-57504760D02*
X104914342Y-57552379D01*
X104914342Y-57552379D02*
X104628628Y-57552379D01*
X104628628Y-57552379D02*
X104533390Y-57504760D01*
X104533390Y-57504760D02*
X104485771Y-57457141D01*
X104485771Y-57457141D02*
X104438152Y-57361903D01*
X104438152Y-57361903D02*
X104438152Y-57171427D01*
X104438152Y-57171427D02*
X104485771Y-57076189D01*
X105104819Y-56647617D02*
X104104819Y-56647617D01*
X104723866Y-56552379D02*
X105104819Y-56266665D01*
X104438152Y-56266665D02*
X104819104Y-56647617D01*
X105200057Y-56076189D02*
X105200057Y-55314284D01*
X105057200Y-55123807D02*
X105104819Y-54980950D01*
X105104819Y-54980950D02*
X105104819Y-54742855D01*
X105104819Y-54742855D02*
X105057200Y-54647617D01*
X105057200Y-54647617D02*
X105009580Y-54599998D01*
X105009580Y-54599998D02*
X104914342Y-54552379D01*
X104914342Y-54552379D02*
X104819104Y-54552379D01*
X104819104Y-54552379D02*
X104723866Y-54599998D01*
X104723866Y-54599998D02*
X104676247Y-54647617D01*
X104676247Y-54647617D02*
X104628628Y-54742855D01*
X104628628Y-54742855D02*
X104581009Y-54933331D01*
X104581009Y-54933331D02*
X104533390Y-55028569D01*
X104533390Y-55028569D02*
X104485771Y-55076188D01*
X104485771Y-55076188D02*
X104390533Y-55123807D01*
X104390533Y-55123807D02*
X104295295Y-55123807D01*
X104295295Y-55123807D02*
X104200057Y-55076188D01*
X104200057Y-55076188D02*
X104152438Y-55028569D01*
X104152438Y-55028569D02*
X104104819Y-54933331D01*
X104104819Y-54933331D02*
X104104819Y-54695236D01*
X104104819Y-54695236D02*
X104152438Y-54552379D01*
X104438152Y-54219045D02*
X105104819Y-54028569D01*
X105104819Y-54028569D02*
X104628628Y-53838093D01*
X104628628Y-53838093D02*
X105104819Y-53647617D01*
X105104819Y-53647617D02*
X104438152Y-53457141D01*
X105104819Y-53076188D02*
X104438152Y-53076188D01*
X104104819Y-53076188D02*
X104152438Y-53123807D01*
X104152438Y-53123807D02*
X104200057Y-53076188D01*
X104200057Y-53076188D02*
X104152438Y-53028569D01*
X104152438Y-53028569D02*
X104104819Y-53076188D01*
X104104819Y-53076188D02*
X104200057Y-53076188D01*
X104438152Y-52742855D02*
X104438152Y-52361903D01*
X104104819Y-52599998D02*
X104961961Y-52599998D01*
X104961961Y-52599998D02*
X105057200Y-52552379D01*
X105057200Y-52552379D02*
X105104819Y-52457141D01*
X105104819Y-52457141D02*
X105104819Y-52361903D01*
X105057200Y-51599998D02*
X105104819Y-51695236D01*
X105104819Y-51695236D02*
X105104819Y-51885712D01*
X105104819Y-51885712D02*
X105057200Y-51980950D01*
X105057200Y-51980950D02*
X105009580Y-52028569D01*
X105009580Y-52028569D02*
X104914342Y-52076188D01*
X104914342Y-52076188D02*
X104628628Y-52076188D01*
X104628628Y-52076188D02*
X104533390Y-52028569D01*
X104533390Y-52028569D02*
X104485771Y-51980950D01*
X104485771Y-51980950D02*
X104438152Y-51885712D01*
X104438152Y-51885712D02*
X104438152Y-51695236D01*
X104438152Y-51695236D02*
X104485771Y-51599998D01*
X105104819Y-51171426D02*
X104104819Y-51171426D01*
X105104819Y-50742855D02*
X104581009Y-50742855D01*
X104581009Y-50742855D02*
X104485771Y-50790474D01*
X104485771Y-50790474D02*
X104438152Y-50885712D01*
X104438152Y-50885712D02*
X104438152Y-51028569D01*
X104438152Y-51028569D02*
X104485771Y-51123807D01*
X104485771Y-51123807D02*
X104533390Y-51171426D01*
X139909580Y-81916666D02*
X139957200Y-81964285D01*
X139957200Y-81964285D02*
X140004819Y-82107142D01*
X140004819Y-82107142D02*
X140004819Y-82202380D01*
X140004819Y-82202380D02*
X139957200Y-82345237D01*
X139957200Y-82345237D02*
X139861961Y-82440475D01*
X139861961Y-82440475D02*
X139766723Y-82488094D01*
X139766723Y-82488094D02*
X139576247Y-82535713D01*
X139576247Y-82535713D02*
X139433390Y-82535713D01*
X139433390Y-82535713D02*
X139242914Y-82488094D01*
X139242914Y-82488094D02*
X139147676Y-82440475D01*
X139147676Y-82440475D02*
X139052438Y-82345237D01*
X139052438Y-82345237D02*
X139004819Y-82202380D01*
X139004819Y-82202380D02*
X139004819Y-82107142D01*
X139004819Y-82107142D02*
X139052438Y-81964285D01*
X139052438Y-81964285D02*
X139100057Y-81916666D01*
X139100057Y-81535713D02*
X139052438Y-81488094D01*
X139052438Y-81488094D02*
X139004819Y-81392856D01*
X139004819Y-81392856D02*
X139004819Y-81154761D01*
X139004819Y-81154761D02*
X139052438Y-81059523D01*
X139052438Y-81059523D02*
X139100057Y-81011904D01*
X139100057Y-81011904D02*
X139195295Y-80964285D01*
X139195295Y-80964285D02*
X139290533Y-80964285D01*
X139290533Y-80964285D02*
X139433390Y-81011904D01*
X139433390Y-81011904D02*
X140004819Y-81583332D01*
X140004819Y-81583332D02*
X140004819Y-80964285D01*
X153409580Y-58986666D02*
X153457200Y-59034285D01*
X153457200Y-59034285D02*
X153504819Y-59177142D01*
X153504819Y-59177142D02*
X153504819Y-59272380D01*
X153504819Y-59272380D02*
X153457200Y-59415237D01*
X153457200Y-59415237D02*
X153361961Y-59510475D01*
X153361961Y-59510475D02*
X153266723Y-59558094D01*
X153266723Y-59558094D02*
X153076247Y-59605713D01*
X153076247Y-59605713D02*
X152933390Y-59605713D01*
X152933390Y-59605713D02*
X152742914Y-59558094D01*
X152742914Y-59558094D02*
X152647676Y-59510475D01*
X152647676Y-59510475D02*
X152552438Y-59415237D01*
X152552438Y-59415237D02*
X152504819Y-59272380D01*
X152504819Y-59272380D02*
X152504819Y-59177142D01*
X152504819Y-59177142D02*
X152552438Y-59034285D01*
X152552438Y-59034285D02*
X152600057Y-58986666D01*
X153504819Y-58510475D02*
X153504819Y-58319999D01*
X153504819Y-58319999D02*
X153457200Y-58224761D01*
X153457200Y-58224761D02*
X153409580Y-58177142D01*
X153409580Y-58177142D02*
X153266723Y-58081904D01*
X153266723Y-58081904D02*
X153076247Y-58034285D01*
X153076247Y-58034285D02*
X152695295Y-58034285D01*
X152695295Y-58034285D02*
X152600057Y-58081904D01*
X152600057Y-58081904D02*
X152552438Y-58129523D01*
X152552438Y-58129523D02*
X152504819Y-58224761D01*
X152504819Y-58224761D02*
X152504819Y-58415237D01*
X152504819Y-58415237D02*
X152552438Y-58510475D01*
X152552438Y-58510475D02*
X152600057Y-58558094D01*
X152600057Y-58558094D02*
X152695295Y-58605713D01*
X152695295Y-58605713D02*
X152933390Y-58605713D01*
X152933390Y-58605713D02*
X153028628Y-58558094D01*
X153028628Y-58558094D02*
X153076247Y-58510475D01*
X153076247Y-58510475D02*
X153123866Y-58415237D01*
X153123866Y-58415237D02*
X153123866Y-58224761D01*
X153123866Y-58224761D02*
X153076247Y-58129523D01*
X153076247Y-58129523D02*
X153028628Y-58081904D01*
X153028628Y-58081904D02*
X152933390Y-58034285D01*
X129583333Y-84359580D02*
X129535714Y-84407200D01*
X129535714Y-84407200D02*
X129392857Y-84454819D01*
X129392857Y-84454819D02*
X129297619Y-84454819D01*
X129297619Y-84454819D02*
X129154762Y-84407200D01*
X129154762Y-84407200D02*
X129059524Y-84311961D01*
X129059524Y-84311961D02*
X129011905Y-84216723D01*
X129011905Y-84216723D02*
X128964286Y-84026247D01*
X128964286Y-84026247D02*
X128964286Y-83883390D01*
X128964286Y-83883390D02*
X129011905Y-83692914D01*
X129011905Y-83692914D02*
X129059524Y-83597676D01*
X129059524Y-83597676D02*
X129154762Y-83502438D01*
X129154762Y-83502438D02*
X129297619Y-83454819D01*
X129297619Y-83454819D02*
X129392857Y-83454819D01*
X129392857Y-83454819D02*
X129535714Y-83502438D01*
X129535714Y-83502438D02*
X129583333Y-83550057D01*
X130535714Y-84454819D02*
X129964286Y-84454819D01*
X130250000Y-84454819D02*
X130250000Y-83454819D01*
X130250000Y-83454819D02*
X130154762Y-83597676D01*
X130154762Y-83597676D02*
X130059524Y-83692914D01*
X130059524Y-83692914D02*
X129964286Y-83740533D01*
X130283333Y-89309580D02*
X130235714Y-89357200D01*
X130235714Y-89357200D02*
X130092857Y-89404819D01*
X130092857Y-89404819D02*
X129997619Y-89404819D01*
X129997619Y-89404819D02*
X129854762Y-89357200D01*
X129854762Y-89357200D02*
X129759524Y-89261961D01*
X129759524Y-89261961D02*
X129711905Y-89166723D01*
X129711905Y-89166723D02*
X129664286Y-88976247D01*
X129664286Y-88976247D02*
X129664286Y-88833390D01*
X129664286Y-88833390D02*
X129711905Y-88642914D01*
X129711905Y-88642914D02*
X129759524Y-88547676D01*
X129759524Y-88547676D02*
X129854762Y-88452438D01*
X129854762Y-88452438D02*
X129997619Y-88404819D01*
X129997619Y-88404819D02*
X130092857Y-88404819D01*
X130092857Y-88404819D02*
X130235714Y-88452438D01*
X130235714Y-88452438D02*
X130283333Y-88500057D01*
X130616667Y-88404819D02*
X131235714Y-88404819D01*
X131235714Y-88404819D02*
X130902381Y-88785771D01*
X130902381Y-88785771D02*
X131045238Y-88785771D01*
X131045238Y-88785771D02*
X131140476Y-88833390D01*
X131140476Y-88833390D02*
X131188095Y-88881009D01*
X131188095Y-88881009D02*
X131235714Y-88976247D01*
X131235714Y-88976247D02*
X131235714Y-89214342D01*
X131235714Y-89214342D02*
X131188095Y-89309580D01*
X131188095Y-89309580D02*
X131140476Y-89357200D01*
X131140476Y-89357200D02*
X131045238Y-89404819D01*
X131045238Y-89404819D02*
X130759524Y-89404819D01*
X130759524Y-89404819D02*
X130664286Y-89357200D01*
X130664286Y-89357200D02*
X130616667Y-89309580D01*
X146483333Y-83565830D02*
X146435714Y-83613450D01*
X146435714Y-83613450D02*
X146292857Y-83661069D01*
X146292857Y-83661069D02*
X146197619Y-83661069D01*
X146197619Y-83661069D02*
X146054762Y-83613450D01*
X146054762Y-83613450D02*
X145959524Y-83518211D01*
X145959524Y-83518211D02*
X145911905Y-83422973D01*
X145911905Y-83422973D02*
X145864286Y-83232497D01*
X145864286Y-83232497D02*
X145864286Y-83089640D01*
X145864286Y-83089640D02*
X145911905Y-82899164D01*
X145911905Y-82899164D02*
X145959524Y-82803926D01*
X145959524Y-82803926D02*
X146054762Y-82708688D01*
X146054762Y-82708688D02*
X146197619Y-82661069D01*
X146197619Y-82661069D02*
X146292857Y-82661069D01*
X146292857Y-82661069D02*
X146435714Y-82708688D01*
X146435714Y-82708688D02*
X146483333Y-82756307D01*
X147340476Y-82994402D02*
X147340476Y-83661069D01*
X147102381Y-82613450D02*
X146864286Y-83327735D01*
X146864286Y-83327735D02*
X147483333Y-83327735D01*
X149509580Y-59066666D02*
X149557200Y-59114285D01*
X149557200Y-59114285D02*
X149604819Y-59257142D01*
X149604819Y-59257142D02*
X149604819Y-59352380D01*
X149604819Y-59352380D02*
X149557200Y-59495237D01*
X149557200Y-59495237D02*
X149461961Y-59590475D01*
X149461961Y-59590475D02*
X149366723Y-59638094D01*
X149366723Y-59638094D02*
X149176247Y-59685713D01*
X149176247Y-59685713D02*
X149033390Y-59685713D01*
X149033390Y-59685713D02*
X148842914Y-59638094D01*
X148842914Y-59638094D02*
X148747676Y-59590475D01*
X148747676Y-59590475D02*
X148652438Y-59495237D01*
X148652438Y-59495237D02*
X148604819Y-59352380D01*
X148604819Y-59352380D02*
X148604819Y-59257142D01*
X148604819Y-59257142D02*
X148652438Y-59114285D01*
X148652438Y-59114285D02*
X148700057Y-59066666D01*
X149033390Y-58495237D02*
X148985771Y-58590475D01*
X148985771Y-58590475D02*
X148938152Y-58638094D01*
X148938152Y-58638094D02*
X148842914Y-58685713D01*
X148842914Y-58685713D02*
X148795295Y-58685713D01*
X148795295Y-58685713D02*
X148700057Y-58638094D01*
X148700057Y-58638094D02*
X148652438Y-58590475D01*
X148652438Y-58590475D02*
X148604819Y-58495237D01*
X148604819Y-58495237D02*
X148604819Y-58304761D01*
X148604819Y-58304761D02*
X148652438Y-58209523D01*
X148652438Y-58209523D02*
X148700057Y-58161904D01*
X148700057Y-58161904D02*
X148795295Y-58114285D01*
X148795295Y-58114285D02*
X148842914Y-58114285D01*
X148842914Y-58114285D02*
X148938152Y-58161904D01*
X148938152Y-58161904D02*
X148985771Y-58209523D01*
X148985771Y-58209523D02*
X149033390Y-58304761D01*
X149033390Y-58304761D02*
X149033390Y-58495237D01*
X149033390Y-58495237D02*
X149081009Y-58590475D01*
X149081009Y-58590475D02*
X149128628Y-58638094D01*
X149128628Y-58638094D02*
X149223866Y-58685713D01*
X149223866Y-58685713D02*
X149414342Y-58685713D01*
X149414342Y-58685713D02*
X149509580Y-58638094D01*
X149509580Y-58638094D02*
X149557200Y-58590475D01*
X149557200Y-58590475D02*
X149604819Y-58495237D01*
X149604819Y-58495237D02*
X149604819Y-58304761D01*
X149604819Y-58304761D02*
X149557200Y-58209523D01*
X149557200Y-58209523D02*
X149509580Y-58161904D01*
X149509580Y-58161904D02*
X149414342Y-58114285D01*
X149414342Y-58114285D02*
X149223866Y-58114285D01*
X149223866Y-58114285D02*
X149128628Y-58161904D01*
X149128628Y-58161904D02*
X149081009Y-58209523D01*
X149081009Y-58209523D02*
X149033390Y-58304761D01*
X132809580Y-59266666D02*
X132857200Y-59314285D01*
X132857200Y-59314285D02*
X132904819Y-59457142D01*
X132904819Y-59457142D02*
X132904819Y-59552380D01*
X132904819Y-59552380D02*
X132857200Y-59695237D01*
X132857200Y-59695237D02*
X132761961Y-59790475D01*
X132761961Y-59790475D02*
X132666723Y-59838094D01*
X132666723Y-59838094D02*
X132476247Y-59885713D01*
X132476247Y-59885713D02*
X132333390Y-59885713D01*
X132333390Y-59885713D02*
X132142914Y-59838094D01*
X132142914Y-59838094D02*
X132047676Y-59790475D01*
X132047676Y-59790475D02*
X131952438Y-59695237D01*
X131952438Y-59695237D02*
X131904819Y-59552380D01*
X131904819Y-59552380D02*
X131904819Y-59457142D01*
X131904819Y-59457142D02*
X131952438Y-59314285D01*
X131952438Y-59314285D02*
X132000057Y-59266666D01*
X131904819Y-58933332D02*
X131904819Y-58266666D01*
X131904819Y-58266666D02*
X132904819Y-58695237D01*
X106657142Y-73904819D02*
X106180952Y-73904819D01*
X106180952Y-73904819D02*
X106180952Y-72904819D01*
X106990476Y-73381009D02*
X107323809Y-73381009D01*
X107466666Y-73904819D02*
X106990476Y-73904819D01*
X106990476Y-73904819D02*
X106990476Y-72904819D01*
X106990476Y-72904819D02*
X107466666Y-72904819D01*
X107895238Y-73904819D02*
X107895238Y-72904819D01*
X107895238Y-72904819D02*
X108133333Y-72904819D01*
X108133333Y-72904819D02*
X108276190Y-72952438D01*
X108276190Y-72952438D02*
X108371428Y-73047676D01*
X108371428Y-73047676D02*
X108419047Y-73142914D01*
X108419047Y-73142914D02*
X108466666Y-73333390D01*
X108466666Y-73333390D02*
X108466666Y-73476247D01*
X108466666Y-73476247D02*
X108419047Y-73666723D01*
X108419047Y-73666723D02*
X108371428Y-73761961D01*
X108371428Y-73761961D02*
X108276190Y-73857200D01*
X108276190Y-73857200D02*
X108133333Y-73904819D01*
X108133333Y-73904819D02*
X107895238Y-73904819D01*
X146433333Y-79574819D02*
X146100000Y-79098628D01*
X145861905Y-79574819D02*
X145861905Y-78574819D01*
X145861905Y-78574819D02*
X146242857Y-78574819D01*
X146242857Y-78574819D02*
X146338095Y-78622438D01*
X146338095Y-78622438D02*
X146385714Y-78670057D01*
X146385714Y-78670057D02*
X146433333Y-78765295D01*
X146433333Y-78765295D02*
X146433333Y-78908152D01*
X146433333Y-78908152D02*
X146385714Y-79003390D01*
X146385714Y-79003390D02*
X146338095Y-79051009D01*
X146338095Y-79051009D02*
X146242857Y-79098628D01*
X146242857Y-79098628D02*
X145861905Y-79098628D01*
X147338095Y-78574819D02*
X146861905Y-78574819D01*
X146861905Y-78574819D02*
X146814286Y-79051009D01*
X146814286Y-79051009D02*
X146861905Y-79003390D01*
X146861905Y-79003390D02*
X146957143Y-78955771D01*
X146957143Y-78955771D02*
X147195238Y-78955771D01*
X147195238Y-78955771D02*
X147290476Y-79003390D01*
X147290476Y-79003390D02*
X147338095Y-79051009D01*
X147338095Y-79051009D02*
X147385714Y-79146247D01*
X147385714Y-79146247D02*
X147385714Y-79384342D01*
X147385714Y-79384342D02*
X147338095Y-79479580D01*
X147338095Y-79479580D02*
X147290476Y-79527200D01*
X147290476Y-79527200D02*
X147195238Y-79574819D01*
X147195238Y-79574819D02*
X146957143Y-79574819D01*
X146957143Y-79574819D02*
X146861905Y-79527200D01*
X146861905Y-79527200D02*
X146814286Y-79479580D01*
X119983333Y-90254819D02*
X119650000Y-89778628D01*
X119411905Y-90254819D02*
X119411905Y-89254819D01*
X119411905Y-89254819D02*
X119792857Y-89254819D01*
X119792857Y-89254819D02*
X119888095Y-89302438D01*
X119888095Y-89302438D02*
X119935714Y-89350057D01*
X119935714Y-89350057D02*
X119983333Y-89445295D01*
X119983333Y-89445295D02*
X119983333Y-89588152D01*
X119983333Y-89588152D02*
X119935714Y-89683390D01*
X119935714Y-89683390D02*
X119888095Y-89731009D01*
X119888095Y-89731009D02*
X119792857Y-89778628D01*
X119792857Y-89778628D02*
X119411905Y-89778628D01*
X120364286Y-89350057D02*
X120411905Y-89302438D01*
X120411905Y-89302438D02*
X120507143Y-89254819D01*
X120507143Y-89254819D02*
X120745238Y-89254819D01*
X120745238Y-89254819D02*
X120840476Y-89302438D01*
X120840476Y-89302438D02*
X120888095Y-89350057D01*
X120888095Y-89350057D02*
X120935714Y-89445295D01*
X120935714Y-89445295D02*
X120935714Y-89540533D01*
X120935714Y-89540533D02*
X120888095Y-89683390D01*
X120888095Y-89683390D02*
X120316667Y-90254819D01*
X120316667Y-90254819D02*
X120935714Y-90254819D01*
X130683333Y-93354819D02*
X130350000Y-92878628D01*
X130111905Y-93354819D02*
X130111905Y-92354819D01*
X130111905Y-92354819D02*
X130492857Y-92354819D01*
X130492857Y-92354819D02*
X130588095Y-92402438D01*
X130588095Y-92402438D02*
X130635714Y-92450057D01*
X130635714Y-92450057D02*
X130683333Y-92545295D01*
X130683333Y-92545295D02*
X130683333Y-92688152D01*
X130683333Y-92688152D02*
X130635714Y-92783390D01*
X130635714Y-92783390D02*
X130588095Y-92831009D01*
X130588095Y-92831009D02*
X130492857Y-92878628D01*
X130492857Y-92878628D02*
X130111905Y-92878628D01*
X131540476Y-92688152D02*
X131540476Y-93354819D01*
X131302381Y-92307200D02*
X131064286Y-93021485D01*
X131064286Y-93021485D02*
X131683333Y-93021485D01*
X153854819Y-89566666D02*
X153378628Y-89899999D01*
X153854819Y-90138094D02*
X152854819Y-90138094D01*
X152854819Y-90138094D02*
X152854819Y-89757142D01*
X152854819Y-89757142D02*
X152902438Y-89661904D01*
X152902438Y-89661904D02*
X152950057Y-89614285D01*
X152950057Y-89614285D02*
X153045295Y-89566666D01*
X153045295Y-89566666D02*
X153188152Y-89566666D01*
X153188152Y-89566666D02*
X153283390Y-89614285D01*
X153283390Y-89614285D02*
X153331009Y-89661904D01*
X153331009Y-89661904D02*
X153378628Y-89757142D01*
X153378628Y-89757142D02*
X153378628Y-90138094D01*
X152854819Y-88709523D02*
X152854819Y-88899999D01*
X152854819Y-88899999D02*
X152902438Y-88995237D01*
X152902438Y-88995237D02*
X152950057Y-89042856D01*
X152950057Y-89042856D02*
X153092914Y-89138094D01*
X153092914Y-89138094D02*
X153283390Y-89185713D01*
X153283390Y-89185713D02*
X153664342Y-89185713D01*
X153664342Y-89185713D02*
X153759580Y-89138094D01*
X153759580Y-89138094D02*
X153807200Y-89090475D01*
X153807200Y-89090475D02*
X153854819Y-88995237D01*
X153854819Y-88995237D02*
X153854819Y-88804761D01*
X153854819Y-88804761D02*
X153807200Y-88709523D01*
X153807200Y-88709523D02*
X153759580Y-88661904D01*
X153759580Y-88661904D02*
X153664342Y-88614285D01*
X153664342Y-88614285D02*
X153426247Y-88614285D01*
X153426247Y-88614285D02*
X153331009Y-88661904D01*
X153331009Y-88661904D02*
X153283390Y-88709523D01*
X153283390Y-88709523D02*
X153235771Y-88804761D01*
X153235771Y-88804761D02*
X153235771Y-88995237D01*
X153235771Y-88995237D02*
X153283390Y-89090475D01*
X153283390Y-89090475D02*
X153331009Y-89138094D01*
X153331009Y-89138094D02*
X153426247Y-89185713D01*
X139734819Y-59532857D02*
X139258628Y-59866190D01*
X139734819Y-60104285D02*
X138734819Y-60104285D01*
X138734819Y-60104285D02*
X138734819Y-59723333D01*
X138734819Y-59723333D02*
X138782438Y-59628095D01*
X138782438Y-59628095D02*
X138830057Y-59580476D01*
X138830057Y-59580476D02*
X138925295Y-59532857D01*
X138925295Y-59532857D02*
X139068152Y-59532857D01*
X139068152Y-59532857D02*
X139163390Y-59580476D01*
X139163390Y-59580476D02*
X139211009Y-59628095D01*
X139211009Y-59628095D02*
X139258628Y-59723333D01*
X139258628Y-59723333D02*
X139258628Y-60104285D01*
X139734819Y-58580476D02*
X139734819Y-59151904D01*
X139734819Y-58866190D02*
X138734819Y-58866190D01*
X138734819Y-58866190D02*
X138877676Y-58961428D01*
X138877676Y-58961428D02*
X138972914Y-59056666D01*
X138972914Y-59056666D02*
X139020533Y-59151904D01*
X138734819Y-57961428D02*
X138734819Y-57866190D01*
X138734819Y-57866190D02*
X138782438Y-57770952D01*
X138782438Y-57770952D02*
X138830057Y-57723333D01*
X138830057Y-57723333D02*
X138925295Y-57675714D01*
X138925295Y-57675714D02*
X139115771Y-57628095D01*
X139115771Y-57628095D02*
X139353866Y-57628095D01*
X139353866Y-57628095D02*
X139544342Y-57675714D01*
X139544342Y-57675714D02*
X139639580Y-57723333D01*
X139639580Y-57723333D02*
X139687200Y-57770952D01*
X139687200Y-57770952D02*
X139734819Y-57866190D01*
X139734819Y-57866190D02*
X139734819Y-57961428D01*
X139734819Y-57961428D02*
X139687200Y-58056666D01*
X139687200Y-58056666D02*
X139639580Y-58104285D01*
X139639580Y-58104285D02*
X139544342Y-58151904D01*
X139544342Y-58151904D02*
X139353866Y-58199523D01*
X139353866Y-58199523D02*
X139115771Y-58199523D01*
X139115771Y-58199523D02*
X138925295Y-58151904D01*
X138925295Y-58151904D02*
X138830057Y-58104285D01*
X138830057Y-58104285D02*
X138782438Y-58056666D01*
X138782438Y-58056666D02*
X138734819Y-57961428D01*
X136454819Y-81966666D02*
X135978628Y-82299999D01*
X136454819Y-82538094D02*
X135454819Y-82538094D01*
X135454819Y-82538094D02*
X135454819Y-82157142D01*
X135454819Y-82157142D02*
X135502438Y-82061904D01*
X135502438Y-82061904D02*
X135550057Y-82014285D01*
X135550057Y-82014285D02*
X135645295Y-81966666D01*
X135645295Y-81966666D02*
X135788152Y-81966666D01*
X135788152Y-81966666D02*
X135883390Y-82014285D01*
X135883390Y-82014285D02*
X135931009Y-82061904D01*
X135931009Y-82061904D02*
X135978628Y-82157142D01*
X135978628Y-82157142D02*
X135978628Y-82538094D01*
X135454819Y-81633332D02*
X135454819Y-81014285D01*
X135454819Y-81014285D02*
X135835771Y-81347618D01*
X135835771Y-81347618D02*
X135835771Y-81204761D01*
X135835771Y-81204761D02*
X135883390Y-81109523D01*
X135883390Y-81109523D02*
X135931009Y-81061904D01*
X135931009Y-81061904D02*
X136026247Y-81014285D01*
X136026247Y-81014285D02*
X136264342Y-81014285D01*
X136264342Y-81014285D02*
X136359580Y-81061904D01*
X136359580Y-81061904D02*
X136407200Y-81109523D01*
X136407200Y-81109523D02*
X136454819Y-81204761D01*
X136454819Y-81204761D02*
X136454819Y-81490475D01*
X136454819Y-81490475D02*
X136407200Y-81585713D01*
X136407200Y-81585713D02*
X136359580Y-81633332D01*
X120093333Y-93404819D02*
X119760000Y-92928628D01*
X119521905Y-93404819D02*
X119521905Y-92404819D01*
X119521905Y-92404819D02*
X119902857Y-92404819D01*
X119902857Y-92404819D02*
X119998095Y-92452438D01*
X119998095Y-92452438D02*
X120045714Y-92500057D01*
X120045714Y-92500057D02*
X120093333Y-92595295D01*
X120093333Y-92595295D02*
X120093333Y-92738152D01*
X120093333Y-92738152D02*
X120045714Y-92833390D01*
X120045714Y-92833390D02*
X119998095Y-92881009D01*
X119998095Y-92881009D02*
X119902857Y-92928628D01*
X119902857Y-92928628D02*
X119521905Y-92928628D01*
X120426667Y-92404819D02*
X121093333Y-92404819D01*
X121093333Y-92404819D02*
X120664762Y-93404819D01*
X159216667Y-66757200D02*
X159359524Y-66804819D01*
X159359524Y-66804819D02*
X159597619Y-66804819D01*
X159597619Y-66804819D02*
X159692857Y-66757200D01*
X159692857Y-66757200D02*
X159740476Y-66709580D01*
X159740476Y-66709580D02*
X159788095Y-66614342D01*
X159788095Y-66614342D02*
X159788095Y-66519104D01*
X159788095Y-66519104D02*
X159740476Y-66423866D01*
X159740476Y-66423866D02*
X159692857Y-66376247D01*
X159692857Y-66376247D02*
X159597619Y-66328628D01*
X159597619Y-66328628D02*
X159407143Y-66281009D01*
X159407143Y-66281009D02*
X159311905Y-66233390D01*
X159311905Y-66233390D02*
X159264286Y-66185771D01*
X159264286Y-66185771D02*
X159216667Y-66090533D01*
X159216667Y-66090533D02*
X159216667Y-65995295D01*
X159216667Y-65995295D02*
X159264286Y-65900057D01*
X159264286Y-65900057D02*
X159311905Y-65852438D01*
X159311905Y-65852438D02*
X159407143Y-65804819D01*
X159407143Y-65804819D02*
X159645238Y-65804819D01*
X159645238Y-65804819D02*
X159788095Y-65852438D01*
X160121429Y-65804819D02*
X160359524Y-66804819D01*
X160359524Y-66804819D02*
X160550000Y-66090533D01*
X160550000Y-66090533D02*
X160740476Y-66804819D01*
X160740476Y-66804819D02*
X160978572Y-65804819D01*
X161311905Y-65900057D02*
X161359524Y-65852438D01*
X161359524Y-65852438D02*
X161454762Y-65804819D01*
X161454762Y-65804819D02*
X161692857Y-65804819D01*
X161692857Y-65804819D02*
X161788095Y-65852438D01*
X161788095Y-65852438D02*
X161835714Y-65900057D01*
X161835714Y-65900057D02*
X161883333Y-65995295D01*
X161883333Y-65995295D02*
X161883333Y-66090533D01*
X161883333Y-66090533D02*
X161835714Y-66233390D01*
X161835714Y-66233390D02*
X161264286Y-66804819D01*
X161264286Y-66804819D02*
X161883333Y-66804819D01*
X146104819Y-59552857D02*
X145628628Y-59886190D01*
X146104819Y-60124285D02*
X145104819Y-60124285D01*
X145104819Y-60124285D02*
X145104819Y-59743333D01*
X145104819Y-59743333D02*
X145152438Y-59648095D01*
X145152438Y-59648095D02*
X145200057Y-59600476D01*
X145200057Y-59600476D02*
X145295295Y-59552857D01*
X145295295Y-59552857D02*
X145438152Y-59552857D01*
X145438152Y-59552857D02*
X145533390Y-59600476D01*
X145533390Y-59600476D02*
X145581009Y-59648095D01*
X145581009Y-59648095D02*
X145628628Y-59743333D01*
X145628628Y-59743333D02*
X145628628Y-60124285D01*
X146104819Y-58600476D02*
X146104819Y-59171904D01*
X146104819Y-58886190D02*
X145104819Y-58886190D01*
X145104819Y-58886190D02*
X145247676Y-58981428D01*
X145247676Y-58981428D02*
X145342914Y-59076666D01*
X145342914Y-59076666D02*
X145390533Y-59171904D01*
X145104819Y-58267142D02*
X145104819Y-57648095D01*
X145104819Y-57648095D02*
X145485771Y-57981428D01*
X145485771Y-57981428D02*
X145485771Y-57838571D01*
X145485771Y-57838571D02*
X145533390Y-57743333D01*
X145533390Y-57743333D02*
X145581009Y-57695714D01*
X145581009Y-57695714D02*
X145676247Y-57648095D01*
X145676247Y-57648095D02*
X145914342Y-57648095D01*
X145914342Y-57648095D02*
X146009580Y-57695714D01*
X146009580Y-57695714D02*
X146057200Y-57743333D01*
X146057200Y-57743333D02*
X146104819Y-57838571D01*
X146104819Y-57838571D02*
X146104819Y-58124285D01*
X146104819Y-58124285D02*
X146057200Y-58219523D01*
X146057200Y-58219523D02*
X146009580Y-58267142D01*
X126404819Y-56856666D02*
X125928628Y-57189999D01*
X126404819Y-57428094D02*
X125404819Y-57428094D01*
X125404819Y-57428094D02*
X125404819Y-57047142D01*
X125404819Y-57047142D02*
X125452438Y-56951904D01*
X125452438Y-56951904D02*
X125500057Y-56904285D01*
X125500057Y-56904285D02*
X125595295Y-56856666D01*
X125595295Y-56856666D02*
X125738152Y-56856666D01*
X125738152Y-56856666D02*
X125833390Y-56904285D01*
X125833390Y-56904285D02*
X125881009Y-56951904D01*
X125881009Y-56951904D02*
X125928628Y-57047142D01*
X125928628Y-57047142D02*
X125928628Y-57428094D01*
X126404819Y-56380475D02*
X126404819Y-56189999D01*
X126404819Y-56189999D02*
X126357200Y-56094761D01*
X126357200Y-56094761D02*
X126309580Y-56047142D01*
X126309580Y-56047142D02*
X126166723Y-55951904D01*
X126166723Y-55951904D02*
X125976247Y-55904285D01*
X125976247Y-55904285D02*
X125595295Y-55904285D01*
X125595295Y-55904285D02*
X125500057Y-55951904D01*
X125500057Y-55951904D02*
X125452438Y-55999523D01*
X125452438Y-55999523D02*
X125404819Y-56094761D01*
X125404819Y-56094761D02*
X125404819Y-56285237D01*
X125404819Y-56285237D02*
X125452438Y-56380475D01*
X125452438Y-56380475D02*
X125500057Y-56428094D01*
X125500057Y-56428094D02*
X125595295Y-56475713D01*
X125595295Y-56475713D02*
X125833390Y-56475713D01*
X125833390Y-56475713D02*
X125928628Y-56428094D01*
X125928628Y-56428094D02*
X125976247Y-56380475D01*
X125976247Y-56380475D02*
X126023866Y-56285237D01*
X126023866Y-56285237D02*
X126023866Y-56094761D01*
X126023866Y-56094761D02*
X125976247Y-55999523D01*
X125976247Y-55999523D02*
X125928628Y-55951904D01*
X125928628Y-55951904D02*
X125833390Y-55904285D01*
X136484819Y-59542857D02*
X136008628Y-59876190D01*
X136484819Y-60114285D02*
X135484819Y-60114285D01*
X135484819Y-60114285D02*
X135484819Y-59733333D01*
X135484819Y-59733333D02*
X135532438Y-59638095D01*
X135532438Y-59638095D02*
X135580057Y-59590476D01*
X135580057Y-59590476D02*
X135675295Y-59542857D01*
X135675295Y-59542857D02*
X135818152Y-59542857D01*
X135818152Y-59542857D02*
X135913390Y-59590476D01*
X135913390Y-59590476D02*
X135961009Y-59638095D01*
X135961009Y-59638095D02*
X136008628Y-59733333D01*
X136008628Y-59733333D02*
X136008628Y-60114285D01*
X136484819Y-58590476D02*
X136484819Y-59161904D01*
X136484819Y-58876190D02*
X135484819Y-58876190D01*
X135484819Y-58876190D02*
X135627676Y-58971428D01*
X135627676Y-58971428D02*
X135722914Y-59066666D01*
X135722914Y-59066666D02*
X135770533Y-59161904D01*
X136484819Y-57638095D02*
X136484819Y-58209523D01*
X136484819Y-57923809D02*
X135484819Y-57923809D01*
X135484819Y-57923809D02*
X135627676Y-58019047D01*
X135627676Y-58019047D02*
X135722914Y-58114285D01*
X135722914Y-58114285D02*
X135770533Y-58209523D01*
X159416667Y-80807200D02*
X159559524Y-80854819D01*
X159559524Y-80854819D02*
X159797619Y-80854819D01*
X159797619Y-80854819D02*
X159892857Y-80807200D01*
X159892857Y-80807200D02*
X159940476Y-80759580D01*
X159940476Y-80759580D02*
X159988095Y-80664342D01*
X159988095Y-80664342D02*
X159988095Y-80569104D01*
X159988095Y-80569104D02*
X159940476Y-80473866D01*
X159940476Y-80473866D02*
X159892857Y-80426247D01*
X159892857Y-80426247D02*
X159797619Y-80378628D01*
X159797619Y-80378628D02*
X159607143Y-80331009D01*
X159607143Y-80331009D02*
X159511905Y-80283390D01*
X159511905Y-80283390D02*
X159464286Y-80235771D01*
X159464286Y-80235771D02*
X159416667Y-80140533D01*
X159416667Y-80140533D02*
X159416667Y-80045295D01*
X159416667Y-80045295D02*
X159464286Y-79950057D01*
X159464286Y-79950057D02*
X159511905Y-79902438D01*
X159511905Y-79902438D02*
X159607143Y-79854819D01*
X159607143Y-79854819D02*
X159845238Y-79854819D01*
X159845238Y-79854819D02*
X159988095Y-79902438D01*
X160321429Y-79854819D02*
X160559524Y-80854819D01*
X160559524Y-80854819D02*
X160750000Y-80140533D01*
X160750000Y-80140533D02*
X160940476Y-80854819D01*
X160940476Y-80854819D02*
X161178572Y-79854819D01*
X162083333Y-80854819D02*
X161511905Y-80854819D01*
X161797619Y-80854819D02*
X161797619Y-79854819D01*
X161797619Y-79854819D02*
X161702381Y-79997676D01*
X161702381Y-79997676D02*
X161607143Y-80092914D01*
X161607143Y-80092914D02*
X161511905Y-80140533D01*
X142904819Y-59542857D02*
X142428628Y-59876190D01*
X142904819Y-60114285D02*
X141904819Y-60114285D01*
X141904819Y-60114285D02*
X141904819Y-59733333D01*
X141904819Y-59733333D02*
X141952438Y-59638095D01*
X141952438Y-59638095D02*
X142000057Y-59590476D01*
X142000057Y-59590476D02*
X142095295Y-59542857D01*
X142095295Y-59542857D02*
X142238152Y-59542857D01*
X142238152Y-59542857D02*
X142333390Y-59590476D01*
X142333390Y-59590476D02*
X142381009Y-59638095D01*
X142381009Y-59638095D02*
X142428628Y-59733333D01*
X142428628Y-59733333D02*
X142428628Y-60114285D01*
X142904819Y-58590476D02*
X142904819Y-59161904D01*
X142904819Y-58876190D02*
X141904819Y-58876190D01*
X141904819Y-58876190D02*
X142047676Y-58971428D01*
X142047676Y-58971428D02*
X142142914Y-59066666D01*
X142142914Y-59066666D02*
X142190533Y-59161904D01*
X142000057Y-58209523D02*
X141952438Y-58161904D01*
X141952438Y-58161904D02*
X141904819Y-58066666D01*
X141904819Y-58066666D02*
X141904819Y-57828571D01*
X141904819Y-57828571D02*
X141952438Y-57733333D01*
X141952438Y-57733333D02*
X142000057Y-57685714D01*
X142000057Y-57685714D02*
X142095295Y-57638095D01*
X142095295Y-57638095D02*
X142190533Y-57638095D01*
X142190533Y-57638095D02*
X142333390Y-57685714D01*
X142333390Y-57685714D02*
X142904819Y-58257142D01*
X142904819Y-58257142D02*
X142904819Y-57638095D01*
X120033333Y-87154819D02*
X119700000Y-86678628D01*
X119461905Y-87154819D02*
X119461905Y-86154819D01*
X119461905Y-86154819D02*
X119842857Y-86154819D01*
X119842857Y-86154819D02*
X119938095Y-86202438D01*
X119938095Y-86202438D02*
X119985714Y-86250057D01*
X119985714Y-86250057D02*
X120033333Y-86345295D01*
X120033333Y-86345295D02*
X120033333Y-86488152D01*
X120033333Y-86488152D02*
X119985714Y-86583390D01*
X119985714Y-86583390D02*
X119938095Y-86631009D01*
X119938095Y-86631009D02*
X119842857Y-86678628D01*
X119842857Y-86678628D02*
X119461905Y-86678628D01*
X120604762Y-86583390D02*
X120509524Y-86535771D01*
X120509524Y-86535771D02*
X120461905Y-86488152D01*
X120461905Y-86488152D02*
X120414286Y-86392914D01*
X120414286Y-86392914D02*
X120414286Y-86345295D01*
X120414286Y-86345295D02*
X120461905Y-86250057D01*
X120461905Y-86250057D02*
X120509524Y-86202438D01*
X120509524Y-86202438D02*
X120604762Y-86154819D01*
X120604762Y-86154819D02*
X120795238Y-86154819D01*
X120795238Y-86154819D02*
X120890476Y-86202438D01*
X120890476Y-86202438D02*
X120938095Y-86250057D01*
X120938095Y-86250057D02*
X120985714Y-86345295D01*
X120985714Y-86345295D02*
X120985714Y-86392914D01*
X120985714Y-86392914D02*
X120938095Y-86488152D01*
X120938095Y-86488152D02*
X120890476Y-86535771D01*
X120890476Y-86535771D02*
X120795238Y-86583390D01*
X120795238Y-86583390D02*
X120604762Y-86583390D01*
X120604762Y-86583390D02*
X120509524Y-86631009D01*
X120509524Y-86631009D02*
X120461905Y-86678628D01*
X120461905Y-86678628D02*
X120414286Y-86773866D01*
X120414286Y-86773866D02*
X120414286Y-86964342D01*
X120414286Y-86964342D02*
X120461905Y-87059580D01*
X120461905Y-87059580D02*
X120509524Y-87107200D01*
X120509524Y-87107200D02*
X120604762Y-87154819D01*
X120604762Y-87154819D02*
X120795238Y-87154819D01*
X120795238Y-87154819D02*
X120890476Y-87107200D01*
X120890476Y-87107200D02*
X120938095Y-87059580D01*
X120938095Y-87059580D02*
X120985714Y-86964342D01*
X120985714Y-86964342D02*
X120985714Y-86773866D01*
X120985714Y-86773866D02*
X120938095Y-86678628D01*
X120938095Y-86678628D02*
X120890476Y-86631009D01*
X120890476Y-86631009D02*
X120795238Y-86583390D01*
X114623866Y-95499999D02*
X114623866Y-94738095D01*
X115004819Y-95119047D02*
X114242914Y-95119047D01*
X114100057Y-94309523D02*
X114052438Y-94261904D01*
X114052438Y-94261904D02*
X114004819Y-94166666D01*
X114004819Y-94166666D02*
X114004819Y-93928571D01*
X114004819Y-93928571D02*
X114052438Y-93833333D01*
X114052438Y-93833333D02*
X114100057Y-93785714D01*
X114100057Y-93785714D02*
X114195295Y-93738095D01*
X114195295Y-93738095D02*
X114290533Y-93738095D01*
X114290533Y-93738095D02*
X114433390Y-93785714D01*
X114433390Y-93785714D02*
X115004819Y-94357142D01*
X115004819Y-94357142D02*
X115004819Y-93738095D01*
X114909580Y-93309523D02*
X114957200Y-93261904D01*
X114957200Y-93261904D02*
X115004819Y-93309523D01*
X115004819Y-93309523D02*
X114957200Y-93357142D01*
X114957200Y-93357142D02*
X114909580Y-93309523D01*
X114909580Y-93309523D02*
X115004819Y-93309523D01*
X114004819Y-92357143D02*
X114004819Y-92833333D01*
X114004819Y-92833333D02*
X114481009Y-92880952D01*
X114481009Y-92880952D02*
X114433390Y-92833333D01*
X114433390Y-92833333D02*
X114385771Y-92738095D01*
X114385771Y-92738095D02*
X114385771Y-92500000D01*
X114385771Y-92500000D02*
X114433390Y-92404762D01*
X114433390Y-92404762D02*
X114481009Y-92357143D01*
X114481009Y-92357143D02*
X114576247Y-92309524D01*
X114576247Y-92309524D02*
X114814342Y-92309524D01*
X114814342Y-92309524D02*
X114909580Y-92357143D01*
X114909580Y-92357143D02*
X114957200Y-92404762D01*
X114957200Y-92404762D02*
X115004819Y-92500000D01*
X115004819Y-92500000D02*
X115004819Y-92738095D01*
X115004819Y-92738095D02*
X114957200Y-92833333D01*
X114957200Y-92833333D02*
X114909580Y-92880952D01*
X114004819Y-92023809D02*
X115004819Y-91690476D01*
X115004819Y-91690476D02*
X114004819Y-91357143D01*
X140154761Y-87954819D02*
X139821428Y-87478628D01*
X139583333Y-87954819D02*
X139583333Y-86954819D01*
X139583333Y-86954819D02*
X139964285Y-86954819D01*
X139964285Y-86954819D02*
X140059523Y-87002438D01*
X140059523Y-87002438D02*
X140107142Y-87050057D01*
X140107142Y-87050057D02*
X140154761Y-87145295D01*
X140154761Y-87145295D02*
X140154761Y-87288152D01*
X140154761Y-87288152D02*
X140107142Y-87383390D01*
X140107142Y-87383390D02*
X140059523Y-87431009D01*
X140059523Y-87431009D02*
X139964285Y-87478628D01*
X139964285Y-87478628D02*
X139583333Y-87478628D01*
X140440476Y-86954819D02*
X140773809Y-87954819D01*
X140773809Y-87954819D02*
X141107142Y-86954819D01*
X141964285Y-87954819D02*
X141392857Y-87954819D01*
X141678571Y-87954819D02*
X141678571Y-86954819D01*
X141678571Y-86954819D02*
X141583333Y-87097676D01*
X141583333Y-87097676D02*
X141488095Y-87192914D01*
X141488095Y-87192914D02*
X141392857Y-87240533D01*
X114388095Y-55202438D02*
X114292857Y-55154819D01*
X114292857Y-55154819D02*
X114150000Y-55154819D01*
X114150000Y-55154819D02*
X114007143Y-55202438D01*
X114007143Y-55202438D02*
X113911905Y-55297676D01*
X113911905Y-55297676D02*
X113864286Y-55392914D01*
X113864286Y-55392914D02*
X113816667Y-55583390D01*
X113816667Y-55583390D02*
X113816667Y-55726247D01*
X113816667Y-55726247D02*
X113864286Y-55916723D01*
X113864286Y-55916723D02*
X113911905Y-56011961D01*
X113911905Y-56011961D02*
X114007143Y-56107200D01*
X114007143Y-56107200D02*
X114150000Y-56154819D01*
X114150000Y-56154819D02*
X114245238Y-56154819D01*
X114245238Y-56154819D02*
X114388095Y-56107200D01*
X114388095Y-56107200D02*
X114435714Y-56059580D01*
X114435714Y-56059580D02*
X114435714Y-55726247D01*
X114435714Y-55726247D02*
X114245238Y-55726247D01*
X114864286Y-56154819D02*
X114864286Y-55154819D01*
X114864286Y-55154819D02*
X115435714Y-56154819D01*
X115435714Y-56154819D02*
X115435714Y-55154819D01*
X115911905Y-56154819D02*
X115911905Y-55154819D01*
X115911905Y-55154819D02*
X116150000Y-55154819D01*
X116150000Y-55154819D02*
X116292857Y-55202438D01*
X116292857Y-55202438D02*
X116388095Y-55297676D01*
X116388095Y-55297676D02*
X116435714Y-55392914D01*
X116435714Y-55392914D02*
X116483333Y-55583390D01*
X116483333Y-55583390D02*
X116483333Y-55726247D01*
X116483333Y-55726247D02*
X116435714Y-55916723D01*
X116435714Y-55916723D02*
X116388095Y-56011961D01*
X116388095Y-56011961D02*
X116292857Y-56107200D01*
X116292857Y-56107200D02*
X116150000Y-56154819D01*
X116150000Y-56154819D02*
X115911905Y-56154819D01*
X131292800Y-67385714D02*
X131245180Y-67528571D01*
X131245180Y-67528571D02*
X131245180Y-67766666D01*
X131245180Y-67766666D02*
X131292800Y-67861904D01*
X131292800Y-67861904D02*
X131340419Y-67909523D01*
X131340419Y-67909523D02*
X131435657Y-67957142D01*
X131435657Y-67957142D02*
X131530895Y-67957142D01*
X131530895Y-67957142D02*
X131626133Y-67909523D01*
X131626133Y-67909523D02*
X131673752Y-67861904D01*
X131673752Y-67861904D02*
X131721371Y-67766666D01*
X131721371Y-67766666D02*
X131768990Y-67576190D01*
X131768990Y-67576190D02*
X131816609Y-67480952D01*
X131816609Y-67480952D02*
X131864228Y-67433333D01*
X131864228Y-67433333D02*
X131959466Y-67385714D01*
X131959466Y-67385714D02*
X132054704Y-67385714D01*
X132054704Y-67385714D02*
X132149942Y-67433333D01*
X132149942Y-67433333D02*
X132197561Y-67480952D01*
X132197561Y-67480952D02*
X132245180Y-67576190D01*
X132245180Y-67576190D02*
X132245180Y-67814285D01*
X132245180Y-67814285D02*
X132197561Y-67957142D01*
X132245180Y-68290476D02*
X131245180Y-68528571D01*
X131245180Y-68528571D02*
X131959466Y-68719047D01*
X131959466Y-68719047D02*
X131245180Y-68909523D01*
X131245180Y-68909523D02*
X132245180Y-69147619D01*
X131245180Y-69528571D02*
X132245180Y-69528571D01*
X132245180Y-69861904D02*
X132245180Y-70433332D01*
X131245180Y-70147618D02*
X132245180Y-70147618D01*
X131340419Y-71338094D02*
X131292800Y-71290475D01*
X131292800Y-71290475D02*
X131245180Y-71147618D01*
X131245180Y-71147618D02*
X131245180Y-71052380D01*
X131245180Y-71052380D02*
X131292800Y-70909523D01*
X131292800Y-70909523D02*
X131388038Y-70814285D01*
X131388038Y-70814285D02*
X131483276Y-70766666D01*
X131483276Y-70766666D02*
X131673752Y-70719047D01*
X131673752Y-70719047D02*
X131816609Y-70719047D01*
X131816609Y-70719047D02*
X132007085Y-70766666D01*
X132007085Y-70766666D02*
X132102323Y-70814285D01*
X132102323Y-70814285D02*
X132197561Y-70909523D01*
X132197561Y-70909523D02*
X132245180Y-71052380D01*
X132245180Y-71052380D02*
X132245180Y-71147618D01*
X132245180Y-71147618D02*
X132197561Y-71290475D01*
X132197561Y-71290475D02*
X132149942Y-71338094D01*
X131245180Y-71766666D02*
X132245180Y-71766666D01*
X131768990Y-71766666D02*
X131768990Y-72338094D01*
X131245180Y-72338094D02*
X132245180Y-72338094D01*
X131149942Y-72576190D02*
X131149942Y-73338094D01*
X132245180Y-73480952D02*
X132245180Y-74099999D01*
X132245180Y-74099999D02*
X131864228Y-73766666D01*
X131864228Y-73766666D02*
X131864228Y-73909523D01*
X131864228Y-73909523D02*
X131816609Y-74004761D01*
X131816609Y-74004761D02*
X131768990Y-74052380D01*
X131768990Y-74052380D02*
X131673752Y-74099999D01*
X131673752Y-74099999D02*
X131435657Y-74099999D01*
X131435657Y-74099999D02*
X131340419Y-74052380D01*
X131340419Y-74052380D02*
X131292800Y-74004761D01*
X131292800Y-74004761D02*
X131245180Y-73909523D01*
X131245180Y-73909523D02*
X131245180Y-73623809D01*
X131245180Y-73623809D02*
X131292800Y-73528571D01*
X131292800Y-73528571D02*
X131340419Y-73480952D01*
X131245180Y-74528571D02*
X132245180Y-74528571D01*
X132245180Y-74528571D02*
X132245180Y-74909523D01*
X132245180Y-74909523D02*
X132197561Y-75004761D01*
X132197561Y-75004761D02*
X132149942Y-75052380D01*
X132149942Y-75052380D02*
X132054704Y-75099999D01*
X132054704Y-75099999D02*
X131911847Y-75099999D01*
X131911847Y-75099999D02*
X131816609Y-75052380D01*
X131816609Y-75052380D02*
X131768990Y-75004761D01*
X131768990Y-75004761D02*
X131721371Y-74909523D01*
X131721371Y-74909523D02*
X131721371Y-74528571D01*
X131245180Y-75528571D02*
X132245180Y-75528571D01*
X132245180Y-75528571D02*
X132245180Y-75766666D01*
X132245180Y-75766666D02*
X132197561Y-75909523D01*
X132197561Y-75909523D02*
X132102323Y-76004761D01*
X132102323Y-76004761D02*
X132007085Y-76052380D01*
X132007085Y-76052380D02*
X131816609Y-76099999D01*
X131816609Y-76099999D02*
X131673752Y-76099999D01*
X131673752Y-76099999D02*
X131483276Y-76052380D01*
X131483276Y-76052380D02*
X131388038Y-76004761D01*
X131388038Y-76004761D02*
X131292800Y-75909523D01*
X131292800Y-75909523D02*
X131245180Y-75766666D01*
X131245180Y-75766666D02*
X131245180Y-75528571D01*
X132245180Y-76385714D02*
X132245180Y-76957142D01*
X131245180Y-76671428D02*
X132245180Y-76671428D01*
X131245180Y-77814285D02*
X131245180Y-77242857D01*
X131245180Y-77528571D02*
X132245180Y-77528571D01*
X132245180Y-77528571D02*
X132102323Y-77433333D01*
X132102323Y-77433333D02*
X132007085Y-77338095D01*
X132007085Y-77338095D02*
X131959466Y-77242857D01*
X122464286Y-99273866D02*
X123226191Y-99273866D01*
X122845238Y-99654819D02*
X122845238Y-98892914D01*
X124178571Y-98654819D02*
X123702381Y-98654819D01*
X123702381Y-98654819D02*
X123654762Y-99131009D01*
X123654762Y-99131009D02*
X123702381Y-99083390D01*
X123702381Y-99083390D02*
X123797619Y-99035771D01*
X123797619Y-99035771D02*
X124035714Y-99035771D01*
X124035714Y-99035771D02*
X124130952Y-99083390D01*
X124130952Y-99083390D02*
X124178571Y-99131009D01*
X124178571Y-99131009D02*
X124226190Y-99226247D01*
X124226190Y-99226247D02*
X124226190Y-99464342D01*
X124226190Y-99464342D02*
X124178571Y-99559580D01*
X124178571Y-99559580D02*
X124130952Y-99607200D01*
X124130952Y-99607200D02*
X124035714Y-99654819D01*
X124035714Y-99654819D02*
X123797619Y-99654819D01*
X123797619Y-99654819D02*
X123702381Y-99607200D01*
X123702381Y-99607200D02*
X123654762Y-99559580D01*
X124511905Y-98654819D02*
X124845238Y-99654819D01*
X124845238Y-99654819D02*
X125178571Y-98654819D01*
X147454819Y-66261904D02*
X148264342Y-66261904D01*
X148264342Y-66261904D02*
X148359580Y-66214285D01*
X148359580Y-66214285D02*
X148407200Y-66166666D01*
X148407200Y-66166666D02*
X148454819Y-66071428D01*
X148454819Y-66071428D02*
X148454819Y-65880952D01*
X148454819Y-65880952D02*
X148407200Y-65785714D01*
X148407200Y-65785714D02*
X148359580Y-65738095D01*
X148359580Y-65738095D02*
X148264342Y-65690476D01*
X148264342Y-65690476D02*
X147454819Y-65690476D01*
X148454819Y-64690476D02*
X148454819Y-65261904D01*
X148454819Y-64976190D02*
X147454819Y-64976190D01*
X147454819Y-64976190D02*
X147597676Y-65071428D01*
X147597676Y-65071428D02*
X147692914Y-65166666D01*
X147692914Y-65166666D02*
X147740533Y-65261904D01*
D14*
X155150000Y-75550000D02*
G75*
G02*
X154950000Y-75550000I-100000J0D01*
G01*
X154950000Y-75550000D02*
G75*
G02*
X155150000Y-75550000I100000J0D01*
G01*
D16*
X166100000Y-74880000D02*
X153400000Y-74880000D01*
X166100000Y-68020000D02*
X166100000Y-74880000D01*
X153400000Y-68020000D02*
X166100000Y-68020000D01*
X153400000Y-74880000D02*
X153400000Y-68020000D01*
D17*
X137170000Y-68000000D02*
G75*
G02*
X132930000Y-68000000I-2120000J0D01*
G01*
X132930000Y-68000000D02*
G75*
G02*
X137170000Y-68000000I2120000J0D01*
G01*
X132970000Y-68370000D02*
X132970000Y-67630000D01*
X133010000Y-68537000D02*
X133010000Y-67463000D01*
X133050000Y-68663000D02*
X133050000Y-67337000D01*
X133090000Y-68768000D02*
X133090000Y-67232000D01*
X133130000Y-68859000D02*
X133130000Y-67141000D01*
X133170000Y-68940000D02*
X133170000Y-67060000D01*
X133210000Y-69013000D02*
X133210000Y-66987000D01*
X133250000Y-69080000D02*
X133250000Y-66920000D01*
X133290000Y-69142000D02*
X133290000Y-66858000D01*
X133330000Y-69199000D02*
X133330000Y-66801000D01*
X133370000Y-69253000D02*
X133370000Y-66747000D01*
X133410000Y-69303000D02*
X133410000Y-66697000D01*
X133450000Y-69351000D02*
X133450000Y-66649000D01*
X133490000Y-67160000D02*
X133490000Y-66604000D01*
X133490000Y-69396000D02*
X133490000Y-68840000D01*
X133530000Y-67160000D02*
X133530000Y-66562000D01*
X133530000Y-69438000D02*
X133530000Y-68840000D01*
X133570000Y-67160000D02*
X133570000Y-66522000D01*
X133570000Y-69478000D02*
X133570000Y-68840000D01*
X133610000Y-67160000D02*
X133610000Y-66484000D01*
X133610000Y-69516000D02*
X133610000Y-68840000D01*
X133650000Y-67160000D02*
X133650000Y-66448000D01*
X133650000Y-69552000D02*
X133650000Y-68840000D01*
X133690000Y-67160000D02*
X133690000Y-66414000D01*
X133690000Y-69586000D02*
X133690000Y-68840000D01*
X133730000Y-67160000D02*
X133730000Y-66381000D01*
X133730000Y-69619000D02*
X133730000Y-68840000D01*
X133770000Y-67160000D02*
X133770000Y-66350000D01*
X133770000Y-69650000D02*
X133770000Y-68840000D01*
X133810000Y-67160000D02*
X133810000Y-66320000D01*
X133810000Y-69680000D02*
X133810000Y-68840000D01*
X133850000Y-67160000D02*
X133850000Y-66292000D01*
X133850000Y-69708000D02*
X133850000Y-68840000D01*
X133890000Y-67160000D02*
X133890000Y-66266000D01*
X133890000Y-69734000D02*
X133890000Y-68840000D01*
X133930000Y-67160000D02*
X133930000Y-66240000D01*
X133930000Y-69760000D02*
X133930000Y-68840000D01*
X133970000Y-67160000D02*
X133970000Y-66216000D01*
X133970000Y-69784000D02*
X133970000Y-68840000D01*
X134010000Y-67160000D02*
X134010000Y-66193000D01*
X134010000Y-69807000D02*
X134010000Y-68840000D01*
X134050000Y-67160000D02*
X134050000Y-66171000D01*
X134050000Y-69829000D02*
X134050000Y-68840000D01*
X134090000Y-67160000D02*
X134090000Y-66150000D01*
X134090000Y-69850000D02*
X134090000Y-68840000D01*
X134130000Y-67160000D02*
X134130000Y-66130000D01*
X134130000Y-69870000D02*
X134130000Y-68840000D01*
X134170000Y-67160000D02*
X134170000Y-66111000D01*
X134170000Y-69889000D02*
X134170000Y-68840000D01*
X134210000Y-67160000D02*
X134210000Y-66094000D01*
X134210000Y-69906000D02*
X134210000Y-68840000D01*
X134250000Y-67160000D02*
X134250000Y-66077000D01*
X134250000Y-69923000D02*
X134250000Y-68840000D01*
X134290000Y-67160000D02*
X134290000Y-66061000D01*
X134290000Y-69939000D02*
X134290000Y-68840000D01*
X134330000Y-67160000D02*
X134330000Y-66046000D01*
X134330000Y-69954000D02*
X134330000Y-68840000D01*
X134370000Y-67160000D02*
X134370000Y-66032000D01*
X134370000Y-69968000D02*
X134370000Y-68840000D01*
X134410000Y-67160000D02*
X134410000Y-66019000D01*
X134410000Y-69981000D02*
X134410000Y-68840000D01*
X134450000Y-67160000D02*
X134450000Y-66007000D01*
X134450000Y-69993000D02*
X134450000Y-68840000D01*
X134490000Y-67160000D02*
X134490000Y-65995000D01*
X134490000Y-70005000D02*
X134490000Y-68840000D01*
X134530000Y-67160000D02*
X134530000Y-65985000D01*
X134530000Y-70015000D02*
X134530000Y-68840000D01*
X134570000Y-67160000D02*
X134570000Y-65975000D01*
X134570000Y-70025000D02*
X134570000Y-68840000D01*
X134610000Y-67160000D02*
X134610000Y-65966000D01*
X134610000Y-70034000D02*
X134610000Y-68840000D01*
X134650000Y-67160000D02*
X134650000Y-65958000D01*
X134650000Y-70042000D02*
X134650000Y-68840000D01*
X134690000Y-67160000D02*
X134690000Y-65951000D01*
X134690000Y-70049000D02*
X134690000Y-68840000D01*
X134730000Y-67160000D02*
X134730000Y-65944000D01*
X134730000Y-70056000D02*
X134730000Y-68840000D01*
X134770000Y-67160000D02*
X134770000Y-65939000D01*
X134770000Y-70061000D02*
X134770000Y-68840000D01*
X134810000Y-67160000D02*
X134810000Y-65934000D01*
X134810000Y-70066000D02*
X134810000Y-68840000D01*
X134850000Y-67160000D02*
X134850000Y-65929000D01*
X134850000Y-70071000D02*
X134850000Y-68840000D01*
X134890000Y-67160000D02*
X134890000Y-65926000D01*
X134890000Y-70074000D02*
X134890000Y-68840000D01*
X134930000Y-67160000D02*
X134930000Y-65923000D01*
X134930000Y-70077000D02*
X134930000Y-68840000D01*
X134970000Y-67160000D02*
X134970000Y-65922000D01*
X134970000Y-70078000D02*
X134970000Y-68840000D01*
X135010000Y-67160000D02*
X135010000Y-65920000D01*
X135010000Y-70080000D02*
X135010000Y-68840000D01*
X135050000Y-67160000D02*
X135050000Y-65920000D01*
X135050000Y-70080000D02*
X135050000Y-68840000D01*
X137119801Y-69395000D02*
X137119801Y-68995000D01*
X137319801Y-69195000D02*
X136919801Y-69195000D01*
D16*
X149012500Y-73590000D02*
X149671000Y-73590000D01*
X152187500Y-73590000D02*
X151529000Y-73590000D01*
X152187500Y-73590000D02*
X152187500Y-68510000D01*
X149012500Y-68510000D02*
X149012500Y-73590000D01*
X149671000Y-68510000D02*
X149012500Y-68510000D01*
X152187500Y-68510000D02*
X151529000Y-68510000D01*
X148112500Y-92740000D02*
X148771000Y-92740000D01*
X151287500Y-92740000D02*
X150629000Y-92740000D01*
X151287500Y-92740000D02*
X151287500Y-87660000D01*
X148112500Y-87660000D02*
X148112500Y-92740000D01*
X148771000Y-87660000D02*
X148112500Y-87660000D01*
X151287500Y-87660000D02*
X150629000Y-87660000D01*
D17*
X122342401Y-98795000D02*
X121942401Y-98795000D01*
X122142401Y-98995000D02*
X122142401Y-98595000D01*
X120072600Y-99680000D02*
X120072600Y-98440000D01*
X120072600Y-96760000D02*
X120072600Y-95520000D01*
X120032600Y-99680000D02*
X120032600Y-98440000D01*
X120032600Y-96760000D02*
X120032600Y-95520000D01*
X119992600Y-99678000D02*
X119992600Y-98440000D01*
X119992600Y-96760000D02*
X119992600Y-95522000D01*
X119952600Y-99677000D02*
X119952600Y-98440000D01*
X119952600Y-96760000D02*
X119952600Y-95523000D01*
X119912600Y-99674000D02*
X119912600Y-98440000D01*
X119912600Y-96760000D02*
X119912600Y-95526000D01*
X119872600Y-99671000D02*
X119872600Y-98440000D01*
X119872600Y-96760000D02*
X119872600Y-95529000D01*
X119832600Y-99666000D02*
X119832600Y-98440000D01*
X119832600Y-96760000D02*
X119832600Y-95534000D01*
X119792600Y-99661000D02*
X119792600Y-98440000D01*
X119792600Y-96760000D02*
X119792600Y-95539000D01*
X119752600Y-99656000D02*
X119752600Y-98440000D01*
X119752600Y-96760000D02*
X119752600Y-95544000D01*
X119712600Y-99649000D02*
X119712600Y-98440000D01*
X119712600Y-96760000D02*
X119712600Y-95551000D01*
X119672600Y-99642000D02*
X119672600Y-98440000D01*
X119672600Y-96760000D02*
X119672600Y-95558000D01*
X119632600Y-99634000D02*
X119632600Y-98440000D01*
X119632600Y-96760000D02*
X119632600Y-95566000D01*
X119592600Y-99625000D02*
X119592600Y-98440000D01*
X119592600Y-96760000D02*
X119592600Y-95575000D01*
X119552600Y-99615000D02*
X119552600Y-98440000D01*
X119552600Y-96760000D02*
X119552600Y-95585000D01*
X119512600Y-99605000D02*
X119512600Y-98440000D01*
X119512600Y-96760000D02*
X119512600Y-95595000D01*
X119472600Y-99593000D02*
X119472600Y-98440000D01*
X119472600Y-96760000D02*
X119472600Y-95607000D01*
X119432600Y-99581000D02*
X119432600Y-98440000D01*
X119432600Y-96760000D02*
X119432600Y-95619000D01*
X119392600Y-99568000D02*
X119392600Y-98440000D01*
X119392600Y-96760000D02*
X119392600Y-95632000D01*
X119352600Y-99554000D02*
X119352600Y-98440000D01*
X119352600Y-96760000D02*
X119352600Y-95646000D01*
X119312600Y-99539000D02*
X119312600Y-98440000D01*
X119312600Y-96760000D02*
X119312600Y-95661000D01*
X119272600Y-99523000D02*
X119272600Y-98440000D01*
X119272600Y-96760000D02*
X119272600Y-95677000D01*
X119232600Y-99506000D02*
X119232600Y-98440000D01*
X119232600Y-96760000D02*
X119232600Y-95694000D01*
X119192600Y-99489000D02*
X119192600Y-98440000D01*
X119192600Y-96760000D02*
X119192600Y-95711000D01*
X119152600Y-99470000D02*
X119152600Y-98440000D01*
X119152600Y-96760000D02*
X119152600Y-95730000D01*
X119112600Y-99450000D02*
X119112600Y-98440000D01*
X119112600Y-96760000D02*
X119112600Y-95750000D01*
X119072600Y-99429000D02*
X119072600Y-98440000D01*
X119072600Y-96760000D02*
X119072600Y-95771000D01*
X119032600Y-99407000D02*
X119032600Y-98440000D01*
X119032600Y-96760000D02*
X119032600Y-95793000D01*
X118992600Y-99384000D02*
X118992600Y-98440000D01*
X118992600Y-96760000D02*
X118992600Y-95816000D01*
X118952600Y-99360000D02*
X118952600Y-98440000D01*
X118952600Y-96760000D02*
X118952600Y-95840000D01*
X118912600Y-99334000D02*
X118912600Y-98440000D01*
X118912600Y-96760000D02*
X118912600Y-95866000D01*
X118872600Y-99308000D02*
X118872600Y-98440000D01*
X118872600Y-96760000D02*
X118872600Y-95892000D01*
X118832600Y-99280000D02*
X118832600Y-98440000D01*
X118832600Y-96760000D02*
X118832600Y-95920000D01*
X118792600Y-99250000D02*
X118792600Y-98440000D01*
X118792600Y-96760000D02*
X118792600Y-95950000D01*
X118752600Y-99219000D02*
X118752600Y-98440000D01*
X118752600Y-96760000D02*
X118752600Y-95981000D01*
X118712600Y-99186000D02*
X118712600Y-98440000D01*
X118712600Y-96760000D02*
X118712600Y-96014000D01*
X118672600Y-99152000D02*
X118672600Y-98440000D01*
X118672600Y-96760000D02*
X118672600Y-96048000D01*
X118632600Y-99116000D02*
X118632600Y-98440000D01*
X118632600Y-96760000D02*
X118632600Y-96084000D01*
X118592600Y-99078000D02*
X118592600Y-98440000D01*
X118592600Y-96760000D02*
X118592600Y-96122000D01*
X118552600Y-99038000D02*
X118552600Y-98440000D01*
X118552600Y-96760000D02*
X118552600Y-96162000D01*
X118512600Y-98996000D02*
X118512600Y-98440000D01*
X118512600Y-96760000D02*
X118512600Y-96204000D01*
X118472600Y-98951000D02*
X118472600Y-96249000D01*
X118432600Y-98903000D02*
X118432600Y-96297000D01*
X118392600Y-98853000D02*
X118392600Y-96347000D01*
X118352600Y-98799000D02*
X118352600Y-96401000D01*
X118312600Y-98742000D02*
X118312600Y-96458000D01*
X118272600Y-98680000D02*
X118272600Y-96520000D01*
X118232600Y-98613000D02*
X118232600Y-96587000D01*
X118192600Y-98540000D02*
X118192600Y-96660000D01*
X118152600Y-98459000D02*
X118152600Y-96741000D01*
X118112600Y-98368000D02*
X118112600Y-96832000D01*
X118072600Y-98263000D02*
X118072600Y-96937000D01*
X118032600Y-98137000D02*
X118032600Y-97063000D01*
X117992600Y-97970000D02*
X117992600Y-97230000D01*
X122192600Y-97600000D02*
G75*
G02*
X117952600Y-97600000I-2120000J0D01*
G01*
X117952600Y-97600000D02*
G75*
G02*
X122192600Y-97600000I2120000J0D01*
G01*
D16*
X106850000Y-75970000D02*
X106850000Y-78890000D01*
X98150000Y-75970000D02*
X106850000Y-75970000D01*
X98150000Y-75970000D02*
X98150000Y-78890000D01*
X106850000Y-78890000D02*
X111600000Y-78890000D01*
X93400000Y-78890000D02*
X98150000Y-78890000D01*
X111600000Y-81430000D02*
X111600000Y-78890000D01*
X93400000Y-81430000D02*
X93400000Y-78890000D01*
X111600000Y-99500000D02*
X111600000Y-96870000D01*
X111600000Y-99500000D02*
X93400000Y-99500000D01*
X93400000Y-99500000D02*
X93400000Y-96870000D01*
D14*
X110700000Y-99750000D02*
G75*
G02*
X110500000Y-99750000I-100000J0D01*
G01*
X110500000Y-99750000D02*
G75*
G02*
X110700000Y-99750000I100000J0D01*
G01*
D17*
X123480000Y-84970000D02*
X116940000Y-84970000D01*
X123480000Y-84640000D02*
X123480000Y-84970000D01*
X123480000Y-82560000D02*
X123480000Y-82230000D01*
X123480000Y-82230000D02*
X116940000Y-82230000D01*
X116940000Y-84970000D02*
X116940000Y-84640000D01*
X116940000Y-82230000D02*
X116940000Y-82560000D01*
D16*
X98650000Y-70780000D02*
X98650000Y-67860000D01*
X107350000Y-70780000D02*
X98650000Y-70780000D01*
X107350000Y-70780000D02*
X107350000Y-67860000D01*
X98650000Y-67860000D02*
X93900000Y-67860000D01*
X112100000Y-67860000D02*
X107350000Y-67860000D01*
X93900000Y-65320000D02*
X93900000Y-67860000D01*
X112100000Y-65320000D02*
X112100000Y-67860000D01*
X93900000Y-47250000D02*
X93900000Y-49880000D01*
X93900000Y-47250000D02*
X112100000Y-47250000D01*
X112100000Y-47250000D02*
X112100000Y-49880000D01*
D14*
X95000000Y-47000000D02*
G75*
G02*
X94800000Y-47000000I-100000J0D01*
G01*
X94800000Y-47000000D02*
G75*
G02*
X95000000Y-47000000I100000J0D01*
G01*
D16*
X141187500Y-79210000D02*
X140529000Y-79210000D01*
X138012500Y-79210000D02*
X138671000Y-79210000D01*
X138012500Y-79210000D02*
X138012500Y-84290000D01*
X141187500Y-84290000D02*
X141187500Y-79210000D01*
X140529000Y-84290000D02*
X141187500Y-84290000D01*
X138012500Y-84290000D02*
X138671000Y-84290000D01*
X154637500Y-56320000D02*
X153979000Y-56320000D01*
X151462500Y-56320000D02*
X152121000Y-56320000D01*
X151462500Y-56320000D02*
X151462500Y-61400000D01*
X154637500Y-61400000D02*
X154637500Y-56320000D01*
X153979000Y-61400000D02*
X154637500Y-61400000D01*
X151462500Y-61400000D02*
X152121000Y-61400000D01*
X132300000Y-85537500D02*
X132300000Y-84879000D01*
X132300000Y-83021000D02*
X132300000Y-82362500D01*
X132300000Y-82362500D02*
X127220000Y-82362500D01*
X127220000Y-85537500D02*
X132300000Y-85537500D01*
X127220000Y-85537500D02*
X127220000Y-84879000D01*
X127220000Y-82362500D02*
X127220000Y-83021000D01*
D17*
X135870000Y-88900000D02*
G75*
G02*
X131630000Y-88900000I-2120000J0D01*
G01*
X131630000Y-88900000D02*
G75*
G02*
X135870000Y-88900000I2120000J0D01*
G01*
X131670000Y-89270000D02*
X131670000Y-88530000D01*
X131710000Y-89437000D02*
X131710000Y-88363000D01*
X131750000Y-89563000D02*
X131750000Y-88237000D01*
X131790000Y-89668000D02*
X131790000Y-88132000D01*
X131830000Y-89759000D02*
X131830000Y-88041000D01*
X131870000Y-89840000D02*
X131870000Y-87960000D01*
X131910000Y-89913000D02*
X131910000Y-87887000D01*
X131950000Y-89980000D02*
X131950000Y-87820000D01*
X131990000Y-90042000D02*
X131990000Y-87758000D01*
X132030000Y-90099000D02*
X132030000Y-87701000D01*
X132070000Y-90153000D02*
X132070000Y-87647000D01*
X132110000Y-90203000D02*
X132110000Y-87597000D01*
X132150000Y-90251000D02*
X132150000Y-87549000D01*
X132190000Y-88060000D02*
X132190000Y-87504000D01*
X132190000Y-90296000D02*
X132190000Y-89740000D01*
X132230000Y-88060000D02*
X132230000Y-87462000D01*
X132230000Y-90338000D02*
X132230000Y-89740000D01*
X132270000Y-88060000D02*
X132270000Y-87422000D01*
X132270000Y-90378000D02*
X132270000Y-89740000D01*
X132310000Y-88060000D02*
X132310000Y-87384000D01*
X132310000Y-90416000D02*
X132310000Y-89740000D01*
X132350000Y-88060000D02*
X132350000Y-87348000D01*
X132350000Y-90452000D02*
X132350000Y-89740000D01*
X132390000Y-88060000D02*
X132390000Y-87314000D01*
X132390000Y-90486000D02*
X132390000Y-89740000D01*
X132430000Y-88060000D02*
X132430000Y-87281000D01*
X132430000Y-90519000D02*
X132430000Y-89740000D01*
X132470000Y-88060000D02*
X132470000Y-87250000D01*
X132470000Y-90550000D02*
X132470000Y-89740000D01*
X132510000Y-88060000D02*
X132510000Y-87220000D01*
X132510000Y-90580000D02*
X132510000Y-89740000D01*
X132550000Y-88060000D02*
X132550000Y-87192000D01*
X132550000Y-90608000D02*
X132550000Y-89740000D01*
X132590000Y-88060000D02*
X132590000Y-87166000D01*
X132590000Y-90634000D02*
X132590000Y-89740000D01*
X132630000Y-88060000D02*
X132630000Y-87140000D01*
X132630000Y-90660000D02*
X132630000Y-89740000D01*
X132670000Y-88060000D02*
X132670000Y-87116000D01*
X132670000Y-90684000D02*
X132670000Y-89740000D01*
X132710000Y-88060000D02*
X132710000Y-87093000D01*
X132710000Y-90707000D02*
X132710000Y-89740000D01*
X132750000Y-88060000D02*
X132750000Y-87071000D01*
X132750000Y-90729000D02*
X132750000Y-89740000D01*
X132790000Y-88060000D02*
X132790000Y-87050000D01*
X132790000Y-90750000D02*
X132790000Y-89740000D01*
X132830000Y-88060000D02*
X132830000Y-87030000D01*
X132830000Y-90770000D02*
X132830000Y-89740000D01*
X132870000Y-88060000D02*
X132870000Y-87011000D01*
X132870000Y-90789000D02*
X132870000Y-89740000D01*
X132910000Y-88060000D02*
X132910000Y-86994000D01*
X132910000Y-90806000D02*
X132910000Y-89740000D01*
X132950000Y-88060000D02*
X132950000Y-86977000D01*
X132950000Y-90823000D02*
X132950000Y-89740000D01*
X132990000Y-88060000D02*
X132990000Y-86961000D01*
X132990000Y-90839000D02*
X132990000Y-89740000D01*
X133030000Y-88060000D02*
X133030000Y-86946000D01*
X133030000Y-90854000D02*
X133030000Y-89740000D01*
X133070000Y-88060000D02*
X133070000Y-86932000D01*
X133070000Y-90868000D02*
X133070000Y-89740000D01*
X133110000Y-88060000D02*
X133110000Y-86919000D01*
X133110000Y-90881000D02*
X133110000Y-89740000D01*
X133150000Y-88060000D02*
X133150000Y-86907000D01*
X133150000Y-90893000D02*
X133150000Y-89740000D01*
X133190000Y-88060000D02*
X133190000Y-86895000D01*
X133190000Y-90905000D02*
X133190000Y-89740000D01*
X133230000Y-88060000D02*
X133230000Y-86885000D01*
X133230000Y-90915000D02*
X133230000Y-89740000D01*
X133270000Y-88060000D02*
X133270000Y-86875000D01*
X133270000Y-90925000D02*
X133270000Y-89740000D01*
X133310000Y-88060000D02*
X133310000Y-86866000D01*
X133310000Y-90934000D02*
X133310000Y-89740000D01*
X133350000Y-88060000D02*
X133350000Y-86858000D01*
X133350000Y-90942000D02*
X133350000Y-89740000D01*
X133390000Y-88060000D02*
X133390000Y-86851000D01*
X133390000Y-90949000D02*
X133390000Y-89740000D01*
X133430000Y-88060000D02*
X133430000Y-86844000D01*
X133430000Y-90956000D02*
X133430000Y-89740000D01*
X133470000Y-88060000D02*
X133470000Y-86839000D01*
X133470000Y-90961000D02*
X133470000Y-89740000D01*
X133510000Y-88060000D02*
X133510000Y-86834000D01*
X133510000Y-90966000D02*
X133510000Y-89740000D01*
X133550000Y-88060000D02*
X133550000Y-86829000D01*
X133550000Y-90971000D02*
X133550000Y-89740000D01*
X133590000Y-88060000D02*
X133590000Y-86826000D01*
X133590000Y-90974000D02*
X133590000Y-89740000D01*
X133630000Y-88060000D02*
X133630000Y-86823000D01*
X133630000Y-90977000D02*
X133630000Y-89740000D01*
X133670000Y-88060000D02*
X133670000Y-86822000D01*
X133670000Y-90978000D02*
X133670000Y-89740000D01*
X133710000Y-88060000D02*
X133710000Y-86820000D01*
X133710000Y-90980000D02*
X133710000Y-89740000D01*
X133750000Y-88060000D02*
X133750000Y-86820000D01*
X133750000Y-90980000D02*
X133750000Y-89740000D01*
X135819801Y-90295000D02*
X135819801Y-89895000D01*
X136019801Y-90095000D02*
X135619801Y-90095000D01*
D16*
X143400000Y-81612500D02*
X143400000Y-82271000D01*
X143400000Y-84787500D02*
X143400000Y-84129000D01*
X143400000Y-84787500D02*
X149900000Y-84787500D01*
X149900000Y-81612500D02*
X143400000Y-81612500D01*
X149900000Y-82366750D02*
X149900000Y-81708250D01*
X149900000Y-84696000D02*
X149900000Y-84037500D01*
X150737500Y-56360000D02*
X150079000Y-56360000D01*
X148221000Y-56360000D02*
X147562500Y-56360000D01*
X147562500Y-56360000D02*
X147562500Y-61440000D01*
X150737500Y-61440000D02*
X150737500Y-56360000D01*
X150737500Y-61440000D02*
X150079000Y-61440000D01*
X147562500Y-61440000D02*
X148221000Y-61440000D01*
X130862500Y-61640000D02*
X131521000Y-61640000D01*
X134037500Y-61640000D02*
X133379000Y-61640000D01*
X134037500Y-61640000D02*
X134037500Y-56560000D01*
X130862500Y-56560000D02*
X130862500Y-61640000D01*
X131521000Y-56560000D02*
X130862500Y-56560000D01*
X134037500Y-56560000D02*
X133379000Y-56560000D01*
D17*
X104690000Y-74636000D02*
X104690000Y-74480000D01*
X104690000Y-72320000D02*
X104690000Y-72164000D01*
X104690000Y-74635516D02*
G75*
G02*
X101458563Y-74480000I-1560000J1235516D01*
G01*
X104170961Y-74480000D02*
G75*
G02*
X102089039Y-74480000I-1040961J1080000D01*
G01*
X102089039Y-72320000D02*
G75*
G02*
X104170961Y-72320000I1040961J-1080000D01*
G01*
X101458563Y-72320000D02*
G75*
G02*
X104690000Y-72164484I1671437J-1080000D01*
G01*
X143330000Y-77730000D02*
X149870000Y-77730000D01*
X143330000Y-78060000D02*
X143330000Y-77730000D01*
X143330000Y-80140000D02*
X143330000Y-80470000D01*
X143330000Y-80470000D02*
X149870000Y-80470000D01*
X149870000Y-77730000D02*
X149870000Y-78060000D01*
X149870000Y-80470000D02*
X149870000Y-80140000D01*
X123470000Y-91170000D02*
X116930000Y-91170000D01*
X123470000Y-90840000D02*
X123470000Y-91170000D01*
X123470000Y-88760000D02*
X123470000Y-88430000D01*
X123470000Y-88430000D02*
X116930000Y-88430000D01*
X116930000Y-91170000D02*
X116930000Y-90840000D01*
X116930000Y-88430000D02*
X116930000Y-88760000D01*
X134120000Y-94220000D02*
X134120000Y-93890000D01*
X134120000Y-91480000D02*
X134120000Y-91810000D01*
X127580000Y-94220000D02*
X134120000Y-94220000D01*
X127580000Y-93890000D02*
X127580000Y-94220000D01*
X127580000Y-91810000D02*
X127580000Y-91480000D01*
X127580000Y-91480000D02*
X134120000Y-91480000D01*
X154770000Y-86130000D02*
X154770000Y-92670000D01*
X154440000Y-86130000D02*
X154770000Y-86130000D01*
X152360000Y-86130000D02*
X152030000Y-86130000D01*
X152030000Y-86130000D02*
X152030000Y-92670000D01*
X154770000Y-92670000D02*
X154440000Y-92670000D01*
X152030000Y-92670000D02*
X152360000Y-92670000D01*
X140620000Y-55620000D02*
X140620000Y-62160000D01*
X140290000Y-55620000D02*
X140620000Y-55620000D01*
X138210000Y-55620000D02*
X137880000Y-55620000D01*
X137880000Y-55620000D02*
X137880000Y-62160000D01*
X140620000Y-62160000D02*
X140290000Y-62160000D01*
X137880000Y-62160000D02*
X138210000Y-62160000D01*
X134580000Y-85060000D02*
X134580000Y-78520000D01*
X134910000Y-85060000D02*
X134580000Y-85060000D01*
X136990000Y-85060000D02*
X137320000Y-85060000D01*
X137320000Y-85060000D02*
X137320000Y-78520000D01*
X134580000Y-78520000D02*
X134910000Y-78520000D01*
X137320000Y-78520000D02*
X136990000Y-78520000D01*
X116940000Y-91530000D02*
X123480000Y-91530000D01*
X116940000Y-91860000D02*
X116940000Y-91530000D01*
X116940000Y-93940000D02*
X116940000Y-94270000D01*
X116940000Y-94270000D02*
X123480000Y-94270000D01*
X123480000Y-91530000D02*
X123480000Y-91860000D01*
X123480000Y-94270000D02*
X123480000Y-93940000D01*
D16*
X165850000Y-59650000D02*
G75*
G02*
X155250000Y-59650000I-5300000J0D01*
G01*
X155250000Y-59650000D02*
G75*
G02*
X165850000Y-59650000I5300000J0D01*
G01*
D17*
X144280000Y-62180000D02*
X144610000Y-62180000D01*
X147020000Y-62180000D02*
X146690000Y-62180000D01*
X144280000Y-55640000D02*
X144280000Y-62180000D01*
X144610000Y-55640000D02*
X144280000Y-55640000D01*
X146690000Y-55640000D02*
X147020000Y-55640000D01*
X147020000Y-55640000D02*
X147020000Y-62180000D01*
X127320000Y-53420000D02*
X127320000Y-59960000D01*
X126990000Y-53420000D02*
X127320000Y-53420000D01*
X124910000Y-53420000D02*
X124580000Y-53420000D01*
X124580000Y-53420000D02*
X124580000Y-59960000D01*
X127320000Y-59960000D02*
X126990000Y-59960000D01*
X124580000Y-59960000D02*
X124910000Y-59960000D01*
X134680000Y-62170000D02*
X135010000Y-62170000D01*
X137420000Y-62170000D02*
X137090000Y-62170000D01*
X134680000Y-55630000D02*
X134680000Y-62170000D01*
X135010000Y-55630000D02*
X134680000Y-55630000D01*
X137090000Y-55630000D02*
X137420000Y-55630000D01*
X137420000Y-55630000D02*
X137420000Y-62170000D01*
D16*
X166050000Y-87000000D02*
G75*
G02*
X155450000Y-87000000I-5300000J0D01*
G01*
X155450000Y-87000000D02*
G75*
G02*
X166050000Y-87000000I5300000J0D01*
G01*
D17*
X143820000Y-55630000D02*
X143490000Y-55630000D01*
X141080000Y-55630000D02*
X141410000Y-55630000D01*
X143820000Y-62170000D02*
X143820000Y-55630000D01*
X143490000Y-62170000D02*
X143820000Y-62170000D01*
X141410000Y-62170000D02*
X141080000Y-62170000D01*
X141080000Y-62170000D02*
X141080000Y-55630000D01*
X123470000Y-88070000D02*
X116930000Y-88070000D01*
X123470000Y-87740000D02*
X123470000Y-88070000D01*
X123470000Y-85660000D02*
X123470000Y-85330000D01*
X123470000Y-85330000D02*
X116930000Y-85330000D01*
X116930000Y-88070000D02*
X116930000Y-87740000D01*
X116930000Y-85330000D02*
X116930000Y-85660000D01*
X117200000Y-94700000D02*
X117200000Y-96100000D01*
X115800000Y-94700000D02*
X117200000Y-94700000D01*
X117200000Y-96100000D02*
X115800000Y-96100000D01*
X115800000Y-96100000D02*
X115800000Y-94700000D01*
D16*
X137835000Y-88285000D02*
X137835000Y-93115000D01*
X147365000Y-88285000D02*
X137835000Y-88285000D01*
X147365000Y-93115000D02*
X147365000Y-88285000D01*
X137835000Y-93115000D02*
X147365000Y-93115000D01*
D14*
X137200000Y-90705000D02*
G75*
G02*
X137000000Y-90705000I-100000J0D01*
G01*
X137000000Y-90705000D02*
G75*
G02*
X137200000Y-90705000I100000J0D01*
G01*
D17*
X114500000Y-53300000D02*
X115900000Y-53300000D01*
X114500000Y-54700000D02*
X114500000Y-53300000D01*
X115900000Y-53300000D02*
X115900000Y-54700000D01*
X115900000Y-54700000D02*
X114500000Y-54700000D01*
D10*
X130550000Y-62150000D02*
X130550000Y-81750000D01*
X113550000Y-62150000D02*
X130550000Y-62150000D01*
X130550000Y-81750000D02*
X113550000Y-81750000D01*
X113550000Y-81750000D02*
X113550000Y-62150000D01*
X130550000Y-62150000D02*
X113550000Y-62150000D01*
X113550000Y-81750000D01*
X130550000Y-81750000D01*
X130550000Y-62150000D01*
D17*
X123600000Y-96760000D02*
X125000000Y-96760000D01*
X123600000Y-98160000D02*
X123600000Y-96760000D01*
X125000000Y-96760000D02*
X125000000Y-98160000D01*
X125000000Y-98160000D02*
X123600000Y-98160000D01*
X126610000Y-96130000D02*
X127940000Y-96130000D01*
X126610000Y-97460000D02*
X126610000Y-96130000D01*
X129210000Y-96130000D02*
X147050000Y-96130000D01*
X129210000Y-98790000D02*
X129210000Y-96130000D01*
X129210000Y-98790000D02*
X147050000Y-98790000D01*
X147050000Y-98790000D02*
X147050000Y-96130000D01*
X149470000Y-96130000D02*
X150800000Y-96130000D01*
X149470000Y-97460000D02*
X149470000Y-96130000D01*
X152070000Y-96130000D02*
X164830000Y-96130000D01*
X152070000Y-98790000D02*
X152070000Y-96130000D01*
X152070000Y-98790000D02*
X164830000Y-98790000D01*
X164830000Y-98790000D02*
X164830000Y-96130000D01*
X117466000Y-47870000D02*
X118796000Y-47870000D01*
X117466000Y-49200000D02*
X117466000Y-47870000D01*
X120066000Y-47870000D02*
X142986000Y-47870000D01*
X120066000Y-50530000D02*
X120066000Y-47870000D01*
X120066000Y-50530000D02*
X142986000Y-50530000D01*
X142986000Y-50530000D02*
X142986000Y-47870000D01*
X144390000Y-47870000D02*
X145720000Y-47870000D01*
X144390000Y-49200000D02*
X144390000Y-47870000D01*
X146990000Y-47870000D02*
X164830000Y-47870000D01*
X146990000Y-50530000D02*
X146990000Y-47870000D01*
X146990000Y-50530000D02*
X164830000Y-50530000D01*
X164830000Y-50530000D02*
X164830000Y-47870000D01*
D14*
X146960000Y-66300000D02*
G75*
G02*
X146760000Y-66300000I-100000J0D01*
G01*
X146760000Y-66300000D02*
G75*
G02*
X146960000Y-66300000I100000J0D01*
G01*
D16*
X138255000Y-74675000D02*
X138350000Y-74675000D01*
X147845000Y-74675000D02*
X147750000Y-74675000D01*
X138255000Y-68325000D02*
X138255000Y-74675000D01*
X138255000Y-68325000D02*
X138350000Y-68325000D01*
X147845000Y-68325000D02*
X147845000Y-74675000D01*
X147845000Y-68325000D02*
X147750000Y-68325000D01*
%LPC*%
D18*
X164450000Y-71450000D03*
X159750000Y-71450000D03*
X155050000Y-71450000D03*
D19*
X134300000Y-68000000D03*
D20*
X135800000Y-68000000D03*
D21*
X150600000Y-73590000D03*
X150600000Y-68510000D03*
X149700000Y-92740000D03*
X149700000Y-87660000D03*
D20*
X120822600Y-97600000D03*
D19*
X119322600Y-97600000D03*
D22*
X110615000Y-82800000D03*
X110615000Y-95500000D03*
X110615000Y-89150000D03*
X94385000Y-89150000D03*
X94385000Y-95500000D03*
X94385000Y-82800000D03*
D23*
X124020000Y-83600000D03*
X116400000Y-83600000D03*
D22*
X94885000Y-63950000D03*
X94885000Y-51250000D03*
X94885000Y-57600000D03*
X111115000Y-57600000D03*
X111115000Y-51250000D03*
X111115000Y-63950000D03*
D21*
X139600000Y-79210000D03*
X139600000Y-84290000D03*
X153050000Y-56320000D03*
X153050000Y-61400000D03*
X132300000Y-83950000D03*
X127220000Y-83950000D03*
D19*
X133000000Y-88900000D03*
D20*
X134500000Y-88900000D03*
D21*
X143400000Y-83200000D03*
X149800000Y-83200000D03*
X149150000Y-56360000D03*
X149150000Y-61440000D03*
X132450000Y-61640000D03*
X132450000Y-56560000D03*
D24*
X104400000Y-73400000D03*
D25*
X101860000Y-73400000D03*
D23*
X142790000Y-79100000D03*
X150410000Y-79100000D03*
X124010000Y-89800000D03*
X116390000Y-89800000D03*
X134660000Y-92850000D03*
X127040000Y-92850000D03*
X153400000Y-85590000D03*
X153400000Y-93210000D03*
X139250000Y-55080000D03*
X139250000Y-62700000D03*
X135950000Y-85600000D03*
X135950000Y-77980000D03*
X116400000Y-92900000D03*
X124020000Y-92900000D03*
D26*
X158500000Y-59650000D03*
X162600000Y-59650000D03*
D23*
X145650000Y-62720000D03*
X145650000Y-55100000D03*
X125950000Y-52880000D03*
X125950000Y-60500000D03*
X136050000Y-62710000D03*
X136050000Y-55090000D03*
D26*
X158700000Y-87000000D03*
X162800000Y-87000000D03*
D23*
X142450000Y-55090000D03*
X142450000Y-62710000D03*
X124010000Y-86700000D03*
X116390000Y-86700000D03*
D27*
X116500000Y-95400000D03*
D28*
X140100000Y-90705000D03*
D29*
X142600000Y-90705000D03*
X145100000Y-90705000D03*
D27*
X115200000Y-54000000D03*
D30*
X126850000Y-66650000D03*
X122050000Y-66650000D03*
X117250000Y-66650000D03*
X126850000Y-71950000D03*
X122050000Y-71950000D03*
X117250000Y-71950000D03*
X126850000Y-77250000D03*
X122050000Y-77250000D03*
X117250000Y-77250000D03*
D27*
X124300000Y-97460000D03*
D31*
X127940000Y-97460000D03*
D32*
X130480000Y-97460000D03*
X133020000Y-97460000D03*
X135560000Y-97460000D03*
X138100000Y-97460000D03*
X140640000Y-97460000D03*
X143180000Y-97460000D03*
X145720000Y-97460000D03*
D31*
X150800000Y-97460000D03*
D32*
X153340000Y-97460000D03*
X155880000Y-97460000D03*
X158420000Y-97460000D03*
X160960000Y-97460000D03*
X163500000Y-97460000D03*
D31*
X118796000Y-49200000D03*
D32*
X121336000Y-49200000D03*
X123876000Y-49200000D03*
X126416000Y-49200000D03*
X128956000Y-49200000D03*
X131496000Y-49200000D03*
X134036000Y-49200000D03*
X136576000Y-49200000D03*
X139116000Y-49200000D03*
X141656000Y-49200000D03*
D31*
X145720000Y-49200000D03*
D32*
X148260000Y-49200000D03*
X150800000Y-49200000D03*
X153340000Y-49200000D03*
X155880000Y-49200000D03*
X158420000Y-49200000D03*
X160960000Y-49200000D03*
X163500000Y-49200000D03*
D33*
X115240000Y-49200000D03*
X113970000Y-97460000D03*
X166040000Y-64440000D03*
X166040000Y-92380000D03*
D34*
X146860000Y-75470000D03*
X144320000Y-75470000D03*
X141780000Y-75470000D03*
X139240000Y-75470000D03*
X139240000Y-67530000D03*
X141780000Y-67530000D03*
X144320000Y-67530000D03*
D35*
X146860000Y-67530000D03*
%LPD*%
M02*
